<svg width="351" height="74" viewBox="0 0 351 74" fill="none" xmlns="http://www.w3.org/2000/svg">
<g filter="url(#filter0_dd_149_4894)">
<rect x="3" y="6" width="345" height="54" rx="5" fill="#311E5D"/>
<rect x="38.1865" y="6" width="275.627" height="54" rx="5" fill="#311E5D"/>
<g filter="url(#filter1_ddd_149_4894)">
<path d="M54.002 26.1062C54.002 22.7338 56.7358 20 60.1081 20H67.232C68.3562 20 69.2674 20.9113 69.2674 22.0354V28.291C69.2674 28.883 68.7876 29.3628 68.1956 29.3628H55.0737C54.4818 29.3628 54.002 28.883 54.002 28.291V26.1062Z" fill="#F51D80" stroke="white" stroke-width="1.22124"/>
<path d="M77.002 36.8938C77.002 40.2662 74.2681 43 70.8958 43H63.7719C62.6477 43 61.7365 42.0887 61.7365 40.9646V34.5054C61.7365 33.9135 62.2163 33.4336 62.8083 33.4336H75.9302C76.5221 33.4336 77.002 33.9135 77.002 34.5054V36.8938Z" fill="#3A0CA3" stroke="white" stroke-width="1.22124"/>
<path d="M56.702 27.5308C58.1427 27.5308 65.4308 27.493 70.8649 27.4636C74.2506 27.4453 77.002 30.1847 77.002 33.5705V35.7899V37.8096C77.002 36.6992 76.5004 34.915 73.202 34.915H59.889C56.637 34.915 54.002 32.2787 54.002 29.0267V25.2919C54.002 25.2919 54.3491 27.5308 56.702 27.5308Z" fill="#40A3FE" stroke="white" stroke-width="1.22124" stroke-linejoin="round"/>
<path d="M54.0007 22.8506C53.3901 23.9701 53.1865 25.2424 53.1865 25.9037C53.1865 26.2403 53.1865 27.3398 53.1865 27.4302" stroke="#3A0CA3" stroke-width="0.40708" stroke-linecap="round"/>
</g>
<path d="M76.9993 40.252C77.6099 39.1325 77.8135 37.8602 77.8135 37.1989C77.8135 36.8622 77.8135 35.7627 77.8135 35.6723" stroke="#311E5D" stroke-width="0.40708" stroke-linecap="round"/>
<path d="M100.473 40.24C99.0868 40.24 97.8868 39.94 96.8735 39.34C95.8735 38.7267 95.1001 37.88 94.5535 36.8C94.0068 35.7067 93.7335 34.4467 93.7335 33.02C93.7335 31.58 94.0068 30.32 94.5535 29.24C95.1001 28.1467 95.8735 27.2933 96.8735 26.68C97.8868 26.0667 99.0868 25.76 100.473 25.76C102.113 25.76 103.453 26.16 104.493 26.96C105.533 27.76 106.193 28.88 106.473 30.32H104.113C103.927 29.5067 103.527 28.86 102.913 28.38C102.3 27.9 101.48 27.66 100.453 27.66C99.0535 27.66 97.9468 28.14 97.1335 29.1C96.3201 30.0467 95.9135 31.3533 95.9135 33.02C95.9135 34.6733 96.3201 35.9733 97.1335 36.92C97.9468 37.8667 99.0535 38.34 100.453 38.34C101.48 38.34 102.3 38.1133 102.913 37.66C103.527 37.2067 103.927 36.5867 104.113 35.8H106.473C106.193 37.1867 105.533 38.2733 104.493 39.06C103.453 39.8467 102.113 40.24 100.473 40.24ZM113.364 40.24C112.417 40.24 111.564 40.0267 110.804 39.6C110.057 39.16 109.464 38.5533 109.024 37.78C108.584 36.9933 108.364 36.08 108.364 35.04C108.364 34 108.584 33.0933 109.024 32.32C109.477 31.5333 110.084 30.9267 110.844 30.5C111.604 30.06 112.45 29.84 113.384 29.84C114.33 29.84 115.177 30.06 115.924 30.5C116.684 30.9267 117.284 31.5333 117.724 32.32C118.177 33.0933 118.404 34 118.404 35.04C118.404 36.08 118.177 36.9933 117.724 37.78C117.284 38.5533 116.684 39.16 115.924 39.6C115.164 40.0267 114.31 40.24 113.364 40.24ZM113.364 38.42C113.87 38.42 114.337 38.2933 114.764 38.04C115.204 37.7867 115.557 37.4133 115.824 36.92C116.09 36.4133 116.224 35.7867 116.224 35.04C116.224 34.2933 116.09 33.6733 115.824 33.18C115.57 32.6733 115.224 32.2933 114.784 32.04C114.357 31.7867 113.89 31.66 113.384 31.66C112.877 31.66 112.404 31.7867 111.964 32.04C111.537 32.2933 111.19 32.6733 110.924 33.18C110.657 33.6733 110.524 34.2933 110.524 35.04C110.524 35.7867 110.657 36.4133 110.924 36.92C111.19 37.4133 111.537 37.7867 111.964 38.04C112.39 38.2933 112.857 38.42 113.364 38.42ZM120.696 40V30.08H122.576L122.736 31.82C123.043 31.2067 123.49 30.7267 124.076 30.38C124.676 30.02 125.363 29.84 126.136 29.84C127.336 29.84 128.276 30.2133 128.956 30.96C129.65 31.7067 129.996 32.82 129.996 34.3V40H127.896V34.52C127.896 32.6 127.11 31.64 125.536 31.64C124.75 31.64 124.096 31.92 123.576 32.48C123.07 33.04 122.816 33.84 122.816 34.88V40H120.696ZM132.493 40V30.08H134.373L134.533 31.82C134.84 31.2067 135.287 30.7267 135.873 30.38C136.473 30.02 137.16 29.84 137.933 29.84C139.133 29.84 140.073 30.2133 140.753 30.96C141.447 31.7067 141.793 32.82 141.793 34.3V40H139.693V34.52C139.693 32.6 138.907 31.64 137.333 31.64C136.547 31.64 135.893 31.92 135.373 32.48C134.867 33.04 134.613 33.84 134.613 34.88V40H132.493ZM148.93 40.24C147.957 40.24 147.09 40.0267 146.33 39.6C145.584 39.16 144.997 38.5533 144.57 37.78C144.144 37.0067 143.93 36.1067 143.93 35.08C143.93 34.04 144.137 33.1267 144.55 32.34C144.977 31.5533 145.564 30.94 146.31 30.5C147.07 30.06 147.95 29.84 148.95 29.84C149.924 29.84 150.77 30.06 151.49 30.5C152.21 30.9267 152.77 31.5 153.17 32.22C153.57 32.94 153.77 33.7333 153.77 34.6C153.77 34.7333 153.764 34.88 153.75 35.04C153.75 35.1867 153.744 35.3533 153.73 35.54H146.01C146.077 36.5 146.39 37.2333 146.95 37.74C147.524 38.2333 148.184 38.48 148.93 38.48C149.53 38.48 150.03 38.3467 150.43 38.08C150.844 37.8 151.15 37.4267 151.35 36.96H153.47C153.204 37.8933 152.67 38.6733 151.87 39.3C151.084 39.9267 150.104 40.24 148.93 40.24ZM148.93 31.58C148.224 31.58 147.597 31.7933 147.05 32.22C146.504 32.6333 146.17 33.26 146.05 34.1H151.65C151.61 33.3267 151.337 32.7133 150.83 32.26C150.324 31.8067 149.69 31.58 148.93 31.58ZM160.67 40.24C159.697 40.24 158.823 40.02 158.05 39.58C157.29 39.14 156.69 38.5333 156.25 37.76C155.823 36.9733 155.61 36.0667 155.61 35.04C155.61 34.0133 155.823 33.1133 156.25 32.34C156.69 31.5533 157.29 30.94 158.05 30.5C158.823 30.06 159.697 29.84 160.67 29.84C161.897 29.84 162.923 30.16 163.75 30.8C164.59 31.44 165.13 32.3067 165.37 33.4H163.15C163.017 32.8533 162.723 32.4267 162.27 32.12C161.817 31.8133 161.283 31.66 160.67 31.66C160.15 31.66 159.67 31.7933 159.23 32.06C158.79 32.3133 158.437 32.6933 158.17 33.2C157.903 33.6933 157.77 34.3067 157.77 35.04C157.77 35.7733 157.903 36.3933 158.17 36.9C158.437 37.3933 158.79 37.7733 159.23 38.04C159.67 38.3067 160.15 38.44 160.67 38.44C161.283 38.44 161.817 38.2867 162.27 37.98C162.723 37.6733 163.017 37.24 163.15 36.68H165.37C165.143 37.7467 164.61 38.6067 163.77 39.26C162.93 39.9133 161.897 40.24 160.67 40.24ZM171.634 40C170.66 40 169.887 39.7667 169.314 39.3C168.74 38.82 168.454 37.9733 168.454 36.76V31.86H166.754V30.08H168.454L168.714 27.56H170.574V30.08H173.374V31.86H170.574V36.76C170.574 37.3067 170.687 37.6867 170.914 37.9C171.154 38.1 171.56 38.2 172.134 38.2H173.274V40H171.634ZM182.579 40L179.659 30.08H181.779L183.699 37.56L185.859 30.08H188.219L190.379 37.56L192.299 30.08H194.419L191.499 40H189.319L187.039 32.2L184.759 40H182.579ZM197.365 28.2C196.965 28.2 196.632 28.08 196.365 27.84C196.112 27.5867 195.985 27.2733 195.985 26.9C195.985 26.5267 196.112 26.22 196.365 25.98C196.632 25.7267 196.965 25.6 197.365 25.6C197.765 25.6 198.092 25.7267 198.345 25.98C198.612 26.22 198.745 26.5267 198.745 26.9C198.745 27.2733 198.612 27.5867 198.345 27.84C198.092 28.08 197.765 28.2 197.365 28.2ZM196.305 40V30.08H198.425V40H196.305ZM205.384 40C204.41 40 203.637 39.7667 203.064 39.3C202.49 38.82 202.204 37.9733 202.204 36.76V31.86H200.504V30.08H202.204L202.464 27.56H204.324V30.08H207.124V31.86H204.324V36.76C204.324 37.3067 204.437 37.6867 204.664 37.9C204.904 38.1 205.31 38.2 205.884 38.2H207.024V40H205.384ZM209.31 40V25.6H211.43V31.68C211.763 31.1067 212.223 30.66 212.81 30.34C213.41 30.0067 214.07 29.84 214.79 29.84C215.976 29.84 216.91 30.2133 217.59 30.96C218.27 31.7067 218.61 32.82 218.61 34.3V40H216.51V34.52C216.51 32.6 215.743 31.64 214.21 31.64C213.41 31.64 212.743 31.92 212.21 32.48C211.69 33.04 211.43 33.84 211.43 34.88V40H209.31ZM230.846 40.24C229.819 40.24 228.919 40.06 228.146 39.7C227.372 39.34 226.766 38.8267 226.326 38.16C225.899 37.4933 225.679 36.7 225.666 35.78H227.906C227.919 36.5267 228.179 37.16 228.686 37.68C229.192 38.2 229.906 38.46 230.826 38.46C231.639 38.46 232.272 38.2667 232.726 37.88C233.192 37.48 233.426 36.9733 233.426 36.36C233.426 35.8667 233.312 35.4667 233.086 35.16C232.872 34.8533 232.572 34.6 232.186 34.4C231.812 34.2 231.379 34.02 230.886 33.86C230.392 33.7 229.872 33.5267 229.326 33.34C228.246 32.98 227.432 32.5133 226.886 31.94C226.352 31.3667 226.086 30.6133 226.086 29.68C226.072 28.8933 226.252 28.2067 226.626 27.62C227.012 27.0333 227.546 26.58 228.226 26.26C228.919 25.9267 229.726 25.76 230.646 25.76C231.552 25.76 232.346 25.9267 233.026 26.26C233.719 26.5933 234.259 27.06 234.646 27.66C235.032 28.2467 235.232 28.9333 235.246 29.72H233.006C233.006 29.36 232.912 29.02 232.726 28.7C232.539 28.3667 232.266 28.0933 231.906 27.88C231.546 27.6667 231.106 27.56 230.586 27.56C229.919 27.5467 229.366 27.7133 228.926 28.06C228.499 28.4067 228.286 28.8867 228.286 29.5C228.286 30.0467 228.446 30.4667 228.766 30.76C229.086 31.0533 229.526 31.3 230.086 31.5C230.646 31.6867 231.286 31.9067 232.006 32.16C232.699 32.3867 233.319 32.66 233.866 32.98C234.412 33.3 234.846 33.72 235.166 34.24C235.499 34.76 235.666 35.42 235.666 36.22C235.666 36.9267 235.486 37.5867 235.126 38.2C234.766 38.8 234.226 39.2933 233.506 39.68C232.786 40.0533 231.899 40.24 230.846 40.24ZM241.563 40.24C240.363 40.24 239.417 39.8667 238.723 39.12C238.043 38.3733 237.703 37.26 237.703 35.78V30.08H239.823V35.56C239.823 37.48 240.61 38.44 242.183 38.44C242.97 38.44 243.617 38.16 244.123 37.6C244.63 37.04 244.883 36.24 244.883 35.2V30.08H247.003V40H245.123L244.963 38.26C244.657 38.8733 244.203 39.36 243.603 39.72C243.017 40.0667 242.337 40.24 241.563 40.24ZM255.28 40.24C254.507 40.24 253.82 40.0867 253.22 39.78C252.634 39.4733 252.167 39.04 251.82 38.48L251.6 40H249.7V25.6H251.82V31.62C252.14 31.1533 252.58 30.74 253.14 30.38C253.7 30.02 254.42 29.84 255.3 29.84C256.26 29.84 257.107 30.0667 257.84 30.52C258.574 30.9733 259.147 31.5933 259.56 32.38C259.987 33.1667 260.2 34.06 260.2 35.06C260.2 36.06 259.987 36.9533 259.56 37.74C259.147 38.5133 258.574 39.1267 257.84 39.58C257.107 40.02 256.254 40.24 255.28 40.24ZM254.92 38.4C255.827 38.4 256.574 38.0933 257.16 37.48C257.747 36.8533 258.04 36.04 258.04 35.04C258.04 34.3867 257.907 33.8067 257.64 33.3C257.374 32.7933 257.007 32.4 256.54 32.12C256.074 31.8267 255.534 31.68 254.92 31.68C254.014 31.68 253.267 31.9933 252.68 32.62C252.107 33.2467 251.82 34.0533 251.82 35.04C251.82 36.04 252.107 36.8533 252.68 37.48C253.267 38.0933 254.014 38.4 254.92 38.4ZM262.493 40V25.6H264.613V40H262.493ZM271.938 40.24C270.965 40.24 270.098 40.0267 269.338 39.6C268.591 39.16 268.005 38.5533 267.578 37.78C267.151 37.0067 266.938 36.1067 266.938 35.08C266.938 34.04 267.145 33.1267 267.558 32.34C267.985 31.5533 268.571 30.94 269.318 30.5C270.078 30.06 270.958 29.84 271.958 29.84C272.931 29.84 273.778 30.06 274.498 30.5C275.218 30.9267 275.778 31.5 276.178 32.22C276.578 32.94 276.778 33.7333 276.778 34.6C276.778 34.7333 276.771 34.88 276.758 35.04C276.758 35.1867 276.751 35.3533 276.738 35.54H269.018C269.085 36.5 269.398 37.2333 269.958 37.74C270.531 38.2333 271.191 38.48 271.938 38.48C272.538 38.48 273.038 38.3467 273.438 38.08C273.851 37.8 274.158 37.4267 274.358 36.96H276.478C276.211 37.8933 275.678 38.6733 274.878 39.3C274.091 39.9267 273.111 40.24 271.938 40.24ZM271.938 31.58C271.231 31.58 270.605 31.7933 270.058 32.22C269.511 32.6333 269.178 33.26 269.058 34.1H274.658C274.618 33.3267 274.345 32.7133 273.838 32.26C273.331 31.8067 272.698 31.58 271.938 31.58ZM282.938 40.24C281.684 40.24 280.651 39.9333 279.838 39.32C279.024 38.7067 278.558 37.8933 278.438 36.88H280.578C280.684 37.3333 280.938 37.7267 281.338 38.06C281.738 38.38 282.264 38.54 282.918 38.54C283.558 38.54 284.024 38.4067 284.318 38.14C284.611 37.8733 284.758 37.5667 284.758 37.22C284.758 36.7133 284.551 36.3733 284.138 36.2C283.738 36.0133 283.178 35.8467 282.458 35.7C281.898 35.58 281.338 35.42 280.778 35.22C280.231 35.02 279.771 34.74 279.398 34.38C279.038 34.0067 278.858 33.5067 278.858 32.88C278.858 32.0133 279.191 31.2933 279.858 30.72C280.524 30.1333 281.458 29.84 282.658 29.84C283.764 29.84 284.658 30.1067 285.338 30.64C286.031 31.1733 286.438 31.9267 286.558 32.9H284.518C284.451 32.4733 284.251 32.14 283.918 31.9C283.598 31.66 283.164 31.54 282.618 31.54C282.084 31.54 281.671 31.6533 281.378 31.88C281.084 32.0933 280.938 32.3733 280.938 32.72C280.938 33.0667 281.138 33.34 281.538 33.54C281.951 33.74 282.491 33.92 283.158 34.08C283.824 34.2267 284.438 34.4 284.998 34.6C285.571 34.7867 286.031 35.0667 286.378 35.44C286.724 35.8133 286.898 36.36 286.898 37.08C286.911 37.9867 286.558 38.74 285.838 39.34C285.131 39.94 284.164 40.24 282.938 40.24ZM293.172 40.24C291.919 40.24 290.885 39.9333 290.072 39.32C289.259 38.7067 288.792 37.8933 288.672 36.88H290.812C290.919 37.3333 291.172 37.7267 291.572 38.06C291.972 38.38 292.499 38.54 293.152 38.54C293.792 38.54 294.259 38.4067 294.552 38.14C294.845 37.8733 294.992 37.5667 294.992 37.22C294.992 36.7133 294.785 36.3733 294.372 36.2C293.972 36.0133 293.412 35.8467 292.692 35.7C292.132 35.58 291.572 35.42 291.012 35.22C290.465 35.02 290.005 34.74 289.632 34.38C289.272 34.0067 289.092 33.5067 289.092 32.88C289.092 32.0133 289.425 31.2933 290.092 30.72C290.759 30.1333 291.692 29.84 292.892 29.84C293.999 29.84 294.892 30.1067 295.572 30.64C296.265 31.1733 296.672 31.9267 296.792 32.9H294.752C294.685 32.4733 294.485 32.14 294.152 31.9C293.832 31.66 293.399 31.54 292.852 31.54C292.319 31.54 291.905 31.6533 291.612 31.88C291.319 32.0933 291.172 32.3733 291.172 32.72C291.172 33.0667 291.372 33.34 291.772 33.54C292.185 33.74 292.725 33.92 293.392 34.08C294.059 34.2267 294.672 34.4 295.232 34.6C295.805 34.7867 296.265 35.0667 296.612 35.44C296.959 35.8133 297.132 36.36 297.132 37.08C297.145 37.9867 296.792 38.74 296.072 39.34C295.365 39.94 294.399 40.24 293.172 40.24Z" fill="white"/>
</g>
<defs>
<filter id="filter0_dd_149_4894" x="0" y="3" width="351" height="62" filterUnits="userSpaceOnUse" color-interpolation-filters="sRGB">
<feFlood flood-opacity="0" result="BackgroundImageFix"/>
<feColorMatrix in="SourceAlpha" type="matrix" values="0 0 0 0 0 0 0 0 0 0 0 0 0 0 0 0 0 0 127 0" result="hardAlpha"/>
<feOffset dy="2"/>
<feGaussianBlur stdDeviation="1.5"/>
<feColorMatrix type="matrix" values="0 0 0 0 0 0 0 0 0 0 0 0 0 0 0 0 0 0 0.168 0"/>
<feBlend mode="normal" in2="BackgroundImageFix" result="effect1_dropShadow_149_4894"/>
<feColorMatrix in="SourceAlpha" type="matrix" values="0 0 0 0 0 0 0 0 0 0 0 0 0 0 0 0 0 0 127 0" result="hardAlpha"/>
<feOffset/>
<feGaussianBlur stdDeviation="1.5"/>
<feColorMatrix type="matrix" values="0 0 0 0 0 0 0 0 0 0 0 0 0 0 0 0 0 0 0.084 0"/>
<feBlend mode="normal" in2="effect1_dropShadow_149_4894" result="effect2_dropShadow_149_4894"/>
<feBlend mode="normal" in="SourceGraphic" in2="effect2_dropShadow_149_4894" result="shape"/>
</filter>
<filter id="filter1_ddd_149_4894" x="28.5466" y="0.740505" width="73.5025" height="73.0943" filterUnits="userSpaceOnUse" color-interpolation-filters="sRGB">
<feFlood flood-opacity="0" result="BackgroundImageFix"/>
<feColorMatrix in="SourceAlpha" type="matrix" values="0 0 0 0 0 0 0 0 0 0 0 0 0 0 0 0 0 0 127 0" result="hardAlpha"/>
<feOffset dy="0.384886"/>
<feGaussianBlur stdDeviation="0.812536"/>
<feColorMatrix type="matrix" values="0 0 0 0 0 0 0 0 0 0 0 0 0 0 0 0 0 0 0.08 0"/>
<feBlend mode="normal" in2="BackgroundImageFix" result="effect1_dropShadow_149_4894"/>
<feColorMatrix in="SourceAlpha" type="matrix" values="0 0 0 0 0 0 0 0 0 0 0 0 0 0 0 0 0 0 127 0" result="hardAlpha"/>
<feOffset dy="1.29275"/>
<feGaussianBlur stdDeviation="2.72914"/>
<feColorMatrix type="matrix" values="0 0 0 0 0 0 0 0 0 0 0 0 0 0 0 0 0 0 0.0476886 0"/>
<feBlend mode="normal" in2="effect1_dropShadow_149_4894" result="effect2_dropShadow_149_4894"/>
<feColorMatrix in="SourceAlpha" type="matrix" values="0 0 0 0 0 0 0 0 0 0 0 0 0 0 0 0 0 0 127 0" result="hardAlpha"/>
<feOffset dy="5.78766"/>
<feGaussianBlur stdDeviation="12.2184"/>
<feColorMatrix type="matrix" values="0 0 0 0 0 0 0 0 0 0 0 0 0 0 0 0 0 0 0.0323114 0"/>
<feBlend mode="normal" in2="effect2_dropShadow_149_4894" result="effect3_dropShadow_149_4894"/>
<feBlend mode="normal" in="SourceGraphic" in2="effect3_dropShadow_149_4894" result="shape"/>
</filter>
</defs>
</svg>
