<svg width="351" height="62" viewBox="0 0 351 62" fill="none" xmlns="http://www.w3.org/2000/svg">
<g filter="url(#filter0_dd_154_5152)">
<rect x="3" y="3" width="345" height="54" rx="5" fill="white"/>
<rect x="38.5" y="3" width="275" height="54" rx="5" fill="white"/>
<path d="M61.1455 37.7881C61.1455 39.4449 62.4887 40.7881 64.1455 40.7881H71.4597C74.4435 40.7881 76.8623 38.3692 76.8623 35.3854V32.9297H62.8977C61.93 32.9297 61.1455 33.7142 61.1455 34.6819V37.7881Z" fill="#3A0CA3"/>
<path d="M53.9248 24.8584H71.6726C74.6564 24.8584 77.0752 27.2772 77.0752 30.2611V32.7168H59.3275C56.3437 32.7168 53.9248 30.298 53.9248 27.3142V24.8584Z" fill="#40A3FE"/>
<path d="M69.8545 20.5044C69.8545 18.569 68.2855 17 66.3501 17H59.5403C56.5565 17 54.1377 19.4189 54.1377 22.4027V24.8584H68.1023C69.07 24.8584 69.8545 24.0739 69.8545 23.1062V20.5044Z" fill="#F51D80"/>
<path d="M71.0961 24.7883L71.092 24.0383L71.0961 24.7883ZM59.8717 17.75H67.0929V16.25H59.8717V17.75ZM54.25 25.6515V23.3717H52.75V25.6515H54.25ZM67.0929 17.75C67.8517 17.75 68.4668 18.3651 68.4668 19.1239H69.9668C69.9668 17.5367 68.6801 16.25 67.0929 16.25V17.75ZM59.8717 16.25C55.9385 16.25 52.75 19.4385 52.75 23.3717H54.25C54.25 20.2669 56.7669 17.75 59.8717 17.75V16.25ZM71.1283 40.25H63.0575V41.75H71.1283V40.25ZM61.6836 38.8761V32.823H60.1836V38.8761H61.6836ZM63.0575 40.25C62.2987 40.25 61.6836 39.6349 61.6836 38.8761H60.1836C60.1836 40.4633 61.4703 41.75 63.0575 41.75V40.25ZM71.1283 41.75C75.0101 41.75 78.25 38.9298 78.25 34.9469H76.75C76.75 38.002 74.2845 40.25 71.1283 40.25V41.75ZM56.3174 24.1084C55.2538 24.1084 54.7407 23.7921 54.5003 23.5673C54.3726 23.4479 54.2997 23.3337 54.2607 23.2586C54.2411 23.2208 54.2303 23.1933 54.2257 23.1805C54.2234 23.1742 54.2227 23.1717 54.2233 23.1737C54.2236 23.1747 54.2242 23.1769 54.2251 23.1803C54.2256 23.1819 54.2261 23.1839 54.2267 23.1862C54.227 23.1874 54.2273 23.1886 54.2276 23.1899C54.2278 23.1906 54.228 23.1913 54.2282 23.192C54.2282 23.1923 54.2284 23.1929 54.2284 23.193C54.2285 23.1936 54.2287 23.1941 53.5 23.3717C52.7713 23.5492 52.7715 23.5498 52.7716 23.5504C52.7716 23.5505 52.7718 23.5511 52.7719 23.5515C52.7721 23.5523 52.7723 23.5531 52.7725 23.554C52.7729 23.5556 52.7734 23.5574 52.7738 23.5593C52.7748 23.563 52.7759 23.5671 52.7771 23.5716C52.7795 23.5806 52.7825 23.5911 52.786 23.603C52.7931 23.6268 52.8026 23.6563 52.8151 23.6906C52.8398 23.7592 52.8765 23.8477 52.9292 23.9494C53.0349 24.153 53.2059 24.4105 53.4757 24.6628C54.0302 25.1813 54.9259 25.6084 56.3174 25.6084V24.1084ZM59.643 33.573H73.5348V32.073H59.643V33.573ZM73.5348 33.573C75.2258 33.573 76.0194 33.8181 76.3829 34.0683C76.6577 34.2574 76.75 34.4929 76.75 34.9469H78.25C78.25 34.2423 78.0806 33.4158 77.2333 32.8326C76.4746 32.3105 75.2856 32.073 73.5348 32.073V33.573ZM52.75 23.3717V26.4194H54.25V23.3717H52.75ZM71.1001 25.5383C74.2168 25.5214 76.75 28.0431 76.75 31.1607H78.25C78.25 27.2124 75.0412 24.017 71.092 24.0383L71.1001 25.5383ZM59.643 32.073C56.7035 32.073 54.25 29.4394 54.25 26.4194H52.75C52.75 30.1862 55.7957 33.573 59.643 33.573V32.073ZM78.25 34.9469V31.1607H76.75V34.9469H78.25ZM71.092 24.0383C70.5397 24.0413 69.795 24.0441 69.2128 24.0473L69.2208 25.5472C69.7757 25.5443 70.5717 25.5411 71.1001 25.5383L71.092 24.0383ZM69.2128 24.0473C63.8135 24.0761 57.6749 24.1084 56.3174 24.1084V25.6084C57.6802 25.6084 63.8252 25.5761 69.2208 25.5472L69.2128 24.0473ZM68.4668 19.1239V24.7972H69.9668V19.1239H68.4668Z" fill="black"/>
<path d="M100.16 37.24C98.7733 37.24 97.5733 36.94 96.56 36.34C95.56 35.7267 94.7867 34.88 94.24 33.8C93.6933 32.7067 93.42 31.4467 93.42 30.02C93.42 28.58 93.6933 27.32 94.24 26.24C94.7867 25.1467 95.56 24.2933 96.56 23.68C97.5733 23.0667 98.7733 22.76 100.16 22.76C101.8 22.76 103.14 23.16 104.18 23.96C105.22 24.76 105.88 25.88 106.16 27.32H103.8C103.613 26.5067 103.213 25.86 102.6 25.38C101.987 24.9 101.167 24.66 100.14 24.66C98.74 24.66 97.6333 25.14 96.82 26.1C96.0067 27.0467 95.6 28.3533 95.6 30.02C95.6 31.6733 96.0067 32.9733 96.82 33.92C97.6333 34.8667 98.74 35.34 100.14 35.34C101.167 35.34 101.987 35.1133 102.6 34.66C103.213 34.2067 103.613 33.5867 103.8 32.8H106.16C105.88 34.1867 105.22 35.2733 104.18 36.06C103.14 36.8467 101.8 37.24 100.16 37.24ZM113.05 37.24C112.104 37.24 111.25 37.0267 110.49 36.6C109.744 36.16 109.15 35.5533 108.71 34.78C108.27 33.9933 108.05 33.08 108.05 32.04C108.05 31 108.27 30.0933 108.71 29.32C109.164 28.5333 109.77 27.9267 110.53 27.5C111.29 27.06 112.137 26.84 113.07 26.84C114.017 26.84 114.864 27.06 115.61 27.5C116.37 27.9267 116.97 28.5333 117.41 29.32C117.864 30.0933 118.09 31 118.09 32.04C118.09 33.08 117.864 33.9933 117.41 34.78C116.97 35.5533 116.37 36.16 115.61 36.6C114.85 37.0267 113.997 37.24 113.05 37.24ZM113.05 35.42C113.557 35.42 114.024 35.2933 114.45 35.04C114.89 34.7867 115.244 34.4133 115.51 33.92C115.777 33.4133 115.91 32.7867 115.91 32.04C115.91 31.2933 115.777 30.6733 115.51 30.18C115.257 29.6733 114.91 29.2933 114.47 29.04C114.044 28.7867 113.577 28.66 113.07 28.66C112.564 28.66 112.09 28.7867 111.65 29.04C111.224 29.2933 110.877 29.6733 110.61 30.18C110.344 30.6733 110.21 31.2933 110.21 32.04C110.21 32.7867 110.344 33.4133 110.61 33.92C110.877 34.4133 111.224 34.7867 111.65 35.04C112.077 35.2933 112.544 35.42 113.05 35.42ZM120.383 37V27.08H122.263L122.423 28.82C122.73 28.2067 123.176 27.7267 123.763 27.38C124.363 27.02 125.05 26.84 125.823 26.84C127.023 26.84 127.963 27.2133 128.643 27.96C129.336 28.7067 129.683 29.82 129.683 31.3V37H127.583V31.52C127.583 29.6 126.796 28.64 125.223 28.64C124.436 28.64 123.783 28.92 123.263 29.48C122.756 30.04 122.503 30.84 122.503 31.88V37H120.383ZM132.18 37V27.08H134.06L134.22 28.82C134.527 28.2067 134.973 27.7267 135.56 27.38C136.16 27.02 136.847 26.84 137.62 26.84C138.82 26.84 139.76 27.2133 140.44 27.96C141.133 28.7067 141.48 29.82 141.48 31.3V37H139.38V31.52C139.38 29.6 138.593 28.64 137.02 28.64C136.233 28.64 135.58 28.92 135.06 29.48C134.553 30.04 134.3 30.84 134.3 31.88V37H132.18ZM148.617 37.24C147.643 37.24 146.777 37.0267 146.017 36.6C145.27 36.16 144.683 35.5533 144.257 34.78C143.83 34.0067 143.617 33.1067 143.617 32.08C143.617 31.04 143.823 30.1267 144.237 29.34C144.663 28.5533 145.25 27.94 145.997 27.5C146.757 27.06 147.637 26.84 148.637 26.84C149.61 26.84 150.457 27.06 151.177 27.5C151.897 27.9267 152.457 28.5 152.857 29.22C153.257 29.94 153.457 30.7333 153.457 31.6C153.457 31.7333 153.45 31.88 153.437 32.04C153.437 32.1867 153.43 32.3533 153.417 32.54H145.697C145.763 33.5 146.077 34.2333 146.637 34.74C147.21 35.2333 147.87 35.48 148.617 35.48C149.217 35.48 149.717 35.3467 150.117 35.08C150.53 34.8 150.837 34.4267 151.037 33.96H153.157C152.89 34.8933 152.357 35.6733 151.557 36.3C150.77 36.9267 149.79 37.24 148.617 37.24ZM148.617 28.58C147.91 28.58 147.283 28.7933 146.737 29.22C146.19 29.6333 145.857 30.26 145.737 31.1H151.337C151.297 30.3267 151.023 29.7133 150.517 29.26C150.01 28.8067 149.377 28.58 148.617 28.58ZM160.356 37.24C159.383 37.24 158.51 37.02 157.736 36.58C156.976 36.14 156.376 35.5333 155.936 34.76C155.51 33.9733 155.296 33.0667 155.296 32.04C155.296 31.0133 155.51 30.1133 155.936 29.34C156.376 28.5533 156.976 27.94 157.736 27.5C158.51 27.06 159.383 26.84 160.356 26.84C161.583 26.84 162.61 27.16 163.436 27.8C164.276 28.44 164.816 29.3067 165.056 30.4H162.836C162.703 29.8533 162.41 29.4267 161.956 29.12C161.503 28.8133 160.97 28.66 160.356 28.66C159.836 28.66 159.356 28.7933 158.916 29.06C158.476 29.3133 158.123 29.6933 157.856 30.2C157.59 30.6933 157.456 31.3067 157.456 32.04C157.456 32.7733 157.59 33.3933 157.856 33.9C158.123 34.3933 158.476 34.7733 158.916 35.04C159.356 35.3067 159.836 35.44 160.356 35.44C160.97 35.44 161.503 35.2867 161.956 34.98C162.41 34.6733 162.703 34.24 162.836 33.68H165.056C164.83 34.7467 164.296 35.6067 163.456 36.26C162.616 36.9133 161.583 37.24 160.356 37.24ZM171.32 37C170.347 37 169.574 36.7667 169 36.3C168.427 35.82 168.14 34.9733 168.14 33.76V28.86H166.44V27.08H168.14L168.4 24.56H170.26V27.08H173.06V28.86H170.26V33.76C170.26 34.3067 170.374 34.6867 170.6 34.9C170.84 35.1 171.247 35.2 171.82 35.2H172.96V37H171.32ZM182.265 37L179.345 27.08H181.465L183.385 34.56L185.545 27.08H187.905L190.065 34.56L191.985 27.08H194.105L191.185 37H189.005L186.725 29.2L184.445 37H182.265ZM197.052 25.2C196.652 25.2 196.318 25.08 196.052 24.84C195.798 24.5867 195.672 24.2733 195.672 23.9C195.672 23.5267 195.798 23.22 196.052 22.98C196.318 22.7267 196.652 22.6 197.052 22.6C197.452 22.6 197.778 22.7267 198.032 22.98C198.298 23.22 198.432 23.5267 198.432 23.9C198.432 24.2733 198.298 24.5867 198.032 24.84C197.778 25.08 197.452 25.2 197.052 25.2ZM195.992 37V27.08H198.112V37H195.992ZM205.07 37C204.097 37 203.324 36.7667 202.75 36.3C202.177 35.82 201.89 34.9733 201.89 33.76V28.86H200.19V27.08H201.89L202.15 24.56H204.01V27.08H206.81V28.86H204.01V33.76C204.01 34.3067 204.124 34.6867 204.35 34.9C204.59 35.1 204.997 35.2 205.57 35.2H206.71V37H205.07ZM208.996 37V22.6H211.116V28.68C211.45 28.1067 211.91 27.66 212.496 27.34C213.096 27.0067 213.756 26.84 214.476 26.84C215.663 26.84 216.596 27.2133 217.276 27.96C217.956 28.7067 218.296 29.82 218.296 31.3V37H216.196V31.52C216.196 29.6 215.43 28.64 213.896 28.64C213.096 28.64 212.43 28.92 211.896 29.48C211.376 30.04 211.116 30.84 211.116 31.88V37H208.996ZM230.532 37.24C229.506 37.24 228.606 37.06 227.832 36.7C227.059 36.34 226.452 35.8267 226.012 35.16C225.586 34.4933 225.366 33.7 225.352 32.78H227.592C227.606 33.5267 227.866 34.16 228.372 34.68C228.879 35.2 229.592 35.46 230.512 35.46C231.326 35.46 231.959 35.2667 232.412 34.88C232.879 34.48 233.112 33.9733 233.112 33.36C233.112 32.8667 232.999 32.4667 232.772 32.16C232.559 31.8533 232.259 31.6 231.872 31.4C231.499 31.2 231.066 31.02 230.572 30.86C230.079 30.7 229.559 30.5267 229.012 30.34C227.932 29.98 227.119 29.5133 226.572 28.94C226.039 28.3667 225.772 27.6133 225.772 26.68C225.759 25.8933 225.939 25.2067 226.312 24.62C226.699 24.0333 227.232 23.58 227.912 23.26C228.606 22.9267 229.412 22.76 230.332 22.76C231.239 22.76 232.032 22.9267 232.712 23.26C233.406 23.5933 233.946 24.06 234.332 24.66C234.719 25.2467 234.919 25.9333 234.932 26.72H232.692C232.692 26.36 232.599 26.02 232.412 25.7C232.226 25.3667 231.952 25.0933 231.592 24.88C231.232 24.6667 230.792 24.56 230.272 24.56C229.606 24.5467 229.052 24.7133 228.612 25.06C228.186 25.4067 227.972 25.8867 227.972 26.5C227.972 27.0467 228.132 27.4667 228.452 27.76C228.772 28.0533 229.212 28.3 229.772 28.5C230.332 28.6867 230.972 28.9067 231.692 29.16C232.386 29.3867 233.006 29.66 233.552 29.98C234.099 30.3 234.532 30.72 234.852 31.24C235.186 31.76 235.352 32.42 235.352 33.22C235.352 33.9267 235.172 34.5867 234.812 35.2C234.452 35.8 233.912 36.2933 233.192 36.68C232.472 37.0533 231.586 37.24 230.532 37.24ZM241.25 37.24C240.05 37.24 239.103 36.8667 238.41 36.12C237.73 35.3733 237.39 34.26 237.39 32.78V27.08H239.51V32.56C239.51 34.48 240.297 35.44 241.87 35.44C242.657 35.44 243.303 35.16 243.81 34.6C244.317 34.04 244.57 33.24 244.57 32.2V27.08H246.69V37H244.81L244.65 35.26C244.343 35.8733 243.89 36.36 243.29 36.72C242.703 37.0667 242.023 37.24 241.25 37.24ZM254.967 37.24C254.194 37.24 253.507 37.0867 252.907 36.78C252.32 36.4733 251.854 36.04 251.507 35.48L251.287 37H249.387V22.6H251.507V28.62C251.827 28.1533 252.267 27.74 252.827 27.38C253.387 27.02 254.107 26.84 254.987 26.84C255.947 26.84 256.794 27.0667 257.527 27.52C258.26 27.9733 258.834 28.5933 259.247 29.38C259.674 30.1667 259.887 31.06 259.887 32.06C259.887 33.06 259.674 33.9533 259.247 34.74C258.834 35.5133 258.26 36.1267 257.527 36.58C256.794 37.02 255.94 37.24 254.967 37.24ZM254.607 35.4C255.514 35.4 256.26 35.0933 256.847 34.48C257.434 33.8533 257.727 33.04 257.727 32.04C257.727 31.3867 257.594 30.8067 257.327 30.3C257.06 29.7933 256.694 29.4 256.227 29.12C255.76 28.8267 255.22 28.68 254.607 28.68C253.7 28.68 252.954 28.9933 252.367 29.62C251.794 30.2467 251.507 31.0533 251.507 32.04C251.507 33.04 251.794 33.8533 252.367 34.48C252.954 35.0933 253.7 35.4 254.607 35.4ZM262.18 37V22.6H264.3V37H262.18ZM271.625 37.24C270.651 37.24 269.785 37.0267 269.025 36.6C268.278 36.16 267.691 35.5533 267.265 34.78C266.838 34.0067 266.625 33.1067 266.625 32.08C266.625 31.04 266.831 30.1267 267.245 29.34C267.671 28.5533 268.258 27.94 269.005 27.5C269.765 27.06 270.645 26.84 271.645 26.84C272.618 26.84 273.465 27.06 274.185 27.5C274.905 27.9267 275.465 28.5 275.865 29.22C276.265 29.94 276.465 30.7333 276.465 31.6C276.465 31.7333 276.458 31.88 276.445 32.04C276.445 32.1867 276.438 32.3533 276.425 32.54H268.705C268.771 33.5 269.085 34.2333 269.645 34.74C270.218 35.2333 270.878 35.48 271.625 35.48C272.225 35.48 272.725 35.3467 273.125 35.08C273.538 34.8 273.845 34.4267 274.045 33.96H276.165C275.898 34.8933 275.365 35.6733 274.565 36.3C273.778 36.9267 272.798 37.24 271.625 37.24ZM271.625 28.58C270.918 28.58 270.291 28.7933 269.745 29.22C269.198 29.6333 268.865 30.26 268.745 31.1H274.345C274.305 30.3267 274.031 29.7133 273.525 29.26C273.018 28.8067 272.385 28.58 271.625 28.58ZM282.624 37.24C281.371 37.24 280.338 36.9333 279.524 36.32C278.711 35.7067 278.244 34.8933 278.124 33.88H280.264C280.371 34.3333 280.624 34.7267 281.024 35.06C281.424 35.38 281.951 35.54 282.604 35.54C283.244 35.54 283.711 35.4067 284.004 35.14C284.298 34.8733 284.444 34.5667 284.444 34.22C284.444 33.7133 284.238 33.3733 283.824 33.2C283.424 33.0133 282.864 32.8467 282.144 32.7C281.584 32.58 281.024 32.42 280.464 32.22C279.918 32.02 279.458 31.74 279.084 31.38C278.724 31.0067 278.544 30.5067 278.544 29.88C278.544 29.0133 278.878 28.2933 279.544 27.72C280.211 27.1333 281.144 26.84 282.344 26.84C283.451 26.84 284.344 27.1067 285.024 27.64C285.718 28.1733 286.124 28.9267 286.244 29.9H284.204C284.138 29.4733 283.938 29.14 283.604 28.9C283.284 28.66 282.851 28.54 282.304 28.54C281.771 28.54 281.358 28.6533 281.064 28.88C280.771 29.0933 280.624 29.3733 280.624 29.72C280.624 30.0667 280.824 30.34 281.224 30.54C281.638 30.74 282.178 30.92 282.844 31.08C283.511 31.2267 284.124 31.4 284.684 31.6C285.258 31.7867 285.718 32.0667 286.064 32.44C286.411 32.8133 286.584 33.36 286.584 34.08C286.598 34.9867 286.244 35.74 285.524 36.34C284.818 36.94 283.851 37.24 282.624 37.24ZM292.859 37.24C291.605 37.24 290.572 36.9333 289.759 36.32C288.945 35.7067 288.479 34.8933 288.359 33.88H290.499C290.605 34.3333 290.859 34.7267 291.259 35.06C291.659 35.38 292.185 35.54 292.839 35.54C293.479 35.54 293.945 35.4067 294.239 35.14C294.532 34.8733 294.679 34.5667 294.679 34.22C294.679 33.7133 294.472 33.3733 294.059 33.2C293.659 33.0133 293.099 32.8467 292.379 32.7C291.819 32.58 291.259 32.42 290.699 32.22C290.152 32.02 289.692 31.74 289.319 31.38C288.959 31.0067 288.779 30.5067 288.779 29.88C288.779 29.0133 289.112 28.2933 289.779 27.72C290.445 27.1333 291.379 26.84 292.579 26.84C293.685 26.84 294.579 27.1067 295.259 27.64C295.952 28.1733 296.359 28.9267 296.479 29.9H294.439C294.372 29.4733 294.172 29.14 293.839 28.9C293.519 28.66 293.085 28.54 292.539 28.54C292.005 28.54 291.592 28.6533 291.299 28.88C291.005 29.0933 290.859 29.3733 290.859 29.72C290.859 30.0667 291.059 30.34 291.459 30.54C291.872 30.74 292.412 30.92 293.079 31.08C293.745 31.2267 294.359 31.4 294.919 31.6C295.492 31.7867 295.952 32.0667 296.299 32.44C296.645 32.8133 296.819 33.36 296.819 34.08C296.832 34.9867 296.479 35.74 295.759 36.34C295.052 36.94 294.085 37.24 292.859 37.24Z" fill="black"/>
</g>
<defs>
<filter id="filter0_dd_154_5152" x="0" y="0" width="351" height="62" filterUnits="userSpaceOnUse" color-interpolation-filters="sRGB">
<feFlood flood-opacity="0" result="BackgroundImageFix"/>
<feColorMatrix in="SourceAlpha" type="matrix" values="0 0 0 0 0 0 0 0 0 0 0 0 0 0 0 0 0 0 127 0" result="hardAlpha"/>
<feOffset dy="2"/>
<feGaussianBlur stdDeviation="1.5"/>
<feColorMatrix type="matrix" values="0 0 0 0 0 0 0 0 0 0 0 0 0 0 0 0 0 0 0.168 0"/>
<feBlend mode="normal" in2="BackgroundImageFix" result="effect1_dropShadow_154_5152"/>
<feColorMatrix in="SourceAlpha" type="matrix" values="0 0 0 0 0 0 0 0 0 0 0 0 0 0 0 0 0 0 127 0" result="hardAlpha"/>
<feOffset/>
<feGaussianBlur stdDeviation="1.5"/>
<feColorMatrix type="matrix" values="0 0 0 0 0 0 0 0 0 0 0 0 0 0 0 0 0 0 0.084 0"/>
<feBlend mode="normal" in2="effect1_dropShadow_154_5152" result="effect2_dropShadow_154_5152"/>
<feBlend mode="normal" in="SourceGraphic" in2="effect2_dropShadow_154_5152" result="shape"/>
</filter>
</defs>
</svg>
