<svg width="298" height="74" viewBox="0 0 298 74" fill="none" xmlns="http://www.w3.org/2000/svg">
<g filter="url(#filter0_dd_470_1540)">
<path d="M19 22C19 19.2386 21.2386 17 24 17H286C288.761 17 291 19.2386 291 22V44C291 46.7614 288.761 49 286 49H24C21.2386 49 19 46.7614 19 44V22Z" fill="#311E5D"/>
<rect x="15.1865" y="10" width="279.627" height="46" rx="5" fill="#311E5D"/>
<g filter="url(#filter1_ddd_470_1540)">
<path d="M26.002 26.1062C26.002 22.7338 28.7358 20 32.1081 20H39.232C40.3562 20 41.2674 20.9113 41.2674 22.0354V28.291C41.2674 28.883 40.7876 29.3628 40.1956 29.3628H27.0737C26.4818 29.3628 26.002 28.883 26.002 28.291V26.1062Z" fill="#F51D80" stroke="white" stroke-width="1.22124"/>
<path d="M49.002 36.8938C49.002 40.2662 46.2681 43 42.8958 43H35.7719C34.6477 43 33.7365 42.0887 33.7365 40.9646V34.5054C33.7365 33.9135 34.2163 33.4336 34.8083 33.4336H47.9302C48.5221 33.4336 49.002 33.9135 49.002 34.5054V36.8938Z" fill="#3A0CA3" stroke="white" stroke-width="1.22124"/>
<path d="M28.702 27.5308C30.1427 27.5308 37.4308 27.493 42.8649 27.4636C46.2506 27.4453 49.002 30.1847 49.002 33.5705V35.7899V37.8096C49.002 36.6992 48.5004 34.915 45.202 34.915H31.889C28.637 34.915 26.002 32.2787 26.002 29.0267V25.2919C26.002 25.2919 26.3491 27.5308 28.702 27.5308Z" fill="#40A3FE" stroke="white" stroke-width="1.22124" stroke-linejoin="round"/>
<path d="M26.0007 22.8506C25.3901 23.9701 25.1865 25.2424 25.1865 25.9037C25.1865 26.2403 25.1865 27.3398 25.1865 27.4302" stroke="#3A0CA3" stroke-width="0.40708" stroke-linecap="round"/>
</g>
<path d="M48.9993 40.252C49.6099 39.1325 49.8135 37.8602 49.8135 37.1989C49.8135 36.8622 49.8135 35.7627 49.8135 35.6723" stroke="#311E5D" stroke-width="0.40708" stroke-linecap="round"/>
<path d="M65.8535 40.24C64.8268 40.24 63.9268 40.06 63.1535 39.7C62.3801 39.34 61.7735 38.8267 61.3335 38.16C60.9068 37.4933 60.6868 36.7 60.6735 35.78H62.9135C62.9268 36.5267 63.1868 37.16 63.6935 37.68C64.2001 38.2 64.9135 38.46 65.8335 38.46C66.6468 38.46 67.2801 38.2667 67.7335 37.88C68.2001 37.48 68.4335 36.9733 68.4335 36.36C68.4335 35.8667 68.3201 35.4667 68.0935 35.16C67.8801 34.8533 67.5801 34.6 67.1935 34.4C66.8201 34.2 66.3868 34.02 65.8935 33.86C65.4001 33.7 64.8801 33.5267 64.3335 33.34C63.2535 32.98 62.4401 32.5133 61.8935 31.94C61.3601 31.3667 61.0935 30.6133 61.0935 29.68C61.0801 28.8933 61.2601 28.2067 61.6335 27.62C62.0201 27.0333 62.5535 26.58 63.2335 26.26C63.9268 25.9267 64.7335 25.76 65.6535 25.76C66.5601 25.76 67.3535 25.9267 68.0335 26.26C68.7268 26.5933 69.2668 27.06 69.6535 27.66C70.0401 28.2467 70.2401 28.9333 70.2535 29.72H68.0135C68.0135 29.36 67.9201 29.02 67.7335 28.7C67.5468 28.3667 67.2735 28.0933 66.9135 27.88C66.5535 27.6667 66.1135 27.56 65.5935 27.56C64.9268 27.5467 64.3735 27.7133 63.9335 28.06C63.5068 28.4067 63.2935 28.8867 63.2935 29.5C63.2935 30.0467 63.4535 30.4667 63.7735 30.76C64.0935 31.0533 64.5335 31.3 65.0935 31.5C65.6535 31.6867 66.2935 31.9067 67.0135 32.16C67.7068 32.3867 68.3268 32.66 68.8735 32.98C69.4201 33.3 69.8535 33.72 70.1735 34.24C70.5068 34.76 70.6735 35.42 70.6735 36.22C70.6735 36.9267 70.4935 37.5867 70.1335 38.2C69.7735 38.8 69.2335 39.2933 68.5135 39.68C67.7935 40.0533 66.9068 40.24 65.8535 40.24ZM76.5713 40.24C75.3713 40.24 74.4246 39.8667 73.7313 39.12C73.0513 38.3733 72.7113 37.26 72.7113 35.78V30.08H74.8313V35.56C74.8313 37.48 75.618 38.44 77.1913 38.44C77.978 38.44 78.6246 38.16 79.1313 37.6C79.638 37.04 79.8913 36.24 79.8913 35.2V30.08H82.0113V40H80.1313L79.9713 38.26C79.6646 38.8733 79.2113 39.36 78.6113 39.72C78.0246 40.0667 77.3446 40.24 76.5713 40.24ZM84.7082 44.4V30.08H86.6082L86.8282 31.62C87.1482 31.1533 87.5882 30.74 88.1482 30.38C88.7082 30.02 89.4282 29.84 90.3082 29.84C91.2682 29.84 92.1148 30.0667 92.8482 30.52C93.5815 30.9733 94.1548 31.5933 94.5682 32.38C94.9948 33.1667 95.2082 34.06 95.2082 35.06C95.2082 36.06 94.9948 36.9533 94.5682 37.74C94.1548 38.5133 93.5815 39.1267 92.8482 39.58C92.1148 40.02 91.2615 40.24 90.2882 40.24C89.5148 40.24 88.8282 40.0867 88.2282 39.78C87.6415 39.4733 87.1748 39.04 86.8282 38.48V44.4H84.7082ZM89.9282 38.4C90.8348 38.4 91.5815 38.0933 92.1682 37.48C92.7548 36.8533 93.0482 36.04 93.0482 35.04C93.0482 34.3867 92.9148 33.8067 92.6482 33.3C92.3815 32.7933 92.0148 32.4 91.5482 32.12C91.0815 31.8267 90.5415 31.68 89.9282 31.68C89.0215 31.68 88.2748 31.9933 87.6882 32.62C87.1148 33.2467 86.8282 34.0533 86.8282 35.04C86.8282 36.04 87.1148 36.8533 87.6882 37.48C88.2748 38.0933 89.0215 38.4 89.9282 38.4ZM97.5011 44.4V30.08H99.4011L99.6211 31.62C99.9411 31.1533 100.381 30.74 100.941 30.38C101.501 30.02 102.221 29.84 103.101 29.84C104.061 29.84 104.908 30.0667 105.641 30.52C106.374 30.9733 106.948 31.5933 107.361 32.38C107.788 33.1667 108.001 34.06 108.001 35.06C108.001 36.06 107.788 36.9533 107.361 37.74C106.948 38.5133 106.374 39.1267 105.641 39.58C104.908 40.02 104.054 40.24 103.081 40.24C102.308 40.24 101.621 40.0867 101.021 39.78C100.434 39.4733 99.9678 39.04 99.6211 38.48V44.4H97.5011ZM102.721 38.4C103.628 38.4 104.374 38.0933 104.961 37.48C105.548 36.8533 105.841 36.04 105.841 35.04C105.841 34.3867 105.708 33.8067 105.441 33.3C105.174 32.7933 104.808 32.4 104.341 32.12C103.874 31.8267 103.334 31.68 102.721 31.68C101.814 31.68 101.068 31.9933 100.481 32.62C99.9078 33.2467 99.6211 34.0533 99.6211 35.04C99.6211 36.04 99.9078 36.8533 100.481 37.48C101.068 38.0933 101.814 38.4 102.721 38.4ZM114.934 40.24C113.987 40.24 113.134 40.0267 112.374 39.6C111.627 39.16 111.034 38.5533 110.594 37.78C110.154 36.9933 109.934 36.08 109.934 35.04C109.934 34 110.154 33.0933 110.594 32.32C111.047 31.5333 111.654 30.9267 112.414 30.5C113.174 30.06 114.021 29.84 114.954 29.84C115.901 29.84 116.747 30.06 117.494 30.5C118.254 30.9267 118.854 31.5333 119.294 32.32C119.747 33.0933 119.974 34 119.974 35.04C119.974 36.08 119.747 36.9933 119.294 37.78C118.854 38.5533 118.254 39.16 117.494 39.6C116.734 40.0267 115.881 40.24 114.934 40.24ZM114.934 38.42C115.441 38.42 115.907 38.2933 116.334 38.04C116.774 37.7867 117.127 37.4133 117.394 36.92C117.661 36.4133 117.794 35.7867 117.794 35.04C117.794 34.2933 117.661 33.6733 117.394 33.18C117.141 32.6733 116.794 32.2933 116.354 32.04C115.927 31.7867 115.461 31.66 114.954 31.66C114.447 31.66 113.974 31.7867 113.534 32.04C113.107 32.2933 112.761 32.6733 112.494 33.18C112.227 33.6733 112.094 34.2933 112.094 35.04C112.094 35.7867 112.227 36.4133 112.494 36.92C112.761 37.4133 113.107 37.7867 113.534 38.04C113.961 38.2933 114.427 38.42 114.934 38.42ZM122.267 40V30.08H124.167L124.347 31.96C124.693 31.3067 125.173 30.7933 125.787 30.42C126.413 30.0333 127.167 29.84 128.047 29.84V32.06H127.467C126.88 32.06 126.353 32.16 125.887 32.36C125.433 32.5467 125.067 32.8733 124.787 33.34C124.52 33.7933 124.387 34.4267 124.387 35.24V40H122.267ZM134.024 40C133.051 40 132.278 39.7667 131.704 39.3C131.131 38.82 130.844 37.9733 130.844 36.76V31.86H129.144V30.08H130.844L131.104 27.56H132.964V30.08H135.764V31.86H132.964V36.76C132.964 37.3067 133.078 37.6867 133.304 37.9C133.544 38.1 133.951 38.2 134.524 38.2H135.664V40H134.024ZM142.336 40.24C141.363 40.24 140.496 40.0267 139.736 39.6C138.99 39.16 138.403 38.5533 137.976 37.78C137.55 37.0067 137.336 36.1067 137.336 35.08C137.336 34.04 137.543 33.1267 137.956 32.34C138.383 31.5533 138.97 30.94 139.716 30.5C140.476 30.06 141.356 29.84 142.356 29.84C143.33 29.84 144.176 30.06 144.896 30.5C145.616 30.9267 146.176 31.5 146.576 32.22C146.976 32.94 147.176 33.7333 147.176 34.6C147.176 34.7333 147.17 34.88 147.156 35.04C147.156 35.1867 147.15 35.3533 147.136 35.54H139.416C139.483 36.5 139.796 37.2333 140.356 37.74C140.93 38.2333 141.59 38.48 142.336 38.48C142.936 38.48 143.436 38.3467 143.836 38.08C144.25 37.8 144.556 37.4267 144.756 36.96H146.876C146.61 37.8933 146.076 38.6733 145.276 39.3C144.49 39.9267 143.51 40.24 142.336 40.24ZM142.336 31.58C141.63 31.58 141.003 31.7933 140.456 32.22C139.91 32.6333 139.576 33.26 139.456 34.1H145.056C145.016 33.3267 144.743 32.7133 144.236 32.26C143.73 31.8067 143.096 31.58 142.336 31.58ZM153.896 40.24C152.936 40.24 152.089 40.0133 151.356 39.56C150.623 39.1067 150.049 38.4867 149.636 37.7C149.223 36.9133 149.016 36.02 149.016 35.02C149.016 34.02 149.223 33.1333 149.636 32.36C150.049 31.5733 150.623 30.96 151.356 30.52C152.103 30.0667 152.956 29.84 153.916 29.84C154.703 29.84 155.389 29.9933 155.976 30.3C156.576 30.6067 157.043 31.04 157.376 31.6V25.6H159.496V40H157.596L157.376 38.46C157.056 38.9267 156.616 39.34 156.056 39.7C155.496 40.06 154.776 40.24 153.896 40.24ZM154.276 38.4C155.183 38.4 155.923 38.0867 156.496 37.46C157.083 36.8333 157.376 36.0267 157.376 35.04C157.376 34.04 157.083 33.2333 156.496 32.62C155.923 31.9933 155.183 31.68 154.276 31.68C153.369 31.68 152.623 31.9933 152.036 32.62C151.449 33.2333 151.156 34.04 151.156 35.04C151.156 35.6933 151.289 36.2733 151.556 36.78C151.823 37.2867 152.189 37.6867 152.656 37.98C153.136 38.26 153.676 38.4 154.276 38.4ZM169.188 40L166.268 30.08H168.388L170.308 37.56L172.468 30.08H174.828L176.988 37.56L178.908 30.08H181.028L178.108 40H175.928L173.648 32.2L171.368 40H169.188ZM183.975 28.2C183.575 28.2 183.241 28.08 182.975 27.84C182.721 27.5867 182.595 27.2733 182.595 26.9C182.595 26.5267 182.721 26.22 182.975 25.98C183.241 25.7267 183.575 25.6 183.975 25.6C184.375 25.6 184.701 25.7267 184.955 25.98C185.221 26.22 185.355 26.5267 185.355 26.9C185.355 27.2733 185.221 27.5867 184.955 27.84C184.701 28.08 184.375 28.2 183.975 28.2ZM182.915 40V30.08H185.035V40H182.915ZM191.993 40C191.02 40 190.246 39.7667 189.673 39.3C189.1 38.82 188.813 37.9733 188.813 36.76V31.86H187.113V30.08H188.813L189.073 27.56H190.933V30.08H193.733V31.86H190.933V36.76C190.933 37.3067 191.046 37.6867 191.273 37.9C191.513 38.1 191.92 38.2 192.493 38.2H193.633V40H191.993ZM195.919 40V25.6H198.039V31.68C198.372 31.1067 198.832 30.66 199.419 30.34C200.019 30.0067 200.679 29.84 201.399 29.84C202.586 29.84 203.519 30.2133 204.199 30.96C204.879 31.7067 205.219 32.82 205.219 34.3V40H203.119V34.52C203.119 32.6 202.352 31.64 200.819 31.64C200.019 31.64 199.352 31.92 198.819 32.48C198.299 33.04 198.039 33.84 198.039 34.88V40H195.919ZM217.455 40.24C216.428 40.24 215.528 40.06 214.755 39.7C213.982 39.34 213.375 38.8267 212.935 38.16C212.508 37.4933 212.288 36.7 212.275 35.78H214.515C214.528 36.5267 214.788 37.16 215.295 37.68C215.802 38.2 216.515 38.46 217.435 38.46C218.248 38.46 218.882 38.2667 219.335 37.88C219.802 37.48 220.035 36.9733 220.035 36.36C220.035 35.8667 219.922 35.4667 219.695 35.16C219.482 34.8533 219.182 34.6 218.795 34.4C218.422 34.2 217.988 34.02 217.495 33.86C217.002 33.7 216.482 33.5267 215.935 33.34C214.855 32.98 214.042 32.5133 213.495 31.94C212.962 31.3667 212.695 30.6133 212.695 29.68C212.682 28.8933 212.862 28.2067 213.235 27.62C213.622 27.0333 214.155 26.58 214.835 26.26C215.528 25.9267 216.335 25.76 217.255 25.76C218.162 25.76 218.955 25.9267 219.635 26.26C220.328 26.5933 220.868 27.06 221.255 27.66C221.642 28.2467 221.842 28.9333 221.855 29.72H219.615C219.615 29.36 219.522 29.02 219.335 28.7C219.148 28.3667 218.875 28.0933 218.515 27.88C218.155 27.6667 217.715 27.56 217.195 27.56C216.528 27.5467 215.975 27.7133 215.535 28.06C215.108 28.4067 214.895 28.8867 214.895 29.5C214.895 30.0467 215.055 30.4667 215.375 30.76C215.695 31.0533 216.135 31.3 216.695 31.5C217.255 31.6867 217.895 31.9067 218.615 32.16C219.308 32.3867 219.928 32.66 220.475 32.98C221.022 33.3 221.455 33.72 221.775 34.24C222.108 34.76 222.275 35.42 222.275 36.22C222.275 36.9267 222.095 37.5867 221.735 38.2C221.375 38.8 220.835 39.2933 220.115 39.68C219.395 40.0533 218.508 40.24 217.455 40.24ZM228.173 40.24C226.973 40.24 226.026 39.8667 225.333 39.12C224.653 38.3733 224.313 37.26 224.313 35.78V30.08H226.433V35.56C226.433 37.48 227.22 38.44 228.793 38.44C229.58 38.44 230.226 38.16 230.733 37.6C231.24 37.04 231.493 36.24 231.493 35.2V30.08H233.613V40H231.733L231.573 38.26C231.266 38.8733 230.813 39.36 230.213 39.72C229.626 40.0667 228.946 40.24 228.173 40.24ZM241.89 40.24C241.116 40.24 240.43 40.0867 239.83 39.78C239.243 39.4733 238.776 39.04 238.43 38.48L238.21 40H236.31V25.6H238.43V31.62C238.75 31.1533 239.19 30.74 239.75 30.38C240.31 30.02 241.03 29.84 241.91 29.84C242.87 29.84 243.716 30.0667 244.45 30.52C245.183 30.9733 245.756 31.5933 246.17 32.38C246.596 33.1667 246.81 34.06 246.81 35.06C246.81 36.06 246.596 36.9533 246.17 37.74C245.756 38.5133 245.183 39.1267 244.45 39.58C243.716 40.02 242.863 40.24 241.89 40.24ZM241.53 38.4C242.436 38.4 243.183 38.0933 243.77 37.48C244.356 36.8533 244.65 36.04 244.65 35.04C244.65 34.3867 244.516 33.8067 244.25 33.3C243.983 32.7933 243.616 32.4 243.15 32.12C242.683 31.8267 242.143 31.68 241.53 31.68C240.623 31.68 239.876 31.9933 239.29 32.62C238.716 33.2467 238.43 34.0533 238.43 35.04C238.43 36.04 238.716 36.8533 239.29 37.48C239.876 38.0933 240.623 38.4 241.53 38.4ZM249.103 40V25.6H251.223V40H249.103ZM258.547 40.24C257.574 40.24 256.707 40.0267 255.947 39.6C255.201 39.16 254.614 38.5533 254.187 37.78C253.761 37.0067 253.547 36.1067 253.547 35.08C253.547 34.04 253.754 33.1267 254.167 32.34C254.594 31.5533 255.181 30.94 255.927 30.5C256.687 30.06 257.567 29.84 258.567 29.84C259.541 29.84 260.387 30.06 261.107 30.5C261.827 30.9267 262.387 31.5 262.787 32.22C263.187 32.94 263.387 33.7333 263.387 34.6C263.387 34.7333 263.381 34.88 263.367 35.04C263.367 35.1867 263.361 35.3533 263.347 35.54H255.627C255.694 36.5 256.007 37.2333 256.567 37.74C257.141 38.2333 257.801 38.48 258.547 38.48C259.147 38.48 259.647 38.3467 260.047 38.08C260.461 37.8 260.767 37.4267 260.967 36.96H263.087C262.821 37.8933 262.287 38.6733 261.487 39.3C260.701 39.9267 259.721 40.24 258.547 40.24ZM258.547 31.58C257.841 31.58 257.214 31.7933 256.667 32.22C256.121 32.6333 255.787 33.26 255.667 34.1H261.267C261.227 33.3267 260.954 32.7133 260.447 32.26C259.941 31.8067 259.307 31.58 258.547 31.58ZM269.547 40.24C268.294 40.24 267.26 39.9333 266.447 39.32C265.634 38.7067 265.167 37.8933 265.047 36.88H267.187C267.294 37.3333 267.547 37.7267 267.947 38.06C268.347 38.38 268.874 38.54 269.527 38.54C270.167 38.54 270.634 38.4067 270.927 38.14C271.22 37.8733 271.367 37.5667 271.367 37.22C271.367 36.7133 271.16 36.3733 270.747 36.2C270.347 36.0133 269.787 35.8467 269.067 35.7C268.507 35.58 267.947 35.42 267.387 35.22C266.84 35.02 266.38 34.74 266.007 34.38C265.647 34.0067 265.467 33.5067 265.467 32.88C265.467 32.0133 265.8 31.2933 266.467 30.72C267.134 30.1333 268.067 29.84 269.267 29.84C270.374 29.84 271.267 30.1067 271.947 30.64C272.64 31.1733 273.047 31.9267 273.167 32.9H271.127C271.06 32.4733 270.86 32.14 270.527 31.9C270.207 31.66 269.774 31.54 269.227 31.54C268.694 31.54 268.28 31.6533 267.987 31.88C267.694 32.0933 267.547 32.3733 267.547 32.72C267.547 33.0667 267.747 33.34 268.147 33.54C268.56 33.74 269.1 33.92 269.767 34.08C270.434 34.2267 271.047 34.4 271.607 34.6C272.18 34.7867 272.64 35.0667 272.987 35.44C273.334 35.8133 273.507 36.36 273.507 37.08C273.52 37.9867 273.167 38.74 272.447 39.34C271.74 39.94 270.774 40.24 269.547 40.24ZM279.781 40.24C278.528 40.24 277.495 39.9333 276.681 39.32C275.868 38.7067 275.401 37.8933 275.281 36.88H277.421C277.528 37.3333 277.781 37.7267 278.181 38.06C278.581 38.38 279.108 38.54 279.761 38.54C280.401 38.54 280.868 38.4067 281.161 38.14C281.455 37.8733 281.601 37.5667 281.601 37.22C281.601 36.7133 281.395 36.3733 280.981 36.2C280.581 36.0133 280.021 35.8467 279.301 35.7C278.741 35.58 278.181 35.42 277.621 35.22C277.075 35.02 276.615 34.74 276.241 34.38C275.881 34.0067 275.701 33.5067 275.701 32.88C275.701 32.0133 276.035 31.2933 276.701 30.72C277.368 30.1333 278.301 29.84 279.501 29.84C280.608 29.84 281.501 30.1067 282.181 30.64C282.875 31.1733 283.281 31.9267 283.401 32.9H281.361C281.295 32.4733 281.095 32.14 280.761 31.9C280.441 31.66 280.008 31.54 279.461 31.54C278.928 31.54 278.515 31.6533 278.221 31.88C277.928 32.0933 277.781 32.3733 277.781 32.72C277.781 33.0667 277.981 33.34 278.381 33.54C278.795 33.74 279.335 33.92 280.001 34.08C280.668 34.2267 281.281 34.4 281.841 34.6C282.415 34.7867 282.875 35.0667 283.221 35.44C283.568 35.8133 283.741 36.36 283.741 37.08C283.755 37.9867 283.401 38.74 282.681 39.34C281.975 39.94 281.008 40.24 279.781 40.24Z" fill="white"/>
</g>
<defs>
<filter id="filter0_dd_470_1540" x="12.1865" y="7" width="285.627" height="54" filterUnits="userSpaceOnUse" color-interpolation-filters="sRGB">
<feFlood flood-opacity="0" result="BackgroundImageFix"/>
<feColorMatrix in="SourceAlpha" type="matrix" values="0 0 0 0 0 0 0 0 0 0 0 0 0 0 0 0 0 0 127 0" result="hardAlpha"/>
<feOffset dy="2"/>
<feGaussianBlur stdDeviation="1.5"/>
<feColorMatrix type="matrix" values="0 0 0 0 0 0 0 0 0 0 0 0 0 0 0 0 0 0 0.168 0"/>
<feBlend mode="normal" in2="BackgroundImageFix" result="effect1_dropShadow_470_1540"/>
<feColorMatrix in="SourceAlpha" type="matrix" values="0 0 0 0 0 0 0 0 0 0 0 0 0 0 0 0 0 0 127 0" result="hardAlpha"/>
<feOffset/>
<feGaussianBlur stdDeviation="1.5"/>
<feColorMatrix type="matrix" values="0 0 0 0 0 0 0 0 0 0 0 0 0 0 0 0 0 0 0.084 0"/>
<feBlend mode="normal" in2="effect1_dropShadow_470_1540" result="effect2_dropShadow_470_1540"/>
<feBlend mode="normal" in="SourceGraphic" in2="effect2_dropShadow_470_1540" result="shape"/>
</filter>
<filter id="filter1_ddd_470_1540" x="0.546591" y="0.740505" width="73.5025" height="73.0943" filterUnits="userSpaceOnUse" color-interpolation-filters="sRGB">
<feFlood flood-opacity="0" result="BackgroundImageFix"/>
<feColorMatrix in="SourceAlpha" type="matrix" values="0 0 0 0 0 0 0 0 0 0 0 0 0 0 0 0 0 0 127 0" result="hardAlpha"/>
<feOffset dy="0.384886"/>
<feGaussianBlur stdDeviation="0.812536"/>
<feColorMatrix type="matrix" values="0 0 0 0 0 0 0 0 0 0 0 0 0 0 0 0 0 0 0.08 0"/>
<feBlend mode="normal" in2="BackgroundImageFix" result="effect1_dropShadow_470_1540"/>
<feColorMatrix in="SourceAlpha" type="matrix" values="0 0 0 0 0 0 0 0 0 0 0 0 0 0 0 0 0 0 127 0" result="hardAlpha"/>
<feOffset dy="1.29275"/>
<feGaussianBlur stdDeviation="2.72914"/>
<feColorMatrix type="matrix" values="0 0 0 0 0 0 0 0 0 0 0 0 0 0 0 0 0 0 0.0476886 0"/>
<feBlend mode="normal" in2="effect1_dropShadow_470_1540" result="effect2_dropShadow_470_1540"/>
<feColorMatrix in="SourceAlpha" type="matrix" values="0 0 0 0 0 0 0 0 0 0 0 0 0 0 0 0 0 0 127 0" result="hardAlpha"/>
<feOffset dy="5.78766"/>
<feGaussianBlur stdDeviation="12.2184"/>
<feColorMatrix type="matrix" values="0 0 0 0 0 0 0 0 0 0 0 0 0 0 0 0 0 0 0.0323114 0"/>
<feBlend mode="normal" in2="effect2_dropShadow_470_1540" result="effect3_dropShadow_470_1540"/>
<feBlend mode="normal" in="SourceGraphic" in2="effect3_dropShadow_470_1540" result="shape"/>
</filter>
</defs>
</svg>
