<svg width="351" height="74" viewBox="0 0 351 74" fill="none" xmlns="http://www.w3.org/2000/svg">
<g filter="url(#filter0_dd_149_4894)">
<rect x="3" y="6" width="345" height="54" rx="5" fill="#311E5D"/>
<rect x="54.1865" y="6" width="243.627" height="54" rx="5" fill="#311E5D"/>
<g filter="url(#filter1_ddd_149_4894)">
<path d="M70.002 26.1062C70.002 22.7338 72.7358 20 76.1081 20H83.232C84.3562 20 85.2674 20.9113 85.2674 22.0354V28.291C85.2674 28.883 84.7876 29.3628 84.1956 29.3628H71.0737C70.4818 29.3628 70.002 28.883 70.002 28.291V26.1062Z" fill="#F51D80" stroke="white" stroke-width="1.22124"/>
<path d="M93.002 36.8938C93.002 40.2662 90.2681 43 86.8958 43H79.7719C78.6477 43 77.7365 42.0887 77.7365 40.9646V34.5054C77.7365 33.9135 78.2163 33.4336 78.8083 33.4336H91.9302C92.5221 33.4336 93.002 33.9135 93.002 34.5054V36.8938Z" fill="#3A0CA3" stroke="white" stroke-width="1.22124"/>
<path d="M72.702 27.5308C74.1427 27.5308 81.4308 27.493 86.8649 27.4636C90.2506 27.4453 93.002 30.1847 93.002 33.5705V35.7899V37.8096C93.002 36.6992 92.5004 34.915 89.202 34.915H75.889C72.637 34.915 70.002 32.2787 70.002 29.0267V25.2919C70.002 25.2919 70.3491 27.5308 72.702 27.5308Z" fill="#40A3FE" stroke="white" stroke-width="1.22124" stroke-linejoin="round"/>
<path d="M70.0007 22.8506C69.3901 23.9701 69.1865 25.2424 69.1865 25.9037C69.1865 26.2403 69.1865 27.3398 69.1865 27.4302" stroke="#3A0CA3" stroke-width="0.40708" stroke-linecap="round"/>
</g>
<path d="M92.9993 40.252C93.6099 39.1325 93.8135 37.8602 93.8135 37.1989C93.8135 36.8622 93.8135 35.7627 93.8135 35.6723" stroke="#311E5D" stroke-width="0.40708" stroke-linecap="round"/>
<path d="M110.233 40V26H112.353V38.32H118.713V40H110.233ZM125.126 40.24C124.179 40.24 123.326 40.0267 122.566 39.6C121.819 39.16 121.226 38.5533 120.786 37.78C120.346 36.9933 120.126 36.08 120.126 35.04C120.126 34 120.346 33.0933 120.786 32.32C121.239 31.5333 121.846 30.9267 122.606 30.5C123.366 30.06 124.212 29.84 125.146 29.84C126.092 29.84 126.939 30.06 127.686 30.5C128.446 30.9267 129.046 31.5333 129.486 32.32C129.939 33.0933 130.166 34 130.166 35.04C130.166 36.08 129.939 36.9933 129.486 37.78C129.046 38.5533 128.446 39.16 127.686 39.6C126.926 40.0267 126.072 40.24 125.126 40.24ZM125.126 38.42C125.632 38.42 126.099 38.2933 126.526 38.04C126.966 37.7867 127.319 37.4133 127.586 36.92C127.852 36.4133 127.986 35.7867 127.986 35.04C127.986 34.2933 127.852 33.6733 127.586 33.18C127.332 32.6733 126.986 32.2933 126.546 32.04C126.119 31.7867 125.652 31.66 125.146 31.66C124.639 31.66 124.166 31.7867 123.726 32.04C123.299 32.2933 122.952 32.6733 122.686 33.18C122.419 33.6733 122.286 34.2933 122.286 35.04C122.286 35.7867 122.419 36.4133 122.686 36.92C122.952 37.4133 123.299 37.7867 123.726 38.04C124.152 38.2933 124.619 38.42 125.126 38.42ZM135.991 36.96C135.471 36.96 134.991 36.9 134.551 36.78L133.691 37.62C133.837 37.7133 134.017 37.7933 134.231 37.86C134.444 37.9267 134.744 37.9867 135.131 38.04C135.517 38.0933 136.044 38.1467 136.711 38.2C138.031 38.32 138.984 38.64 139.571 39.16C140.157 39.6667 140.451 40.3467 140.451 41.2C140.451 41.7867 140.291 42.34 139.971 42.86C139.664 43.3933 139.177 43.82 138.511 44.14C137.857 44.4733 137.017 44.64 135.991 44.64C134.604 44.64 133.477 44.3733 132.611 43.84C131.757 43.32 131.331 42.5267 131.331 41.46C131.331 41.0467 131.437 40.6333 131.651 40.22C131.877 39.82 132.231 39.44 132.711 39.08C132.431 38.96 132.184 38.8333 131.971 38.7C131.771 38.5533 131.591 38.4067 131.431 38.26V37.78L133.151 36.02C132.377 35.3533 131.991 34.48 131.991 33.4C131.991 32.7467 132.144 32.1533 132.451 31.62C132.771 31.0733 133.231 30.64 133.831 30.32C134.431 30 135.151 29.84 135.991 29.84C136.551 29.84 137.071 29.92 137.551 30.08H141.251V31.48L139.491 31.58C139.811 32.1267 139.971 32.7333 139.971 33.4C139.971 34.0667 139.811 34.6667 139.491 35.2C139.184 35.7333 138.731 36.16 138.131 36.48C137.544 36.8 136.831 36.96 135.991 36.96ZM135.991 35.3C136.604 35.3 137.097 35.14 137.471 34.82C137.857 34.4867 138.051 34.02 138.051 33.42C138.051 32.8067 137.857 32.34 137.471 32.02C137.097 31.7 136.604 31.54 135.991 31.54C135.364 31.54 134.857 31.7 134.471 32.02C134.097 32.34 133.911 32.8067 133.911 33.42C133.911 34.02 134.097 34.4867 134.471 34.82C134.857 35.14 135.364 35.3 135.991 35.3ZM133.331 41.26C133.331 41.8333 133.584 42.26 134.091 42.54C134.597 42.8333 135.231 42.98 135.991 42.98C136.724 42.98 137.317 42.82 137.771 42.5C138.224 42.1933 138.451 41.78 138.451 41.26C138.451 40.8733 138.297 40.54 137.991 40.26C137.684 39.9933 137.104 39.8267 136.251 39.76C135.611 39.72 135.044 39.66 134.551 39.58C134.084 39.8333 133.764 40.1067 133.591 40.4C133.417 40.6933 133.331 40.98 133.331 41.26ZM144.342 28.2C143.942 28.2 143.608 28.08 143.342 27.84C143.088 27.5867 142.962 27.2733 142.962 26.9C142.962 26.5267 143.088 26.22 143.342 25.98C143.608 25.7267 143.942 25.6 144.342 25.6C144.742 25.6 145.068 25.7267 145.322 25.98C145.588 26.22 145.722 26.5267 145.722 26.9C145.722 27.2733 145.588 27.5867 145.322 27.84C145.068 28.08 144.742 28.2 144.342 28.2ZM143.282 40V30.08H145.402V40H143.282ZM148.2 40V30.08H150.08L150.24 31.82C150.547 31.2067 150.994 30.7267 151.58 30.38C152.18 30.02 152.867 29.84 153.64 29.84C154.84 29.84 155.78 30.2133 156.46 30.96C157.154 31.7067 157.5 32.82 157.5 34.3V40H155.4V34.52C155.4 32.6 154.614 31.64 153.04 31.64C152.254 31.64 151.6 31.92 151.08 32.48C150.574 33.04 150.32 33.84 150.32 34.88V40H148.2ZM167.016 40L164.096 30.08H166.216L168.136 37.56L170.296 30.08H172.656L174.816 37.56L176.736 30.08H178.856L175.936 40H173.756L171.476 32.2L169.196 40H167.016ZM181.803 28.2C181.403 28.2 181.069 28.08 180.803 27.84C180.549 27.5867 180.423 27.2733 180.423 26.9C180.423 26.5267 180.549 26.22 180.803 25.98C181.069 25.7267 181.403 25.6 181.803 25.6C182.203 25.6 182.529 25.7267 182.783 25.98C183.049 26.22 183.183 26.5267 183.183 26.9C183.183 27.2733 183.049 27.5867 182.783 27.84C182.529 28.08 182.203 28.2 181.803 28.2ZM180.743 40V30.08H182.863V40H180.743ZM189.821 40C188.848 40 188.075 39.7667 187.501 39.3C186.928 38.82 186.641 37.9733 186.641 36.76V31.86H184.941V30.08H186.641L186.901 27.56H188.761V30.08H191.561V31.86H188.761V36.76C188.761 37.3067 188.875 37.6867 189.101 37.9C189.341 38.1 189.748 38.2 190.321 38.2H191.461V40H189.821ZM193.747 40V25.6H195.867V31.68C196.201 31.1067 196.661 30.66 197.247 30.34C197.847 30.0067 198.507 29.84 199.227 29.84C200.414 29.84 201.347 30.2133 202.027 30.96C202.707 31.7067 203.047 32.82 203.047 34.3V40H200.947V34.52C200.947 32.6 200.181 31.64 198.647 31.64C197.847 31.64 197.181 31.92 196.647 32.48C196.127 33.04 195.867 33.84 195.867 34.88V40H193.747ZM215.283 40.24C214.256 40.24 213.356 40.06 212.583 39.7C211.81 39.34 211.203 38.8267 210.763 38.16C210.336 37.4933 210.116 36.7 210.103 35.78H212.343C212.356 36.5267 212.616 37.16 213.123 37.68C213.63 38.2 214.343 38.46 215.263 38.46C216.076 38.46 216.71 38.2667 217.163 37.88C217.63 37.48 217.863 36.9733 217.863 36.36C217.863 35.8667 217.75 35.4667 217.523 35.16C217.31 34.8533 217.01 34.6 216.623 34.4C216.25 34.2 215.816 34.02 215.323 33.86C214.83 33.7 214.31 33.5267 213.763 33.34C212.683 32.98 211.87 32.5133 211.323 31.94C210.79 31.3667 210.523 30.6133 210.523 29.68C210.51 28.8933 210.69 28.2067 211.063 27.62C211.45 27.0333 211.983 26.58 212.663 26.26C213.356 25.9267 214.163 25.76 215.083 25.76C215.99 25.76 216.783 25.9267 217.463 26.26C218.156 26.5933 218.696 27.06 219.083 27.66C219.47 28.2467 219.67 28.9333 219.683 29.72H217.443C217.443 29.36 217.35 29.02 217.163 28.7C216.976 28.3667 216.703 28.0933 216.343 27.88C215.983 27.6667 215.543 27.56 215.023 27.56C214.356 27.5467 213.803 27.7133 213.363 28.06C212.936 28.4067 212.723 28.8867 212.723 29.5C212.723 30.0467 212.883 30.4667 213.203 30.76C213.523 31.0533 213.963 31.3 214.523 31.5C215.083 31.6867 215.723 31.9067 216.443 32.16C217.136 32.3867 217.756 32.66 218.303 32.98C218.85 33.3 219.283 33.72 219.603 34.24C219.936 34.76 220.103 35.42 220.103 36.22C220.103 36.9267 219.923 37.5867 219.563 38.2C219.203 38.8 218.663 39.2933 217.943 39.68C217.223 40.0533 216.336 40.24 215.283 40.24ZM226.001 40.24C224.801 40.24 223.854 39.8667 223.161 39.12C222.481 38.3733 222.141 37.26 222.141 35.78V30.08H224.261V35.56C224.261 37.48 225.048 38.44 226.621 38.44C227.408 38.44 228.054 38.16 228.561 37.6C229.068 37.04 229.321 36.24 229.321 35.2V30.08H231.441V40H229.561L229.401 38.26C229.094 38.8733 228.641 39.36 228.041 39.72C227.454 40.0667 226.774 40.24 226.001 40.24ZM239.718 40.24C238.945 40.24 238.258 40.0867 237.658 39.78C237.071 39.4733 236.605 39.04 236.258 38.48L236.038 40H234.138V25.6H236.258V31.62C236.578 31.1533 237.018 30.74 237.578 30.38C238.138 30.02 238.858 29.84 239.738 29.84C240.698 29.84 241.545 30.0667 242.278 30.52C243.011 30.9733 243.585 31.5933 243.998 32.38C244.425 33.1667 244.638 34.06 244.638 35.06C244.638 36.06 244.425 36.9533 243.998 37.74C243.585 38.5133 243.011 39.1267 242.278 39.58C241.545 40.02 240.691 40.24 239.718 40.24ZM239.358 38.4C240.265 38.4 241.011 38.0933 241.598 37.48C242.185 36.8533 242.478 36.04 242.478 35.04C242.478 34.3867 242.345 33.8067 242.078 33.3C241.811 32.7933 241.445 32.4 240.978 32.12C240.511 31.8267 239.971 31.68 239.358 31.68C238.451 31.68 237.705 31.9933 237.118 32.62C236.545 33.2467 236.258 34.0533 236.258 35.04C236.258 36.04 236.545 36.8533 237.118 37.48C237.705 38.0933 238.451 38.4 239.358 38.4ZM246.931 40V25.6H249.051V40H246.931ZM256.376 40.24C255.402 40.24 254.536 40.0267 253.776 39.6C253.029 39.16 252.442 38.5533 252.016 37.78C251.589 37.0067 251.376 36.1067 251.376 35.08C251.376 34.04 251.582 33.1267 251.996 32.34C252.422 31.5533 253.009 30.94 253.756 30.5C254.516 30.06 255.396 29.84 256.396 29.84C257.369 29.84 258.216 30.06 258.936 30.5C259.656 30.9267 260.216 31.5 260.616 32.22C261.016 32.94 261.216 33.7333 261.216 34.6C261.216 34.7333 261.209 34.88 261.196 35.04C261.196 35.1867 261.189 35.3533 261.176 35.54H253.456C253.522 36.5 253.836 37.2333 254.396 37.74C254.969 38.2333 255.629 38.48 256.376 38.48C256.976 38.48 257.476 38.3467 257.876 38.08C258.289 37.8 258.596 37.4267 258.796 36.96H260.916C260.649 37.8933 260.116 38.6733 259.316 39.3C258.529 39.9267 257.549 40.24 256.376 40.24ZM256.376 31.58C255.669 31.58 255.042 31.7933 254.496 32.22C253.949 32.6333 253.616 33.26 253.496 34.1H259.096C259.056 33.3267 258.782 32.7133 258.276 32.26C257.769 31.8067 257.136 31.58 256.376 31.58ZM267.375 40.24C266.122 40.24 265.089 39.9333 264.275 39.32C263.462 38.7067 262.995 37.8933 262.875 36.88H265.015C265.122 37.3333 265.375 37.7267 265.775 38.06C266.175 38.38 266.702 38.54 267.355 38.54C267.995 38.54 268.462 38.4067 268.755 38.14C269.049 37.8733 269.195 37.5667 269.195 37.22C269.195 36.7133 268.989 36.3733 268.575 36.2C268.175 36.0133 267.615 35.8467 266.895 35.7C266.335 35.58 265.775 35.42 265.215 35.22C264.669 35.02 264.209 34.74 263.835 34.38C263.475 34.0067 263.295 33.5067 263.295 32.88C263.295 32.0133 263.629 31.2933 264.295 30.72C264.962 30.1333 265.895 29.84 267.095 29.84C268.202 29.84 269.095 30.1067 269.775 30.64C270.469 31.1733 270.875 31.9267 270.995 32.9H268.955C268.889 32.4733 268.689 32.14 268.355 31.9C268.035 31.66 267.602 31.54 267.055 31.54C266.522 31.54 266.109 31.6533 265.815 31.88C265.522 32.0933 265.375 32.3733 265.375 32.72C265.375 33.0667 265.575 33.34 265.975 33.54C266.389 33.74 266.929 33.92 267.595 34.08C268.262 34.2267 268.875 34.4 269.435 34.6C270.009 34.7867 270.469 35.0667 270.815 35.44C271.162 35.8133 271.335 36.36 271.335 37.08C271.349 37.9867 270.995 38.74 270.275 39.34C269.569 39.94 268.602 40.24 267.375 40.24ZM277.61 40.24C276.356 40.24 275.323 39.9333 274.51 39.32C273.696 38.7067 273.23 37.8933 273.11 36.88H275.25C275.356 37.3333 275.61 37.7267 276.01 38.06C276.41 38.38 276.936 38.54 277.59 38.54C278.23 38.54 278.696 38.4067 278.99 38.14C279.283 37.8733 279.43 37.5667 279.43 37.22C279.43 36.7133 279.223 36.3733 278.81 36.2C278.41 36.0133 277.85 35.8467 277.13 35.7C276.57 35.58 276.01 35.42 275.45 35.22C274.903 35.02 274.443 34.74 274.07 34.38C273.71 34.0067 273.53 33.5067 273.53 32.88C273.53 32.0133 273.863 31.2933 274.53 30.72C275.196 30.1333 276.13 29.84 277.33 29.84C278.436 29.84 279.33 30.1067 280.01 30.64C280.703 31.1733 281.11 31.9267 281.23 32.9H279.19C279.123 32.4733 278.923 32.14 278.59 31.9C278.27 31.66 277.836 31.54 277.29 31.54C276.756 31.54 276.343 31.6533 276.05 31.88C275.756 32.0933 275.61 32.3733 275.61 32.72C275.61 33.0667 275.81 33.34 276.21 33.54C276.623 33.74 277.163 33.92 277.83 34.08C278.496 34.2267 279.11 34.4 279.67 34.6C280.243 34.7867 280.703 35.0667 281.05 35.44C281.396 35.8133 281.57 36.36 281.57 37.08C281.583 37.9867 281.23 38.74 280.51 39.34C279.803 39.94 278.836 40.24 277.61 40.24Z" fill="white"/>
</g>
<defs>
<filter id="filter0_dd_149_4894" x="0" y="3" width="351" height="62" filterUnits="userSpaceOnUse" color-interpolation-filters="sRGB">
<feFlood flood-opacity="0" result="BackgroundImageFix"/>
<feColorMatrix in="SourceAlpha" type="matrix" values="0 0 0 0 0 0 0 0 0 0 0 0 0 0 0 0 0 0 127 0" result="hardAlpha"/>
<feOffset dy="2"/>
<feGaussianBlur stdDeviation="1.5"/>
<feColorMatrix type="matrix" values="0 0 0 0 0 0 0 0 0 0 0 0 0 0 0 0 0 0 0.168 0"/>
<feBlend mode="normal" in2="BackgroundImageFix" result="effect1_dropShadow_149_4894"/>
<feColorMatrix in="SourceAlpha" type="matrix" values="0 0 0 0 0 0 0 0 0 0 0 0 0 0 0 0 0 0 127 0" result="hardAlpha"/>
<feOffset/>
<feGaussianBlur stdDeviation="1.5"/>
<feColorMatrix type="matrix" values="0 0 0 0 0 0 0 0 0 0 0 0 0 0 0 0 0 0 0.084 0"/>
<feBlend mode="normal" in2="effect1_dropShadow_149_4894" result="effect2_dropShadow_149_4894"/>
<feBlend mode="normal" in="SourceGraphic" in2="effect2_dropShadow_149_4894" result="shape"/>
</filter>
<filter id="filter1_ddd_149_4894" x="44.5466" y="0.740505" width="73.5025" height="73.0943" filterUnits="userSpaceOnUse" color-interpolation-filters="sRGB">
<feFlood flood-opacity="0" result="BackgroundImageFix"/>
<feColorMatrix in="SourceAlpha" type="matrix" values="0 0 0 0 0 0 0 0 0 0 0 0 0 0 0 0 0 0 127 0" result="hardAlpha"/>
<feOffset dy="0.384886"/>
<feGaussianBlur stdDeviation="0.812536"/>
<feColorMatrix type="matrix" values="0 0 0 0 0 0 0 0 0 0 0 0 0 0 0 0 0 0 0.08 0"/>
<feBlend mode="normal" in2="BackgroundImageFix" result="effect1_dropShadow_149_4894"/>
<feColorMatrix in="SourceAlpha" type="matrix" values="0 0 0 0 0 0 0 0 0 0 0 0 0 0 0 0 0 0 127 0" result="hardAlpha"/>
<feOffset dy="1.29275"/>
<feGaussianBlur stdDeviation="2.72914"/>
<feColorMatrix type="matrix" values="0 0 0 0 0 0 0 0 0 0 0 0 0 0 0 0 0 0 0.0476886 0"/>
<feBlend mode="normal" in2="effect1_dropShadow_149_4894" result="effect2_dropShadow_149_4894"/>
<feColorMatrix in="SourceAlpha" type="matrix" values="0 0 0 0 0 0 0 0 0 0 0 0 0 0 0 0 0 0 127 0" result="hardAlpha"/>
<feOffset dy="5.78766"/>
<feGaussianBlur stdDeviation="12.2184"/>
<feColorMatrix type="matrix" values="0 0 0 0 0 0 0 0 0 0 0 0 0 0 0 0 0 0 0.0323114 0"/>
<feBlend mode="normal" in2="effect2_dropShadow_149_4894" result="effect3_dropShadow_149_4894"/>
<feBlend mode="normal" in="SourceGraphic" in2="effect3_dropShadow_149_4894" result="shape"/>
</filter>
</defs>
</svg>
