<svg width="351" height="74" viewBox="0 0 351 74" fill="none" xmlns="http://www.w3.org/2000/svg">
<g filter="url(#filter0_dd_469_1540)">
<rect x="3" y="6" width="345" height="54" rx="5" fill="#311E5D"/>
<rect x="40.1865" y="6" width="271.627" height="54" rx="5" fill="#311E5D"/>
<g filter="url(#filter1_ddd_469_1540)">
<path d="M56.002 26.1062C56.002 22.7338 58.7358 20 62.1081 20H69.232C70.3562 20 71.2674 20.9113 71.2674 22.0354V28.291C71.2674 28.883 70.7876 29.3628 70.1956 29.3628H57.0737C56.4818 29.3628 56.002 28.883 56.002 28.291V26.1062Z" fill="#F51D80" stroke="white" stroke-width="1.22124"/>
<path d="M79.002 36.8938C79.002 40.2662 76.2681 43 72.8958 43H65.7719C64.6477 43 63.7365 42.0887 63.7365 40.9646V34.5054C63.7365 33.9135 64.2163 33.4336 64.8083 33.4336H77.9302C78.5221 33.4336 79.002 33.9135 79.002 34.5054V36.8938Z" fill="#3A0CA3" stroke="white" stroke-width="1.22124"/>
<path d="M58.702 27.5308C60.1427 27.5308 67.4308 27.493 72.8649 27.4636C76.2506 27.4453 79.002 30.1847 79.002 33.5705V35.7899V37.8096C79.002 36.6992 78.5004 34.915 75.202 34.915H61.889C58.637 34.915 56.002 32.2787 56.002 29.0267V25.2919C56.002 25.2919 56.3491 27.5308 58.702 27.5308Z" fill="#40A3FE" stroke="white" stroke-width="1.22124" stroke-linejoin="round"/>
<path d="M56.0007 22.8506C55.3901 23.9701 55.1865 25.2424 55.1865 25.9037C55.1865 26.2403 55.1865 27.3398 55.1865 27.4302" stroke="#3A0CA3" stroke-width="0.40708" stroke-linecap="round"/>
</g>
<path d="M78.9993 40.252C79.6099 39.1325 79.8135 37.8602 79.8135 37.1989C79.8135 36.8622 79.8135 35.7627 79.8135 35.6723" stroke="#311E5D" stroke-width="0.40708" stroke-linecap="round"/>
<path d="M100.853 40.24C99.8268 40.24 98.9268 40.06 98.1535 39.7C97.3801 39.34 96.7735 38.8267 96.3335 38.16C95.9068 37.4933 95.6868 36.7 95.6735 35.78H97.9135C97.9268 36.5267 98.1868 37.16 98.6935 37.68C99.2001 38.2 99.9135 38.46 100.833 38.46C101.647 38.46 102.28 38.2667 102.733 37.88C103.2 37.48 103.433 36.9733 103.433 36.36C103.433 35.8667 103.32 35.4667 103.093 35.16C102.88 34.8533 102.58 34.6 102.193 34.4C101.82 34.2 101.387 34.02 100.893 33.86C100.4 33.7 99.8801 33.5267 99.3335 33.34C98.2535 32.98 97.4401 32.5133 96.8935 31.94C96.3601 31.3667 96.0935 30.6133 96.0935 29.68C96.0801 28.8933 96.2601 28.2067 96.6335 27.62C97.0201 27.0333 97.5535 26.58 98.2335 26.26C98.9268 25.9267 99.7335 25.76 100.653 25.76C101.56 25.76 102.353 25.9267 103.033 26.26C103.727 26.5933 104.267 27.06 104.653 27.66C105.04 28.2467 105.24 28.9333 105.253 29.72H103.013C103.013 29.36 102.92 29.02 102.733 28.7C102.547 28.3667 102.273 28.0933 101.913 27.88C101.553 27.6667 101.113 27.56 100.593 27.56C99.9268 27.5467 99.3735 27.7133 98.9335 28.06C98.5068 28.4067 98.2935 28.8867 98.2935 29.5C98.2935 30.0467 98.4535 30.4667 98.7735 30.76C99.0935 31.0533 99.5335 31.3 100.093 31.5C100.653 31.6867 101.293 31.9067 102.013 32.16C102.707 32.3867 103.327 32.66 103.873 32.98C104.42 33.3 104.853 33.72 105.173 34.24C105.507 34.76 105.673 35.42 105.673 36.22C105.673 36.9267 105.493 37.5867 105.133 38.2C104.773 38.8 104.233 39.2933 103.513 39.68C102.793 40.0533 101.907 40.24 100.853 40.24ZM111.571 40.24C110.371 40.24 109.425 39.8667 108.731 39.12C108.051 38.3733 107.711 37.26 107.711 35.78V30.08H109.831V35.56C109.831 37.48 110.618 38.44 112.191 38.44C112.978 38.44 113.625 38.16 114.131 37.6C114.638 37.04 114.891 36.24 114.891 35.2V30.08H117.011V40H115.131L114.971 38.26C114.665 38.8733 114.211 39.36 113.611 39.72C113.025 40.0667 112.345 40.24 111.571 40.24ZM119.708 44.4V30.08H121.608L121.828 31.62C122.148 31.1533 122.588 30.74 123.148 30.38C123.708 30.02 124.428 29.84 125.308 29.84C126.268 29.84 127.115 30.0667 127.848 30.52C128.581 30.9733 129.155 31.5933 129.568 32.38C129.995 33.1667 130.208 34.06 130.208 35.06C130.208 36.06 129.995 36.9533 129.568 37.74C129.155 38.5133 128.581 39.1267 127.848 39.58C127.115 40.02 126.261 40.24 125.288 40.24C124.515 40.24 123.828 40.0867 123.228 39.78C122.641 39.4733 122.175 39.04 121.828 38.48V44.4H119.708ZM124.928 38.4C125.835 38.4 126.581 38.0933 127.168 37.48C127.755 36.8533 128.048 36.04 128.048 35.04C128.048 34.3867 127.915 33.8067 127.648 33.3C127.381 32.7933 127.015 32.4 126.548 32.12C126.081 31.8267 125.541 31.68 124.928 31.68C124.021 31.68 123.275 31.9933 122.688 32.62C122.115 33.2467 121.828 34.0533 121.828 35.04C121.828 36.04 122.115 36.8533 122.688 37.48C123.275 38.0933 124.021 38.4 124.928 38.4ZM132.501 44.4V30.08H134.401L134.621 31.62C134.941 31.1533 135.381 30.74 135.941 30.38C136.501 30.02 137.221 29.84 138.101 29.84C139.061 29.84 139.908 30.0667 140.641 30.52C141.374 30.9733 141.948 31.5933 142.361 32.38C142.788 33.1667 143.001 34.06 143.001 35.06C143.001 36.06 142.788 36.9533 142.361 37.74C141.948 38.5133 141.374 39.1267 140.641 39.58C139.908 40.02 139.054 40.24 138.081 40.24C137.308 40.24 136.621 40.0867 136.021 39.78C135.434 39.4733 134.968 39.04 134.621 38.48V44.4H132.501ZM137.721 38.4C138.628 38.4 139.374 38.0933 139.961 37.48C140.548 36.8533 140.841 36.04 140.841 35.04C140.841 34.3867 140.708 33.8067 140.441 33.3C140.174 32.7933 139.808 32.4 139.341 32.12C138.874 31.8267 138.334 31.68 137.721 31.68C136.814 31.68 136.068 31.9933 135.481 32.62C134.908 33.2467 134.621 34.0533 134.621 35.04C134.621 36.04 134.908 36.8533 135.481 37.48C136.068 38.0933 136.814 38.4 137.721 38.4ZM149.934 40.24C148.987 40.24 148.134 40.0267 147.374 39.6C146.627 39.16 146.034 38.5533 145.594 37.78C145.154 36.9933 144.934 36.08 144.934 35.04C144.934 34 145.154 33.0933 145.594 32.32C146.047 31.5333 146.654 30.9267 147.414 30.5C148.174 30.06 149.021 29.84 149.954 29.84C150.901 29.84 151.747 30.06 152.494 30.5C153.254 30.9267 153.854 31.5333 154.294 32.32C154.747 33.0933 154.974 34 154.974 35.04C154.974 36.08 154.747 36.9933 154.294 37.78C153.854 38.5533 153.254 39.16 152.494 39.6C151.734 40.0267 150.881 40.24 149.934 40.24ZM149.934 38.42C150.441 38.42 150.907 38.2933 151.334 38.04C151.774 37.7867 152.127 37.4133 152.394 36.92C152.661 36.4133 152.794 35.7867 152.794 35.04C152.794 34.2933 152.661 33.6733 152.394 33.18C152.141 32.6733 151.794 32.2933 151.354 32.04C150.927 31.7867 150.461 31.66 149.954 31.66C149.447 31.66 148.974 31.7867 148.534 32.04C148.107 32.2933 147.761 32.6733 147.494 33.18C147.227 33.6733 147.094 34.2933 147.094 35.04C147.094 35.7867 147.227 36.4133 147.494 36.92C147.761 37.4133 148.107 37.7867 148.534 38.04C148.961 38.2933 149.427 38.42 149.934 38.42ZM157.267 40V30.08H159.167L159.347 31.96C159.693 31.3067 160.173 30.7933 160.787 30.42C161.413 30.0333 162.167 29.84 163.047 29.84V32.06H162.467C161.88 32.06 161.353 32.16 160.887 32.36C160.433 32.5467 160.067 32.8733 159.787 33.34C159.52 33.7933 159.387 34.4267 159.387 35.24V40H157.267ZM169.024 40C168.051 40 167.278 39.7667 166.704 39.3C166.131 38.82 165.844 37.9733 165.844 36.76V31.86H164.144V30.08H165.844L166.104 27.56H167.964V30.08H170.764V31.86H167.964V36.76C167.964 37.3067 168.078 37.6867 168.304 37.9C168.544 38.1 168.951 38.2 169.524 38.2H170.664V40H169.024ZM179.969 40L177.049 30.08H179.169L181.089 37.56L183.249 30.08H185.609L187.769 37.56L189.689 30.08H191.809L188.889 40H186.709L184.429 32.2L182.149 40H179.969ZM194.756 28.2C194.356 28.2 194.022 28.08 193.756 27.84C193.502 27.5867 193.376 27.2733 193.376 26.9C193.376 26.5267 193.502 26.22 193.756 25.98C194.022 25.7267 194.356 25.6 194.756 25.6C195.156 25.6 195.482 25.7267 195.736 25.98C196.002 26.22 196.136 26.5267 196.136 26.9C196.136 27.2733 196.002 27.5867 195.736 27.84C195.482 28.08 195.156 28.2 194.756 28.2ZM193.696 40V30.08H195.816V40H193.696ZM202.774 40C201.801 40 201.028 39.7667 200.454 39.3C199.881 38.82 199.594 37.9733 199.594 36.76V31.86H197.894V30.08H199.594L199.854 27.56H201.714V30.08H204.514V31.86H201.714V36.76C201.714 37.3067 201.828 37.6867 202.054 37.9C202.294 38.1 202.701 38.2 203.274 38.2H204.414V40H202.774ZM206.7 40V25.6H208.82V31.68C209.154 31.1067 209.614 30.66 210.2 30.34C210.8 30.0067 211.46 29.84 212.18 29.84C213.367 29.84 214.3 30.2133 214.98 30.96C215.66 31.7067 216 32.82 216 34.3V40H213.9V34.52C213.9 32.6 213.134 31.64 211.6 31.64C210.8 31.64 210.134 31.92 209.6 32.48C209.08 33.04 208.82 33.84 208.82 34.88V40H206.7ZM227.596 40.24C226.716 40.24 225.943 40.1 225.276 39.82C224.61 39.5267 224.076 39.1267 223.676 38.62C223.276 38.1133 223.036 37.5267 222.956 36.86H225.536C225.616 37.2467 225.83 37.58 226.176 37.86C226.536 38.1267 226.996 38.26 227.556 38.26C228.116 38.26 228.523 38.1467 228.776 37.92C229.043 37.6933 229.176 37.4333 229.176 37.14C229.176 36.7133 228.99 36.4267 228.616 36.28C228.243 36.12 227.723 35.9667 227.056 35.82C226.63 35.7267 226.196 35.6133 225.756 35.48C225.316 35.3467 224.91 35.18 224.536 34.98C224.176 34.7667 223.883 34.5 223.656 34.18C223.43 33.8467 223.316 33.44 223.316 32.96C223.316 32.08 223.663 31.34 224.356 30.74C225.063 30.14 226.05 29.84 227.316 29.84C228.49 29.84 229.423 30.1133 230.116 30.66C230.823 31.2067 231.243 31.96 231.376 32.92H228.956C228.81 32.1867 228.256 31.82 227.296 31.82C226.816 31.82 226.443 31.9133 226.176 32.1C225.923 32.2867 225.796 32.52 225.796 32.8C225.796 33.0933 225.99 33.3267 226.376 33.5C226.763 33.6733 227.276 33.8333 227.916 33.98C228.61 34.14 229.243 34.32 229.816 34.52C230.403 34.7067 230.87 34.9933 231.216 35.38C231.563 35.7533 231.736 36.2933 231.736 37C231.75 37.6133 231.59 38.1667 231.256 38.66C230.923 39.1533 230.443 39.54 229.816 39.82C229.19 40.1 228.45 40.24 227.596 40.24ZM237.724 40.24C236.484 40.24 235.524 39.8533 234.844 39.08C234.177 38.3067 233.844 37.1733 233.844 35.68V30.08H236.384V35.44C236.384 36.2933 236.557 36.9467 236.904 37.4C237.251 37.8533 237.797 38.08 238.544 38.08C239.251 38.08 239.831 37.8267 240.284 37.32C240.751 36.8133 240.984 36.1067 240.984 35.2V30.08H243.544V40H241.284L241.084 38.32C240.777 38.9067 240.331 39.3733 239.744 39.72C239.171 40.0667 238.497 40.24 237.724 40.24ZM252.052 40.24C251.305 40.24 250.652 40.1 250.092 39.82C249.532 39.54 249.079 39.1467 248.732 38.64L248.452 40H246.172V25.6H248.732V31.5C249.052 31.06 249.472 30.6733 249.992 30.34C250.525 30.0067 251.212 29.84 252.052 29.84C252.985 29.84 253.819 30.0667 254.552 30.52C255.285 30.9733 255.865 31.5933 256.292 32.38C256.719 33.1667 256.932 34.06 256.932 35.06C256.932 36.06 256.719 36.9533 256.292 37.74C255.865 38.5133 255.285 39.1267 254.552 39.58C253.819 40.02 252.985 40.24 252.052 40.24ZM251.512 38C252.325 38 252.999 37.7267 253.532 37.18C254.065 36.6333 254.332 35.9267 254.332 35.06C254.332 34.1933 254.065 33.48 253.532 32.92C252.999 32.36 252.325 32.08 251.512 32.08C250.685 32.08 250.005 32.36 249.472 32.92C248.952 33.4667 248.692 34.1733 248.692 35.04C248.692 35.9067 248.952 36.62 249.472 37.18C250.005 37.7267 250.685 38 251.512 38ZM259.219 40V25.6H261.779V40H259.219ZM269.215 40.24C268.215 40.24 267.328 40.0267 266.555 39.6C265.781 39.1733 265.175 38.5733 264.735 37.8C264.295 37.0267 264.075 36.1333 264.075 35.12C264.075 34.0933 264.288 33.18 264.715 32.38C265.155 31.58 265.755 30.96 266.515 30.52C267.288 30.0667 268.195 29.84 269.235 29.84C270.208 29.84 271.068 30.0533 271.815 30.48C272.561 30.9067 273.141 31.4933 273.555 32.24C273.981 32.9733 274.195 33.7933 274.195 34.7C274.195 34.8467 274.188 35 274.175 35.16C274.175 35.32 274.168 35.4867 274.155 35.66H266.615C266.668 36.4333 266.935 37.04 267.415 37.48C267.908 37.92 268.501 38.14 269.195 38.14C269.715 38.14 270.148 38.0267 270.495 37.8C270.855 37.56 271.121 37.2533 271.295 36.88H273.895C273.708 37.5067 273.395 38.08 272.955 38.6C272.528 39.1067 271.995 39.5067 271.355 39.8C270.728 40.0933 270.015 40.24 269.215 40.24ZM269.235 31.92C268.608 31.92 268.055 32.1 267.575 32.46C267.095 32.8067 266.788 33.34 266.655 34.06H271.595C271.555 33.4067 271.315 32.8867 270.875 32.5C270.435 32.1133 269.888 31.92 269.235 31.92ZM280.448 40.24C279.568 40.24 278.795 40.1 278.128 39.82C277.461 39.5267 276.928 39.1267 276.528 38.62C276.128 38.1133 275.888 37.5267 275.808 36.86H278.388C278.468 37.2467 278.681 37.58 279.028 37.86C279.388 38.1267 279.848 38.26 280.408 38.26C280.968 38.26 281.375 38.1467 281.628 37.92C281.895 37.6933 282.028 37.4333 282.028 37.14C282.028 36.7133 281.841 36.4267 281.468 36.28C281.095 36.12 280.575 35.9667 279.908 35.82C279.481 35.7267 279.048 35.6133 278.608 35.48C278.168 35.3467 277.761 35.18 277.388 34.98C277.028 34.7667 276.735 34.5 276.508 34.18C276.281 33.8467 276.168 33.44 276.168 32.96C276.168 32.08 276.515 31.34 277.208 30.74C277.915 30.14 278.901 29.84 280.168 29.84C281.341 29.84 282.275 30.1133 282.968 30.66C283.675 31.2067 284.095 31.96 284.228 32.92H281.808C281.661 32.1867 281.108 31.82 280.148 31.82C279.668 31.82 279.295 31.9133 279.028 32.1C278.775 32.2867 278.648 32.52 278.648 32.8C278.648 33.0933 278.841 33.3267 279.228 33.5C279.615 33.6733 280.128 33.8333 280.768 33.98C281.461 34.14 282.095 34.32 282.668 34.52C283.255 34.7067 283.721 34.9933 284.068 35.38C284.415 35.7533 284.588 36.2933 284.588 37C284.601 37.6133 284.441 38.1667 284.108 38.66C283.775 39.1533 283.295 39.54 282.668 39.82C282.041 40.1 281.301 40.24 280.448 40.24ZM290.956 40.24C290.076 40.24 289.302 40.1 288.636 39.82C287.969 39.5267 287.436 39.1267 287.036 38.62C286.636 38.1133 286.396 37.5267 286.316 36.86H288.896C288.976 37.2467 289.189 37.58 289.536 37.86C289.896 38.1267 290.356 38.26 290.916 38.26C291.476 38.26 291.882 38.1467 292.136 37.92C292.402 37.6933 292.536 37.4333 292.536 37.14C292.536 36.7133 292.349 36.4267 291.976 36.28C291.602 36.12 291.082 35.9667 290.416 35.82C289.989 35.7267 289.556 35.6133 289.116 35.48C288.676 35.3467 288.269 35.18 287.896 34.98C287.536 34.7667 287.242 34.5 287.016 34.18C286.789 33.8467 286.676 33.44 286.676 32.96C286.676 32.08 287.022 31.34 287.716 30.74C288.422 30.14 289.409 29.84 290.676 29.84C291.849 29.84 292.782 30.1133 293.476 30.66C294.182 31.2067 294.602 31.96 294.736 32.92H292.316C292.169 32.1867 291.616 31.82 290.656 31.82C290.176 31.82 289.802 31.9133 289.536 32.1C289.282 32.2867 289.156 32.52 289.156 32.8C289.156 33.0933 289.349 33.3267 289.736 33.5C290.122 33.6733 290.636 33.8333 291.276 33.98C291.969 34.14 292.602 34.32 293.176 34.52C293.762 34.7067 294.229 34.9933 294.576 35.38C294.922 35.7533 295.096 36.2933 295.096 37C295.109 37.6133 294.949 38.1667 294.616 38.66C294.282 39.1533 293.802 39.54 293.176 39.82C292.549 40.1 291.809 40.24 290.956 40.24Z" fill="white"/>
</g>
<defs>
<filter id="filter0_dd_469_1540" x="0" y="3" width="351" height="62" filterUnits="userSpaceOnUse" color-interpolation-filters="sRGB">
<feFlood flood-opacity="0" result="BackgroundImageFix"/>
<feColorMatrix in="SourceAlpha" type="matrix" values="0 0 0 0 0 0 0 0 0 0 0 0 0 0 0 0 0 0 127 0" result="hardAlpha"/>
<feOffset dy="2"/>
<feGaussianBlur stdDeviation="1.5"/>
<feColorMatrix type="matrix" values="0 0 0 0 0 0 0 0 0 0 0 0 0 0 0 0 0 0 0.168 0"/>
<feBlend mode="normal" in2="BackgroundImageFix" result="effect1_dropShadow_469_1540"/>
<feColorMatrix in="SourceAlpha" type="matrix" values="0 0 0 0 0 0 0 0 0 0 0 0 0 0 0 0 0 0 127 0" result="hardAlpha"/>
<feOffset/>
<feGaussianBlur stdDeviation="1.5"/>
<feColorMatrix type="matrix" values="0 0 0 0 0 0 0 0 0 0 0 0 0 0 0 0 0 0 0.084 0"/>
<feBlend mode="normal" in2="effect1_dropShadow_469_1540" result="effect2_dropShadow_469_1540"/>
<feBlend mode="normal" in="SourceGraphic" in2="effect2_dropShadow_469_1540" result="shape"/>
</filter>
<filter id="filter1_ddd_469_1540" x="30.5466" y="0.740505" width="73.5025" height="73.0943" filterUnits="userSpaceOnUse" color-interpolation-filters="sRGB">
<feFlood flood-opacity="0" result="BackgroundImageFix"/>
<feColorMatrix in="SourceAlpha" type="matrix" values="0 0 0 0 0 0 0 0 0 0 0 0 0 0 0 0 0 0 127 0" result="hardAlpha"/>
<feOffset dy="0.384886"/>
<feGaussianBlur stdDeviation="0.812536"/>
<feColorMatrix type="matrix" values="0 0 0 0 0 0 0 0 0 0 0 0 0 0 0 0 0 0 0.08 0"/>
<feBlend mode="normal" in2="BackgroundImageFix" result="effect1_dropShadow_469_1540"/>
<feColorMatrix in="SourceAlpha" type="matrix" values="0 0 0 0 0 0 0 0 0 0 0 0 0 0 0 0 0 0 127 0" result="hardAlpha"/>
<feOffset dy="1.29275"/>
<feGaussianBlur stdDeviation="2.72914"/>
<feColorMatrix type="matrix" values="0 0 0 0 0 0 0 0 0 0 0 0 0 0 0 0 0 0 0.0476886 0"/>
<feBlend mode="normal" in2="effect1_dropShadow_469_1540" result="effect2_dropShadow_469_1540"/>
<feColorMatrix in="SourceAlpha" type="matrix" values="0 0 0 0 0 0 0 0 0 0 0 0 0 0 0 0 0 0 127 0" result="hardAlpha"/>
<feOffset dy="5.78766"/>
<feGaussianBlur stdDeviation="12.2184"/>
<feColorMatrix type="matrix" values="0 0 0 0 0 0 0 0 0 0 0 0 0 0 0 0 0 0 0.0323114 0"/>
<feBlend mode="normal" in2="effect2_dropShadow_469_1540" result="effect3_dropShadow_469_1540"/>
<feBlend mode="normal" in="SourceGraphic" in2="effect3_dropShadow_469_1540" result="shape"/>
</filter>
</defs>
</svg>
