<svg width="351" height="74" viewBox="0 0 351 74" fill="none" xmlns="http://www.w3.org/2000/svg">
<g filter="url(#filter0_dd_469_1540)">
<rect x="3" y="6" width="345" height="54" rx="5" fill="#311E5D"/>
<rect x="40.6865" y="6" width="270.627" height="54" rx="5" fill="#311E5D"/>
<g filter="url(#filter1_ddd_469_1540)">
<path d="M56.502 26.1062C56.502 22.7338 59.2358 20 62.6081 20H69.732C70.8562 20 71.7674 20.9113 71.7674 22.0354V28.291C71.7674 28.883 71.2876 29.3628 70.6956 29.3628H57.5737C56.9818 29.3628 56.502 28.883 56.502 28.291V26.1062Z" fill="#F51D80" stroke="white" stroke-width="1.22124"/>
<path d="M79.502 36.8938C79.502 40.2662 76.7681 43 73.3958 43H66.2719C65.1477 43 64.2365 42.0887 64.2365 40.9646V34.5054C64.2365 33.9135 64.7163 33.4336 65.3083 33.4336H78.4302C79.0221 33.4336 79.502 33.9135 79.502 34.5054V36.8938Z" fill="#3A0CA3" stroke="white" stroke-width="1.22124"/>
<path d="M59.202 27.5308C60.6427 27.5308 67.9308 27.493 73.3649 27.4636C76.7506 27.4453 79.502 30.1847 79.502 33.5705V35.7899V37.8096C79.502 36.6992 79.0004 34.915 75.702 34.915H62.389C59.137 34.915 56.502 32.2787 56.502 29.0267V25.2919C56.502 25.2919 56.8491 27.5308 59.202 27.5308Z" fill="#40A3FE" stroke="white" stroke-width="1.22124" stroke-linejoin="round"/>
<path d="M56.5007 22.8506C55.8901 23.9701 55.6865 25.2424 55.6865 25.9037C55.6865 26.2403 55.6865 27.3398 55.6865 27.4302" stroke="#3A0CA3" stroke-width="0.40708" stroke-linecap="round"/>
</g>
<path d="M79.4993 40.252C80.1099 39.1325 80.3135 37.8602 80.3135 37.1989C80.3135 36.8622 80.3135 35.7627 80.3135 35.6723" stroke="#311E5D" stroke-width="0.40708" stroke-linecap="round"/>
<path d="M101.353 40.24C100.327 40.24 99.4268 40.06 98.6535 39.7C97.8801 39.34 97.2735 38.8267 96.8335 38.16C96.4068 37.4933 96.1868 36.7 96.1735 35.78H98.4135C98.4268 36.5267 98.6868 37.16 99.1935 37.68C99.7001 38.2 100.413 38.46 101.333 38.46C102.147 38.46 102.78 38.2667 103.233 37.88C103.7 37.48 103.933 36.9733 103.933 36.36C103.933 35.8667 103.82 35.4667 103.593 35.16C103.38 34.8533 103.08 34.6 102.693 34.4C102.32 34.2 101.887 34.02 101.393 33.86C100.9 33.7 100.38 33.5267 99.8335 33.34C98.7535 32.98 97.9401 32.5133 97.3935 31.94C96.8601 31.3667 96.5935 30.6133 96.5935 29.68C96.5801 28.8933 96.7601 28.2067 97.1335 27.62C97.5201 27.0333 98.0535 26.58 98.7335 26.26C99.4268 25.9267 100.233 25.76 101.153 25.76C102.06 25.76 102.853 25.9267 103.533 26.26C104.227 26.5933 104.767 27.06 105.153 27.66C105.54 28.2467 105.74 28.9333 105.753 29.72H103.513C103.513 29.36 103.42 29.02 103.233 28.7C103.047 28.3667 102.773 28.0933 102.413 27.88C102.053 27.6667 101.613 27.56 101.093 27.56C100.427 27.5467 99.8735 27.7133 99.4335 28.06C99.0068 28.4067 98.7935 28.8867 98.7935 29.5C98.7935 30.0467 98.9535 30.4667 99.2735 30.76C99.5935 31.0533 100.033 31.3 100.593 31.5C101.153 31.6867 101.793 31.9067 102.513 32.16C103.207 32.3867 103.827 32.66 104.373 32.98C104.92 33.3 105.353 33.72 105.673 34.24C106.007 34.76 106.173 35.42 106.173 36.22C106.173 36.9267 105.993 37.5867 105.633 38.2C105.273 38.8 104.733 39.2933 104.013 39.68C103.293 40.0533 102.407 40.24 101.353 40.24ZM112.071 40.24C110.871 40.24 109.925 39.8667 109.231 39.12C108.551 38.3733 108.211 37.26 108.211 35.78V30.08H110.331V35.56C110.331 37.48 111.118 38.44 112.691 38.44C113.478 38.44 114.125 38.16 114.631 37.6C115.138 37.04 115.391 36.24 115.391 35.2V30.08H117.511V40H115.631L115.471 38.26C115.165 38.8733 114.711 39.36 114.111 39.72C113.525 40.0667 112.845 40.24 112.071 40.24ZM120.208 44.4V30.08H122.108L122.328 31.62C122.648 31.1533 123.088 30.74 123.648 30.38C124.208 30.02 124.928 29.84 125.808 29.84C126.768 29.84 127.615 30.0667 128.348 30.52C129.081 30.9733 129.655 31.5933 130.068 32.38C130.495 33.1667 130.708 34.06 130.708 35.06C130.708 36.06 130.495 36.9533 130.068 37.74C129.655 38.5133 129.081 39.1267 128.348 39.58C127.615 40.02 126.761 40.24 125.788 40.24C125.015 40.24 124.328 40.0867 123.728 39.78C123.141 39.4733 122.675 39.04 122.328 38.48V44.4H120.208ZM125.428 38.4C126.335 38.4 127.081 38.0933 127.668 37.48C128.255 36.8533 128.548 36.04 128.548 35.04C128.548 34.3867 128.415 33.8067 128.148 33.3C127.881 32.7933 127.515 32.4 127.048 32.12C126.581 31.8267 126.041 31.68 125.428 31.68C124.521 31.68 123.775 31.9933 123.188 32.62C122.615 33.2467 122.328 34.0533 122.328 35.04C122.328 36.04 122.615 36.8533 123.188 37.48C123.775 38.0933 124.521 38.4 125.428 38.4ZM133.001 44.4V30.08H134.901L135.121 31.62C135.441 31.1533 135.881 30.74 136.441 30.38C137.001 30.02 137.721 29.84 138.601 29.84C139.561 29.84 140.408 30.0667 141.141 30.52C141.874 30.9733 142.448 31.5933 142.861 32.38C143.288 33.1667 143.501 34.06 143.501 35.06C143.501 36.06 143.288 36.9533 142.861 37.74C142.448 38.5133 141.874 39.1267 141.141 39.58C140.408 40.02 139.554 40.24 138.581 40.24C137.808 40.24 137.121 40.0867 136.521 39.78C135.934 39.4733 135.468 39.04 135.121 38.48V44.4H133.001ZM138.221 38.4C139.128 38.4 139.874 38.0933 140.461 37.48C141.048 36.8533 141.341 36.04 141.341 35.04C141.341 34.3867 141.208 33.8067 140.941 33.3C140.674 32.7933 140.308 32.4 139.841 32.12C139.374 31.8267 138.834 31.68 138.221 31.68C137.314 31.68 136.568 31.9933 135.981 32.62C135.408 33.2467 135.121 34.0533 135.121 35.04C135.121 36.04 135.408 36.8533 135.981 37.48C136.568 38.0933 137.314 38.4 138.221 38.4ZM150.434 40.24C149.487 40.24 148.634 40.0267 147.874 39.6C147.127 39.16 146.534 38.5533 146.094 37.78C145.654 36.9933 145.434 36.08 145.434 35.04C145.434 34 145.654 33.0933 146.094 32.32C146.547 31.5333 147.154 30.9267 147.914 30.5C148.674 30.06 149.521 29.84 150.454 29.84C151.401 29.84 152.247 30.06 152.994 30.5C153.754 30.9267 154.354 31.5333 154.794 32.32C155.247 33.0933 155.474 34 155.474 35.04C155.474 36.08 155.247 36.9933 154.794 37.78C154.354 38.5533 153.754 39.16 152.994 39.6C152.234 40.0267 151.381 40.24 150.434 40.24ZM150.434 38.42C150.941 38.42 151.407 38.2933 151.834 38.04C152.274 37.7867 152.627 37.4133 152.894 36.92C153.161 36.4133 153.294 35.7867 153.294 35.04C153.294 34.2933 153.161 33.6733 152.894 33.18C152.641 32.6733 152.294 32.2933 151.854 32.04C151.427 31.7867 150.961 31.66 150.454 31.66C149.947 31.66 149.474 31.7867 149.034 32.04C148.607 32.2933 148.261 32.6733 147.994 33.18C147.727 33.6733 147.594 34.2933 147.594 35.04C147.594 35.7867 147.727 36.4133 147.994 36.92C148.261 37.4133 148.607 37.7867 149.034 38.04C149.461 38.2933 149.927 38.42 150.434 38.42ZM157.767 40V30.08H159.667L159.847 31.96C160.193 31.3067 160.673 30.7933 161.287 30.42C161.913 30.0333 162.667 29.84 163.547 29.84V32.06H162.967C162.38 32.06 161.853 32.16 161.387 32.36C160.933 32.5467 160.567 32.8733 160.287 33.34C160.02 33.7933 159.887 34.4267 159.887 35.24V40H157.767ZM169.524 40C168.551 40 167.778 39.7667 167.204 39.3C166.631 38.82 166.344 37.9733 166.344 36.76V31.86H164.644V30.08H166.344L166.604 27.56H168.464V30.08H171.264V31.86H168.464V36.76C168.464 37.3067 168.578 37.6867 168.804 37.9C169.044 38.1 169.451 38.2 170.024 38.2H171.164V40H169.524ZM180.469 40L177.549 30.08H179.669L181.589 37.56L183.749 30.08H186.109L188.269 37.56L190.189 30.08H192.309L189.389 40H187.209L184.929 32.2L182.649 40H180.469ZM195.256 28.2C194.856 28.2 194.522 28.08 194.256 27.84C194.002 27.5867 193.876 27.2733 193.876 26.9C193.876 26.5267 194.002 26.22 194.256 25.98C194.522 25.7267 194.856 25.6 195.256 25.6C195.656 25.6 195.982 25.7267 196.236 25.98C196.502 26.22 196.636 26.5267 196.636 26.9C196.636 27.2733 196.502 27.5867 196.236 27.84C195.982 28.08 195.656 28.2 195.256 28.2ZM194.196 40V30.08H196.316V40H194.196ZM203.274 40C202.301 40 201.528 39.7667 200.954 39.3C200.381 38.82 200.094 37.9733 200.094 36.76V31.86H198.394V30.08H200.094L200.354 27.56H202.214V30.08H205.014V31.86H202.214V36.76C202.214 37.3067 202.328 37.6867 202.554 37.9C202.794 38.1 203.201 38.2 203.774 38.2H204.914V40H203.274ZM207.2 40V25.6H209.32V31.68C209.654 31.1067 210.114 30.66 210.7 30.34C211.3 30.0067 211.96 29.84 212.68 29.84C213.867 29.84 214.8 30.2133 215.48 30.96C216.16 31.7067 216.5 32.82 216.5 34.3V40H214.4V34.52C214.4 32.6 213.634 31.64 212.1 31.64C211.3 31.64 210.634 31.92 210.1 32.48C209.58 33.04 209.32 33.84 209.32 34.88V40H207.2ZM228.736 40.24C227.71 40.24 226.81 40.06 226.036 39.7C225.263 39.34 224.656 38.8267 224.216 38.16C223.79 37.4933 223.57 36.7 223.556 35.78H225.796C225.81 36.5267 226.07 37.16 226.576 37.68C227.083 38.2 227.796 38.46 228.716 38.46C229.53 38.46 230.163 38.2667 230.616 37.88C231.083 37.48 231.316 36.9733 231.316 36.36C231.316 35.8667 231.203 35.4667 230.976 35.16C230.763 34.8533 230.463 34.6 230.076 34.4C229.703 34.2 229.27 34.02 228.776 33.86C228.283 33.7 227.763 33.5267 227.216 33.34C226.136 32.98 225.323 32.5133 224.776 31.94C224.243 31.3667 223.976 30.6133 223.976 29.68C223.963 28.8933 224.143 28.2067 224.516 27.62C224.903 27.0333 225.436 26.58 226.116 26.26C226.81 25.9267 227.616 25.76 228.536 25.76C229.443 25.76 230.236 25.9267 230.916 26.26C231.61 26.5933 232.15 27.06 232.536 27.66C232.923 28.2467 233.123 28.9333 233.136 29.72H230.896C230.896 29.36 230.803 29.02 230.616 28.7C230.43 28.3667 230.156 28.0933 229.796 27.88C229.436 27.6667 228.996 27.56 228.476 27.56C227.81 27.5467 227.256 27.7133 226.816 28.06C226.39 28.4067 226.176 28.8867 226.176 29.5C226.176 30.0467 226.336 30.4667 226.656 30.76C226.976 31.0533 227.416 31.3 227.976 31.5C228.536 31.6867 229.176 31.9067 229.896 32.16C230.59 32.3867 231.21 32.66 231.756 32.98C232.303 33.3 232.736 33.72 233.056 34.24C233.39 34.76 233.556 35.42 233.556 36.22C233.556 36.9267 233.376 37.5867 233.016 38.2C232.656 38.8 232.116 39.2933 231.396 39.68C230.676 40.0533 229.79 40.24 228.736 40.24ZM239.454 40.24C238.254 40.24 237.307 39.8667 236.614 39.12C235.934 38.3733 235.594 37.26 235.594 35.78V30.08H237.714V35.56C237.714 37.48 238.501 38.44 240.074 38.44C240.861 38.44 241.507 38.16 242.014 37.6C242.521 37.04 242.774 36.24 242.774 35.2V30.08H244.894V40H243.014L242.854 38.26C242.547 38.8733 242.094 39.36 241.494 39.72C240.907 40.0667 240.227 40.24 239.454 40.24ZM253.171 40.24C252.398 40.24 251.711 40.0867 251.111 39.78C250.524 39.4733 250.058 39.04 249.711 38.48L249.491 40H247.591V25.6H249.711V31.62C250.031 31.1533 250.471 30.74 251.031 30.38C251.591 30.02 252.311 29.84 253.191 29.84C254.151 29.84 254.998 30.0667 255.731 30.52C256.464 30.9733 257.038 31.5933 257.451 32.38C257.878 33.1667 258.091 34.06 258.091 35.06C258.091 36.06 257.878 36.9533 257.451 37.74C257.038 38.5133 256.464 39.1267 255.731 39.58C254.998 40.02 254.144 40.24 253.171 40.24ZM252.811 38.4C253.718 38.4 254.464 38.0933 255.051 37.48C255.638 36.8533 255.931 36.04 255.931 35.04C255.931 34.3867 255.798 33.8067 255.531 33.3C255.264 32.7933 254.898 32.4 254.431 32.12C253.964 31.8267 253.424 31.68 252.811 31.68C251.904 31.68 251.158 31.9933 250.571 32.62C249.998 33.2467 249.711 34.0533 249.711 35.04C249.711 36.04 249.998 36.8533 250.571 37.48C251.158 38.0933 251.904 38.4 252.811 38.4ZM260.384 40V25.6H262.504V40H260.384ZM269.829 40.24C268.855 40.24 267.989 40.0267 267.229 39.6C266.482 39.16 265.895 38.5533 265.469 37.78C265.042 37.0067 264.829 36.1067 264.829 35.08C264.829 34.04 265.035 33.1267 265.449 32.34C265.875 31.5533 266.462 30.94 267.209 30.5C267.969 30.06 268.849 29.84 269.849 29.84C270.822 29.84 271.669 30.06 272.389 30.5C273.109 30.9267 273.669 31.5 274.069 32.22C274.469 32.94 274.669 33.7333 274.669 34.6C274.669 34.7333 274.662 34.88 274.649 35.04C274.649 35.1867 274.642 35.3533 274.629 35.54H266.909C266.975 36.5 267.289 37.2333 267.849 37.74C268.422 38.2333 269.082 38.48 269.829 38.48C270.429 38.48 270.929 38.3467 271.329 38.08C271.742 37.8 272.049 37.4267 272.249 36.96H274.369C274.102 37.8933 273.569 38.6733 272.769 39.3C271.982 39.9267 271.002 40.24 269.829 40.24ZM269.829 31.58C269.122 31.58 268.495 31.7933 267.949 32.22C267.402 32.6333 267.069 33.26 266.949 34.1H272.549C272.509 33.3267 272.235 32.7133 271.729 32.26C271.222 31.8067 270.589 31.58 269.829 31.58ZM280.828 40.24C279.575 40.24 278.542 39.9333 277.728 39.32C276.915 38.7067 276.448 37.8933 276.328 36.88H278.468C278.575 37.3333 278.828 37.7267 279.228 38.06C279.628 38.38 280.155 38.54 280.808 38.54C281.448 38.54 281.915 38.4067 282.208 38.14C282.502 37.8733 282.648 37.5667 282.648 37.22C282.648 36.7133 282.442 36.3733 282.028 36.2C281.628 36.0133 281.068 35.8467 280.348 35.7C279.788 35.58 279.228 35.42 278.668 35.22C278.122 35.02 277.662 34.74 277.288 34.38C276.928 34.0067 276.748 33.5067 276.748 32.88C276.748 32.0133 277.082 31.2933 277.748 30.72C278.415 30.1333 279.348 29.84 280.548 29.84C281.655 29.84 282.548 30.1067 283.228 30.64C283.922 31.1733 284.328 31.9267 284.448 32.9H282.408C282.342 32.4733 282.142 32.14 281.808 31.9C281.488 31.66 281.055 31.54 280.508 31.54C279.975 31.54 279.562 31.6533 279.268 31.88C278.975 32.0933 278.828 32.3733 278.828 32.72C278.828 33.0667 279.028 33.34 279.428 33.54C279.842 33.74 280.382 33.92 281.048 34.08C281.715 34.2267 282.328 34.4 282.888 34.6C283.462 34.7867 283.922 35.0667 284.268 35.44C284.615 35.8133 284.788 36.36 284.788 37.08C284.802 37.9867 284.448 38.74 283.728 39.34C283.022 39.94 282.055 40.24 280.828 40.24ZM291.063 40.24C289.809 40.24 288.776 39.9333 287.963 39.32C287.149 38.7067 286.683 37.8933 286.563 36.88H288.703C288.809 37.3333 289.063 37.7267 289.463 38.06C289.863 38.38 290.389 38.54 291.043 38.54C291.683 38.54 292.149 38.4067 292.443 38.14C292.736 37.8733 292.883 37.5667 292.883 37.22C292.883 36.7133 292.676 36.3733 292.263 36.2C291.863 36.0133 291.303 35.8467 290.583 35.7C290.023 35.58 289.463 35.42 288.903 35.22C288.356 35.02 287.896 34.74 287.523 34.38C287.163 34.0067 286.983 33.5067 286.983 32.88C286.983 32.0133 287.316 31.2933 287.983 30.72C288.649 30.1333 289.583 29.84 290.783 29.84C291.889 29.84 292.783 30.1067 293.463 30.64C294.156 31.1733 294.563 31.9267 294.683 32.9H292.643C292.576 32.4733 292.376 32.14 292.043 31.9C291.723 31.66 291.289 31.54 290.743 31.54C290.209 31.54 289.796 31.6533 289.503 31.88C289.209 32.0933 289.063 32.3733 289.063 32.72C289.063 33.0667 289.263 33.34 289.663 33.54C290.076 33.74 290.616 33.92 291.283 34.08C291.949 34.2267 292.563 34.4 293.123 34.6C293.696 34.7867 294.156 35.0667 294.503 35.44C294.849 35.8133 295.023 36.36 295.023 37.08C295.036 37.9867 294.683 38.74 293.963 39.34C293.256 39.94 292.289 40.24 291.063 40.24Z" fill="white"/>
</g>
<defs>
<filter id="filter0_dd_469_1540" x="0" y="3" width="351" height="62" filterUnits="userSpaceOnUse" color-interpolation-filters="sRGB">
<feFlood flood-opacity="0" result="BackgroundImageFix"/>
<feColorMatrix in="SourceAlpha" type="matrix" values="0 0 0 0 0 0 0 0 0 0 0 0 0 0 0 0 0 0 127 0" result="hardAlpha"/>
<feOffset dy="2"/>
<feGaussianBlur stdDeviation="1.5"/>
<feColorMatrix type="matrix" values="0 0 0 0 0 0 0 0 0 0 0 0 0 0 0 0 0 0 0.168 0"/>
<feBlend mode="normal" in2="BackgroundImageFix" result="effect1_dropShadow_469_1540"/>
<feColorMatrix in="SourceAlpha" type="matrix" values="0 0 0 0 0 0 0 0 0 0 0 0 0 0 0 0 0 0 127 0" result="hardAlpha"/>
<feOffset/>
<feGaussianBlur stdDeviation="1.5"/>
<feColorMatrix type="matrix" values="0 0 0 0 0 0 0 0 0 0 0 0 0 0 0 0 0 0 0.084 0"/>
<feBlend mode="normal" in2="effect1_dropShadow_469_1540" result="effect2_dropShadow_469_1540"/>
<feBlend mode="normal" in="SourceGraphic" in2="effect2_dropShadow_469_1540" result="shape"/>
</filter>
<filter id="filter1_ddd_469_1540" x="31.0466" y="0.740505" width="73.5025" height="73.0943" filterUnits="userSpaceOnUse" color-interpolation-filters="sRGB">
<feFlood flood-opacity="0" result="BackgroundImageFix"/>
<feColorMatrix in="SourceAlpha" type="matrix" values="0 0 0 0 0 0 0 0 0 0 0 0 0 0 0 0 0 0 127 0" result="hardAlpha"/>
<feOffset dy="0.384886"/>
<feGaussianBlur stdDeviation="0.812536"/>
<feColorMatrix type="matrix" values="0 0 0 0 0 0 0 0 0 0 0 0 0 0 0 0 0 0 0.08 0"/>
<feBlend mode="normal" in2="BackgroundImageFix" result="effect1_dropShadow_469_1540"/>
<feColorMatrix in="SourceAlpha" type="matrix" values="0 0 0 0 0 0 0 0 0 0 0 0 0 0 0 0 0 0 127 0" result="hardAlpha"/>
<feOffset dy="1.29275"/>
<feGaussianBlur stdDeviation="2.72914"/>
<feColorMatrix type="matrix" values="0 0 0 0 0 0 0 0 0 0 0 0 0 0 0 0 0 0 0.0476886 0"/>
<feBlend mode="normal" in2="effect1_dropShadow_469_1540" result="effect2_dropShadow_469_1540"/>
<feColorMatrix in="SourceAlpha" type="matrix" values="0 0 0 0 0 0 0 0 0 0 0 0 0 0 0 0 0 0 127 0" result="hardAlpha"/>
<feOffset dy="5.78766"/>
<feGaussianBlur stdDeviation="12.2184"/>
<feColorMatrix type="matrix" values="0 0 0 0 0 0 0 0 0 0 0 0 0 0 0 0 0 0 0.0323114 0"/>
<feBlend mode="normal" in2="effect2_dropShadow_469_1540" result="effect3_dropShadow_469_1540"/>
<feBlend mode="normal" in="SourceGraphic" in2="effect3_dropShadow_469_1540" result="shape"/>
</filter>
</defs>
</svg>
