<svg width="351" height="62" viewBox="0 0 351 62" fill="none" xmlns="http://www.w3.org/2000/svg">
<g filter="url(#filter0_dd_469_1550)">
<rect x="3" y="3" width="345" height="54" rx="5" fill="white"/>
<rect x="40.5" y="3" width="271" height="54" rx="5" fill="white"/>
<path d="M63.1455 37.7881C63.1455 39.4449 64.4887 40.7881 66.1455 40.7881H73.4597C76.4435 40.7881 78.8623 38.3692 78.8623 35.3854V32.9297H64.8977C63.93 32.9297 63.1455 33.7142 63.1455 34.6819V37.7881Z" fill="#3A0CA3"/>
<path d="M55.9248 24.8584H73.6726C76.6564 24.8584 79.0752 27.2772 79.0752 30.2611V32.7168H61.3275C58.3437 32.7168 55.9248 30.298 55.9248 27.3142V24.8584Z" fill="#40A3FE"/>
<path d="M71.8545 20.5044C71.8545 18.569 70.2855 17 68.3501 17H61.5403C58.5565 17 56.1377 19.4189 56.1377 22.4027V24.8584H70.1023C71.07 24.8584 71.8545 24.0739 71.8545 23.1062V20.5044Z" fill="#F51D80"/>
<path d="M73.0961 24.7883L73.092 24.0383L73.0961 24.7883ZM61.8717 17.75H69.0929V16.25H61.8717V17.75ZM56.25 25.6515V23.3717H54.75V25.6515H56.25ZM69.0929 17.75C69.8517 17.75 70.4668 18.3651 70.4668 19.1239H71.9668C71.9668 17.5367 70.6801 16.25 69.0929 16.25V17.75ZM61.8717 16.25C57.9385 16.25 54.75 19.4385 54.75 23.3717H56.25C56.25 20.2669 58.7669 17.75 61.8717 17.75V16.25ZM73.1283 40.25H65.0575V41.75H73.1283V40.25ZM63.6836 38.8761V32.823H62.1836V38.8761H63.6836ZM65.0575 40.25C64.2987 40.25 63.6836 39.6349 63.6836 38.8761H62.1836C62.1836 40.4633 63.4703 41.75 65.0575 41.75V40.25ZM73.1283 41.75C77.0101 41.75 80.25 38.9298 80.25 34.9469H78.75C78.75 38.002 76.2845 40.25 73.1283 40.25V41.75ZM58.3174 24.1084C57.2538 24.1084 56.7407 23.7921 56.5003 23.5673C56.3726 23.4479 56.2997 23.3337 56.2607 23.2586C56.2411 23.2208 56.2303 23.1933 56.2257 23.1805C56.2234 23.1742 56.2227 23.1717 56.2233 23.1737C56.2236 23.1747 56.2242 23.1769 56.2251 23.1803C56.2256 23.1819 56.2261 23.1839 56.2267 23.1862C56.227 23.1874 56.2273 23.1886 56.2276 23.1899C56.2278 23.1906 56.228 23.1913 56.2282 23.192C56.2282 23.1923 56.2284 23.1929 56.2284 23.193C56.2285 23.1936 56.2287 23.1941 55.5 23.3717C54.7713 23.5492 54.7715 23.5498 54.7716 23.5504C54.7716 23.5505 54.7718 23.5511 54.7719 23.5515C54.7721 23.5523 54.7723 23.5531 54.7725 23.554C54.7729 23.5556 54.7734 23.5574 54.7738 23.5593C54.7748 23.563 54.7759 23.5671 54.7771 23.5716C54.7795 23.5806 54.7825 23.5911 54.786 23.603C54.7931 23.6268 54.8026 23.6563 54.8151 23.6906C54.8398 23.7592 54.8765 23.8477 54.9292 23.9494C55.0349 24.153 55.2059 24.4105 55.4757 24.6628C56.0302 25.1813 56.9259 25.6084 58.3174 25.6084V24.1084ZM61.643 33.573H75.5348V32.073H61.643V33.573ZM75.5348 33.573C77.2258 33.573 78.0194 33.8181 78.3829 34.0683C78.6577 34.2574 78.75 34.4929 78.75 34.9469H80.25C80.25 34.2423 80.0806 33.4158 79.2333 32.8326C78.4746 32.3105 77.2856 32.073 75.5348 32.073V33.573ZM54.75 23.3717V26.4194H56.25V23.3717H54.75ZM73.1001 25.5383C76.2168 25.5214 78.75 28.0431 78.75 31.1607H80.25C80.25 27.2124 77.0412 24.017 73.092 24.0383L73.1001 25.5383ZM61.643 32.073C58.7035 32.073 56.25 29.4394 56.25 26.4194H54.75C54.75 30.1862 57.7957 33.573 61.643 33.573V32.073ZM80.25 34.9469V31.1607H78.75V34.9469H80.25ZM73.092 24.0383C72.5397 24.0413 71.795 24.0441 71.2128 24.0473L71.2208 25.5472C71.7757 25.5443 72.5717 25.5411 73.1001 25.5383L73.092 24.0383ZM71.2128 24.0473C65.8135 24.0761 59.6749 24.1084 58.3174 24.1084V25.6084C59.6802 25.6084 65.8252 25.5761 71.2208 25.5472L71.2128 24.0473ZM70.4668 19.1239V24.7972H71.9668V19.1239H70.4668Z" fill="black"/>
<path d="M100.54 37.24C99.5133 37.24 98.6133 37.06 97.84 36.7C97.0667 36.34 96.46 35.8267 96.02 35.16C95.5933 34.4933 95.3733 33.7 95.36 32.78H97.6C97.6133 33.5267 97.8733 34.16 98.38 34.68C98.8867 35.2 99.6 35.46 100.52 35.46C101.333 35.46 101.967 35.2667 102.42 34.88C102.887 34.48 103.12 33.9733 103.12 33.36C103.12 32.8667 103.007 32.4667 102.78 32.16C102.567 31.8533 102.267 31.6 101.88 31.4C101.507 31.2 101.073 31.02 100.58 30.86C100.087 30.7 99.5667 30.5267 99.02 30.34C97.94 29.98 97.1267 29.5133 96.58 28.94C96.0467 28.3667 95.78 27.6133 95.78 26.68C95.7667 25.8933 95.9467 25.2067 96.32 24.62C96.7067 24.0333 97.24 23.58 97.92 23.26C98.6133 22.9267 99.42 22.76 100.34 22.76C101.247 22.76 102.04 22.9267 102.72 23.26C103.413 23.5933 103.953 24.06 104.34 24.66C104.727 25.2467 104.927 25.9333 104.94 26.72H102.7C102.7 26.36 102.607 26.02 102.42 25.7C102.233 25.3667 101.96 25.0933 101.6 24.88C101.24 24.6667 100.8 24.56 100.28 24.56C99.6133 24.5467 99.06 24.7133 98.62 25.06C98.1933 25.4067 97.98 25.8867 97.98 26.5C97.98 27.0467 98.14 27.4667 98.46 27.76C98.78 28.0533 99.22 28.3 99.78 28.5C100.34 28.6867 100.98 28.9067 101.7 29.16C102.393 29.3867 103.013 29.66 103.56 29.98C104.107 30.3 104.54 30.72 104.86 31.24C105.193 31.76 105.36 32.42 105.36 33.22C105.36 33.9267 105.18 34.5867 104.82 35.2C104.46 35.8 103.92 36.2933 103.2 36.68C102.48 37.0533 101.593 37.24 100.54 37.24ZM111.258 37.24C110.058 37.24 109.111 36.8667 108.418 36.12C107.738 35.3733 107.398 34.26 107.398 32.78V27.08H109.518V32.56C109.518 34.48 110.304 35.44 111.878 35.44C112.664 35.44 113.311 35.16 113.818 34.6C114.324 34.04 114.578 33.24 114.578 32.2V27.08H116.698V37H114.818L114.658 35.26C114.351 35.8733 113.898 36.36 113.298 36.72C112.711 37.0667 112.031 37.24 111.258 37.24ZM119.395 41.4V27.08H121.295L121.515 28.62C121.835 28.1533 122.275 27.74 122.835 27.38C123.395 27.02 124.115 26.84 124.995 26.84C125.955 26.84 126.801 27.0667 127.535 27.52C128.268 27.9733 128.841 28.5933 129.255 29.38C129.681 30.1667 129.895 31.06 129.895 32.06C129.895 33.06 129.681 33.9533 129.255 34.74C128.841 35.5133 128.268 36.1267 127.535 36.58C126.801 37.02 125.948 37.24 124.975 37.24C124.201 37.24 123.515 37.0867 122.915 36.78C122.328 36.4733 121.861 36.04 121.515 35.48V41.4H119.395ZM124.615 35.4C125.521 35.4 126.268 35.0933 126.855 34.48C127.441 33.8533 127.735 33.04 127.735 32.04C127.735 31.3867 127.601 30.8067 127.335 30.3C127.068 29.7933 126.701 29.4 126.235 29.12C125.768 28.8267 125.228 28.68 124.615 28.68C123.708 28.68 122.961 28.9933 122.375 29.62C121.801 30.2467 121.515 31.0533 121.515 32.04C121.515 33.04 121.801 33.8533 122.375 34.48C122.961 35.0933 123.708 35.4 124.615 35.4ZM132.188 41.4V27.08H134.088L134.308 28.62C134.628 28.1533 135.068 27.74 135.628 27.38C136.188 27.02 136.908 26.84 137.788 26.84C138.748 26.84 139.594 27.0667 140.328 27.52C141.061 27.9733 141.634 28.5933 142.048 29.38C142.474 30.1667 142.688 31.06 142.688 32.06C142.688 33.06 142.474 33.9533 142.048 34.74C141.634 35.5133 141.061 36.1267 140.328 36.58C139.594 37.02 138.741 37.24 137.768 37.24C136.994 37.24 136.308 37.0867 135.708 36.78C135.121 36.4733 134.654 36.04 134.308 35.48V41.4H132.188ZM137.408 35.4C138.314 35.4 139.061 35.0933 139.648 34.48C140.234 33.8533 140.528 33.04 140.528 32.04C140.528 31.3867 140.394 30.8067 140.128 30.3C139.861 29.7933 139.494 29.4 139.028 29.12C138.561 28.8267 138.021 28.68 137.408 28.68C136.501 28.68 135.754 28.9933 135.168 29.62C134.594 30.2467 134.308 31.0533 134.308 32.04C134.308 33.04 134.594 33.8533 135.168 34.48C135.754 35.0933 136.501 35.4 137.408 35.4ZM149.621 37.24C148.674 37.24 147.821 37.0267 147.061 36.6C146.314 36.16 145.721 35.5533 145.281 34.78C144.841 33.9933 144.621 33.08 144.621 32.04C144.621 31 144.841 30.0933 145.281 29.32C145.734 28.5333 146.341 27.9267 147.101 27.5C147.861 27.06 148.707 26.84 149.641 26.84C150.587 26.84 151.434 27.06 152.181 27.5C152.941 27.9267 153.541 28.5333 153.981 29.32C154.434 30.0933 154.661 31 154.661 32.04C154.661 33.08 154.434 33.9933 153.981 34.78C153.541 35.5533 152.941 36.16 152.181 36.6C151.421 37.0267 150.567 37.24 149.621 37.24ZM149.621 35.42C150.127 35.42 150.594 35.2933 151.021 35.04C151.461 34.7867 151.814 34.4133 152.081 33.92C152.347 33.4133 152.481 32.7867 152.481 32.04C152.481 31.2933 152.347 30.6733 152.081 30.18C151.827 29.6733 151.481 29.2933 151.041 29.04C150.614 28.7867 150.147 28.66 149.641 28.66C149.134 28.66 148.661 28.7867 148.221 29.04C147.794 29.2933 147.447 29.6733 147.181 30.18C146.914 30.6733 146.781 31.2933 146.781 32.04C146.781 32.7867 146.914 33.4133 147.181 33.92C147.447 34.4133 147.794 34.7867 148.221 35.04C148.647 35.2933 149.114 35.42 149.621 35.42ZM156.953 37V27.08H158.853L159.033 28.96C159.38 28.3067 159.86 27.7933 160.473 27.42C161.1 27.0333 161.853 26.84 162.733 26.84V29.06H162.153C161.567 29.06 161.04 29.16 160.573 29.36C160.12 29.5467 159.753 29.8733 159.473 30.34C159.207 30.7933 159.073 31.4267 159.073 32.24V37H156.953ZM168.711 37C167.738 37 166.964 36.7667 166.391 36.3C165.818 35.82 165.531 34.9733 165.531 33.76V28.86H163.831V27.08H165.531L165.791 24.56H167.651V27.08H170.451V28.86H167.651V33.76C167.651 34.3067 167.764 34.6867 167.991 34.9C168.231 35.1 168.638 35.2 169.211 35.2H170.351V37H168.711ZM179.656 37L176.736 27.08H178.856L180.776 34.56L182.936 27.08H185.296L187.456 34.56L189.376 27.08H191.496L188.576 37H186.396L184.116 29.2L181.836 37H179.656ZM194.442 25.2C194.042 25.2 193.709 25.08 193.442 24.84C193.189 24.5867 193.062 24.2733 193.062 23.9C193.062 23.5267 193.189 23.22 193.442 22.98C193.709 22.7267 194.042 22.6 194.442 22.6C194.842 22.6 195.169 22.7267 195.422 22.98C195.689 23.22 195.822 23.5267 195.822 23.9C195.822 24.2733 195.689 24.5867 195.422 24.84C195.169 25.08 194.842 25.2 194.442 25.2ZM193.382 37V27.08H195.502V37H193.382ZM202.461 37C201.488 37 200.714 36.7667 200.141 36.3C199.568 35.82 199.281 34.9733 199.281 33.76V28.86H197.581V27.08H199.281L199.541 24.56H201.401V27.08H204.201V28.86H201.401V33.76C201.401 34.3067 201.514 34.6867 201.741 34.9C201.981 35.1 202.388 35.2 202.961 35.2H204.101V37H202.461ZM206.387 37V22.6H208.507V28.68C208.84 28.1067 209.3 27.66 209.887 27.34C210.487 27.0067 211.147 26.84 211.867 26.84C213.054 26.84 213.987 27.2133 214.667 27.96C215.347 28.7067 215.687 29.82 215.687 31.3V37H213.587V31.52C213.587 29.6 212.82 28.64 211.287 28.64C210.487 28.64 209.82 28.92 209.287 29.48C208.767 30.04 208.507 30.84 208.507 31.88V37H206.387ZM227.283 37.24C226.403 37.24 225.629 37.1 224.963 36.82C224.296 36.5267 223.763 36.1267 223.363 35.62C222.963 35.1133 222.723 34.5267 222.643 33.86H225.223C225.303 34.2467 225.516 34.58 225.863 34.86C226.223 35.1267 226.683 35.26 227.243 35.26C227.803 35.26 228.209 35.1467 228.463 34.92C228.729 34.6933 228.863 34.4333 228.863 34.14C228.863 33.7133 228.676 33.4267 228.303 33.28C227.929 33.12 227.409 32.9667 226.743 32.82C226.316 32.7267 225.883 32.6133 225.443 32.48C225.003 32.3467 224.596 32.18 224.223 31.98C223.863 31.7667 223.569 31.5 223.343 31.18C223.116 30.8467 223.003 30.44 223.003 29.96C223.003 29.08 223.349 28.34 224.043 27.74C224.749 27.14 225.736 26.84 227.003 26.84C228.176 26.84 229.109 27.1133 229.803 27.66C230.509 28.2067 230.929 28.96 231.063 29.92H228.643C228.496 29.1867 227.943 28.82 226.983 28.82C226.503 28.82 226.129 28.9133 225.863 29.1C225.609 29.2867 225.483 29.52 225.483 29.8C225.483 30.0933 225.676 30.3267 226.063 30.5C226.449 30.6733 226.963 30.8333 227.603 30.98C228.296 31.14 228.929 31.32 229.503 31.52C230.089 31.7067 230.556 31.9933 230.903 32.38C231.249 32.7533 231.423 33.2933 231.423 34C231.436 34.6133 231.276 35.1667 230.943 35.66C230.609 36.1533 230.129 36.54 229.503 36.82C228.876 37.1 228.136 37.24 227.283 37.24ZM237.411 37.24C236.171 37.24 235.211 36.8533 234.531 36.08C233.864 35.3067 233.531 34.1733 233.531 32.68V27.08H236.071V32.44C236.071 33.2933 236.244 33.9467 236.591 34.4C236.937 34.8533 237.484 35.08 238.231 35.08C238.937 35.08 239.517 34.8267 239.971 34.32C240.437 33.8133 240.671 33.1067 240.671 32.2V27.08H243.231V37H240.971L240.771 35.32C240.464 35.9067 240.017 36.3733 239.431 36.72C238.857 37.0667 238.184 37.24 237.411 37.24ZM251.739 37.24C250.992 37.24 250.339 37.1 249.779 36.82C249.219 36.54 248.765 36.1467 248.419 35.64L248.139 37H245.859V22.6H248.419V28.5C248.739 28.06 249.159 27.6733 249.679 27.34C250.212 27.0067 250.899 26.84 251.739 26.84C252.672 26.84 253.505 27.0667 254.239 27.52C254.972 27.9733 255.552 28.5933 255.979 29.38C256.405 30.1667 256.619 31.06 256.619 32.06C256.619 33.06 256.405 33.9533 255.979 34.74C255.552 35.5133 254.972 36.1267 254.239 36.58C253.505 37.02 252.672 37.24 251.739 37.24ZM251.199 35C252.012 35 252.685 34.7267 253.219 34.18C253.752 33.6333 254.019 32.9267 254.019 32.06C254.019 31.1933 253.752 30.48 253.219 29.92C252.685 29.36 252.012 29.08 251.199 29.08C250.372 29.08 249.692 29.36 249.159 29.92C248.639 30.4667 248.379 31.1733 248.379 32.04C248.379 32.9067 248.639 33.62 249.159 34.18C249.692 34.7267 250.372 35 251.199 35ZM258.905 37V22.6H261.465V37H258.905ZM268.901 37.24C267.901 37.24 267.015 37.0267 266.241 36.6C265.468 36.1733 264.861 35.5733 264.421 34.8C263.981 34.0267 263.761 33.1333 263.761 32.12C263.761 31.0933 263.975 30.18 264.401 29.38C264.841 28.58 265.441 27.96 266.201 27.52C266.975 27.0667 267.881 26.84 268.921 26.84C269.895 26.84 270.755 27.0533 271.501 27.48C272.248 27.9067 272.828 28.4933 273.241 29.24C273.668 29.9733 273.881 30.7933 273.881 31.7C273.881 31.8467 273.875 32 273.861 32.16C273.861 32.32 273.855 32.4867 273.841 32.66H266.301C266.355 33.4333 266.621 34.04 267.101 34.48C267.595 34.92 268.188 35.14 268.881 35.14C269.401 35.14 269.835 35.0267 270.181 34.8C270.541 34.56 270.808 34.2533 270.981 33.88H273.581C273.395 34.5067 273.081 35.08 272.641 35.6C272.215 36.1067 271.681 36.5067 271.041 36.8C270.415 37.0933 269.701 37.24 268.901 37.24ZM268.921 28.92C268.295 28.92 267.741 29.1 267.261 29.46C266.781 29.8067 266.475 30.34 266.341 31.06H271.281C271.241 30.4067 271.001 29.8867 270.561 29.5C270.121 29.1133 269.575 28.92 268.921 28.92ZM280.134 37.24C279.254 37.24 278.481 37.1 277.814 36.82C277.148 36.5267 276.614 36.1267 276.214 35.62C275.814 35.1133 275.574 34.5267 275.494 33.86H278.074C278.154 34.2467 278.368 34.58 278.714 34.86C279.074 35.1267 279.534 35.26 280.094 35.26C280.654 35.26 281.061 35.1467 281.314 34.92C281.581 34.6933 281.714 34.4333 281.714 34.14C281.714 33.7133 281.528 33.4267 281.154 33.28C280.781 33.12 280.261 32.9667 279.594 32.82C279.168 32.7267 278.734 32.6133 278.294 32.48C277.854 32.3467 277.448 32.18 277.074 31.98C276.714 31.7667 276.421 31.5 276.194 31.18C275.968 30.8467 275.854 30.44 275.854 29.96C275.854 29.08 276.201 28.34 276.894 27.74C277.601 27.14 278.588 26.84 279.854 26.84C281.028 26.84 281.961 27.1133 282.654 27.66C283.361 28.2067 283.781 28.96 283.914 29.92H281.494C281.348 29.1867 280.794 28.82 279.834 28.82C279.354 28.82 278.981 28.9133 278.714 29.1C278.461 29.2867 278.334 29.52 278.334 29.8C278.334 30.0933 278.528 30.3267 278.914 30.5C279.301 30.6733 279.814 30.8333 280.454 30.98C281.148 31.14 281.781 31.32 282.354 31.52C282.941 31.7067 283.408 31.9933 283.754 32.38C284.101 32.7533 284.274 33.2933 284.274 34C284.288 34.6133 284.128 35.1667 283.794 35.66C283.461 36.1533 282.981 36.54 282.354 36.82C281.728 37.1 280.988 37.24 280.134 37.24ZM290.642 37.24C289.762 37.24 288.989 37.1 288.322 36.82C287.656 36.5267 287.122 36.1267 286.722 35.62C286.322 35.1133 286.082 34.5267 286.002 33.86H288.582C288.662 34.2467 288.876 34.58 289.222 34.86C289.582 35.1267 290.042 35.26 290.602 35.26C291.162 35.26 291.569 35.1467 291.822 34.92C292.089 34.6933 292.222 34.4333 292.222 34.14C292.222 33.7133 292.036 33.4267 291.662 33.28C291.289 33.12 290.769 32.9667 290.102 32.82C289.676 32.7267 289.242 32.6133 288.802 32.48C288.362 32.3467 287.956 32.18 287.582 31.98C287.222 31.7667 286.929 31.5 286.702 31.18C286.476 30.8467 286.362 30.44 286.362 29.96C286.362 29.08 286.709 28.34 287.402 27.74C288.109 27.14 289.096 26.84 290.362 26.84C291.536 26.84 292.469 27.1133 293.162 27.66C293.869 28.2067 294.289 28.96 294.422 29.92H292.002C291.856 29.1867 291.302 28.82 290.342 28.82C289.862 28.82 289.489 28.9133 289.222 29.1C288.969 29.2867 288.842 29.52 288.842 29.8C288.842 30.0933 289.036 30.3267 289.422 30.5C289.809 30.6733 290.322 30.8333 290.962 30.98C291.656 31.14 292.289 31.32 292.862 31.52C293.449 31.7067 293.916 31.9933 294.262 32.38C294.609 32.7533 294.782 33.2933 294.782 34C294.796 34.6133 294.636 35.1667 294.302 35.66C293.969 36.1533 293.489 36.54 292.862 36.82C292.236 37.1 291.496 37.24 290.642 37.24Z" fill="black"/>
</g>
<defs>
<filter id="filter0_dd_469_1550" x="0" y="0" width="351" height="62" filterUnits="userSpaceOnUse" color-interpolation-filters="sRGB">
<feFlood flood-opacity="0" result="BackgroundImageFix"/>
<feColorMatrix in="SourceAlpha" type="matrix" values="0 0 0 0 0 0 0 0 0 0 0 0 0 0 0 0 0 0 127 0" result="hardAlpha"/>
<feOffset dy="2"/>
<feGaussianBlur stdDeviation="1.5"/>
<feColorMatrix type="matrix" values="0 0 0 0 0 0 0 0 0 0 0 0 0 0 0 0 0 0 0.168 0"/>
<feBlend mode="normal" in2="BackgroundImageFix" result="effect1_dropShadow_469_1550"/>
<feColorMatrix in="SourceAlpha" type="matrix" values="0 0 0 0 0 0 0 0 0 0 0 0 0 0 0 0 0 0 127 0" result="hardAlpha"/>
<feOffset/>
<feGaussianBlur stdDeviation="1.5"/>
<feColorMatrix type="matrix" values="0 0 0 0 0 0 0 0 0 0 0 0 0 0 0 0 0 0 0.084 0"/>
<feBlend mode="normal" in2="effect1_dropShadow_469_1550" result="effect2_dropShadow_469_1550"/>
<feBlend mode="normal" in="SourceGraphic" in2="effect2_dropShadow_469_1550" result="shape"/>
</filter>
</defs>
</svg>
