<svg width="351" height="62" viewBox="0 0 351 62" fill="none" xmlns="http://www.w3.org/2000/svg">
<g filter="url(#filter0_dd_469_1550)">
<rect x="3" y="3" width="345" height="54" rx="5" fill="white"/>
<rect x="41" y="3" width="270" height="54" rx="5" fill="white"/>
<path d="M63.6455 37.7881C63.6455 39.4449 64.9887 40.7881 66.6455 40.7881H73.9597C76.9435 40.7881 79.3623 38.3692 79.3623 35.3854V32.9297H65.3977C64.43 32.9297 63.6455 33.7142 63.6455 34.6819V37.7881Z" fill="#3A0CA3"/>
<path d="M56.4248 24.8584H74.1726C77.1564 24.8584 79.5752 27.2772 79.5752 30.2611V32.7168H61.8275C58.8437 32.7168 56.4248 30.298 56.4248 27.3142V24.8584Z" fill="#40A3FE"/>
<path d="M72.3545 20.5044C72.3545 18.569 70.7855 17 68.8501 17H62.0403C59.0565 17 56.6377 19.4189 56.6377 22.4027V24.8584H70.6023C71.57 24.8584 72.3545 24.0739 72.3545 23.1062V20.5044Z" fill="#F51D80"/>
<path d="M73.5961 24.7883L73.592 24.0383L73.592 24.0383L73.5961 24.7883ZM62.3717 17.75H69.5929V16.25H62.3717V17.75ZM56.75 25.6515V23.3717H55.25V25.6515H56.75ZM69.5929 17.75C70.3517 17.75 70.9668 18.3651 70.9668 19.1239H72.4668C72.4668 17.5367 71.1801 16.25 69.5929 16.25V17.75ZM62.3717 16.25C58.4385 16.25 55.25 19.4385 55.25 23.3717H56.75C56.75 20.2669 59.2669 17.75 62.3717 17.75V16.25ZM73.6283 40.25H65.5575V41.75H73.6283V40.25ZM64.1836 38.8761V32.823H62.6836V38.8761H64.1836ZM65.5575 40.25C64.7987 40.25 64.1836 39.6349 64.1836 38.8761H62.6836C62.6836 40.4633 63.9703 41.75 65.5575 41.75V40.25ZM73.6283 41.75C77.5101 41.75 80.75 38.9298 80.75 34.9469H79.25C79.25 38.002 76.7845 40.25 73.6283 40.25V41.75ZM58.8174 24.1084C57.7538 24.1084 57.2407 23.7921 57.0003 23.5673C56.8726 23.4479 56.7997 23.3337 56.7607 23.2586C56.7411 23.2208 56.7303 23.1933 56.7257 23.1805C56.7234 23.1742 56.7227 23.1717 56.7233 23.1737C56.7236 23.1747 56.7242 23.1769 56.7251 23.1803C56.7256 23.1819 56.7261 23.1839 56.7267 23.1862C56.727 23.1874 56.7273 23.1886 56.7276 23.1899C56.7278 23.1906 56.728 23.1913 56.7282 23.192C56.7282 23.1923 56.7284 23.1929 56.7284 23.193C56.7285 23.1936 56.7287 23.1941 56 23.3717C55.2713 23.5492 55.2715 23.5498 55.2716 23.5504C55.2716 23.5505 55.2718 23.5511 55.2719 23.5515C55.2721 23.5523 55.2723 23.5531 55.2725 23.554C55.2729 23.5556 55.2734 23.5574 55.2738 23.5593C55.2748 23.563 55.2759 23.5671 55.2771 23.5716C55.2795 23.5806 55.2825 23.5911 55.286 23.603C55.2931 23.6268 55.3026 23.6563 55.3151 23.6906C55.3398 23.7592 55.3765 23.8477 55.4292 23.9494C55.5349 24.153 55.7059 24.4105 55.9757 24.6628C56.5302 25.1813 57.4259 25.6084 58.8174 25.6084V24.1084ZM62.143 33.573H76.0348V32.073H62.143V33.573ZM76.0348 33.573C77.7258 33.573 78.5194 33.8181 78.8829 34.0683C79.1577 34.2574 79.25 34.4929 79.25 34.9469H80.75C80.75 34.2423 80.5806 33.4158 79.7333 32.8326C78.9746 32.3105 77.7856 32.073 76.0348 32.073V33.573ZM55.25 23.3717V26.4194H56.75V23.3717H55.25ZM73.6001 25.5383C76.7168 25.5214 79.25 28.0431 79.25 31.1607H80.75C80.75 27.2124 77.5412 24.017 73.592 24.0383L73.6001 25.5383ZM62.143 32.073C59.2035 32.073 56.75 29.4394 56.75 26.4194H55.25C55.25 30.1862 58.2957 33.573 62.143 33.573V32.073ZM80.75 34.9469V31.1607H79.25V34.9469H80.75ZM73.592 24.0383C73.0397 24.0413 72.295 24.0441 71.7128 24.0473L71.7208 25.5472C72.2757 25.5443 73.0717 25.5411 73.6001 25.5383L73.592 24.0383ZM71.7128 24.0473C66.3135 24.0761 60.1749 24.1084 58.8174 24.1084V25.6084C60.1802 25.6084 66.3252 25.5761 71.7208 25.5472L71.7128 24.0473ZM70.9668 19.1239V24.7972H72.4668V19.1239H70.9668Z" fill="black"/>
<path d="M101.04 37.24C100.013 37.24 99.1133 37.06 98.34 36.7C97.5667 36.34 96.96 35.8267 96.52 35.16C96.0933 34.4933 95.8733 33.7 95.86 32.78H98.1C98.1133 33.5267 98.3733 34.16 98.88 34.68C99.3867 35.2 100.1 35.46 101.02 35.46C101.833 35.46 102.467 35.2667 102.92 34.88C103.387 34.48 103.62 33.9733 103.62 33.36C103.62 32.8667 103.507 32.4667 103.28 32.16C103.067 31.8533 102.767 31.6 102.38 31.4C102.007 31.2 101.573 31.02 101.08 30.86C100.587 30.7 100.067 30.5267 99.52 30.34C98.44 29.98 97.6267 29.5133 97.08 28.94C96.5467 28.3667 96.28 27.6133 96.28 26.68C96.2667 25.8933 96.4467 25.2067 96.82 24.62C97.2067 24.0333 97.74 23.58 98.42 23.26C99.1133 22.9267 99.92 22.76 100.84 22.76C101.747 22.76 102.54 22.9267 103.22 23.26C103.913 23.5933 104.453 24.06 104.84 24.66C105.227 25.2467 105.427 25.9333 105.44 26.72H103.2C103.2 26.36 103.107 26.02 102.92 25.7C102.733 25.3667 102.46 25.0933 102.1 24.88C101.74 24.6667 101.3 24.56 100.78 24.56C100.113 24.5467 99.56 24.7133 99.12 25.06C98.6933 25.4067 98.48 25.8867 98.48 26.5C98.48 27.0467 98.64 27.4667 98.96 27.76C99.28 28.0533 99.72 28.3 100.28 28.5C100.84 28.6867 101.48 28.9067 102.2 29.16C102.893 29.3867 103.513 29.66 104.06 29.98C104.607 30.3 105.04 30.72 105.36 31.24C105.693 31.76 105.86 32.42 105.86 33.22C105.86 33.9267 105.68 34.5867 105.32 35.2C104.96 35.8 104.42 36.2933 103.7 36.68C102.98 37.0533 102.093 37.24 101.04 37.24ZM111.758 37.24C110.558 37.24 109.611 36.8667 108.918 36.12C108.238 35.3733 107.898 34.26 107.898 32.78V27.08H110.018V32.56C110.018 34.48 110.804 35.44 112.378 35.44C113.164 35.44 113.811 35.16 114.318 34.6C114.824 34.04 115.078 33.24 115.078 32.2V27.08H117.198V37H115.318L115.158 35.26C114.851 35.8733 114.398 36.36 113.798 36.72C113.211 37.0667 112.531 37.24 111.758 37.24ZM119.895 41.4V27.08H121.795L122.015 28.62C122.335 28.1533 122.775 27.74 123.335 27.38C123.895 27.02 124.615 26.84 125.495 26.84C126.455 26.84 127.301 27.0667 128.035 27.52C128.768 27.9733 129.341 28.5933 129.755 29.38C130.181 30.1667 130.395 31.06 130.395 32.06C130.395 33.06 130.181 33.9533 129.755 34.74C129.341 35.5133 128.768 36.1267 128.035 36.58C127.301 37.02 126.448 37.24 125.475 37.24C124.701 37.24 124.015 37.0867 123.415 36.78C122.828 36.4733 122.361 36.04 122.015 35.48V41.4H119.895ZM125.115 35.4C126.021 35.4 126.768 35.0933 127.355 34.48C127.941 33.8533 128.235 33.04 128.235 32.04C128.235 31.3867 128.101 30.8067 127.835 30.3C127.568 29.7933 127.201 29.4 126.735 29.12C126.268 28.8267 125.728 28.68 125.115 28.68C124.208 28.68 123.461 28.9933 122.875 29.62C122.301 30.2467 122.015 31.0533 122.015 32.04C122.015 33.04 122.301 33.8533 122.875 34.48C123.461 35.0933 124.208 35.4 125.115 35.4ZM132.688 41.4V27.08H134.588L134.808 28.62C135.128 28.1533 135.568 27.74 136.128 27.38C136.688 27.02 137.408 26.84 138.288 26.84C139.248 26.84 140.094 27.0667 140.828 27.52C141.561 27.9733 142.134 28.5933 142.548 29.38C142.974 30.1667 143.188 31.06 143.188 32.06C143.188 33.06 142.974 33.9533 142.548 34.74C142.134 35.5133 141.561 36.1267 140.828 36.58C140.094 37.02 139.241 37.24 138.268 37.24C137.494 37.24 136.808 37.0867 136.208 36.78C135.621 36.4733 135.154 36.04 134.808 35.48V41.4H132.688ZM137.908 35.4C138.814 35.4 139.561 35.0933 140.148 34.48C140.734 33.8533 141.028 33.04 141.028 32.04C141.028 31.3867 140.894 30.8067 140.628 30.3C140.361 29.7933 139.994 29.4 139.528 29.12C139.061 28.8267 138.521 28.68 137.908 28.68C137.001 28.68 136.254 28.9933 135.668 29.62C135.094 30.2467 134.808 31.0533 134.808 32.04C134.808 33.04 135.094 33.8533 135.668 34.48C136.254 35.0933 137.001 35.4 137.908 35.4ZM150.121 37.24C149.174 37.24 148.321 37.0267 147.561 36.6C146.814 36.16 146.221 35.5533 145.781 34.78C145.341 33.9933 145.121 33.08 145.121 32.04C145.121 31 145.341 30.0933 145.781 29.32C146.234 28.5333 146.841 27.9267 147.601 27.5C148.361 27.06 149.207 26.84 150.141 26.84C151.087 26.84 151.934 27.06 152.681 27.5C153.441 27.9267 154.041 28.5333 154.481 29.32C154.934 30.0933 155.161 31 155.161 32.04C155.161 33.08 154.934 33.9933 154.481 34.78C154.041 35.5533 153.441 36.16 152.681 36.6C151.921 37.0267 151.067 37.24 150.121 37.24ZM150.121 35.42C150.627 35.42 151.094 35.2933 151.521 35.04C151.961 34.7867 152.314 34.4133 152.581 33.92C152.847 33.4133 152.981 32.7867 152.981 32.04C152.981 31.2933 152.847 30.6733 152.581 30.18C152.327 29.6733 151.981 29.2933 151.541 29.04C151.114 28.7867 150.647 28.66 150.141 28.66C149.634 28.66 149.161 28.7867 148.721 29.04C148.294 29.2933 147.947 29.6733 147.681 30.18C147.414 30.6733 147.281 31.2933 147.281 32.04C147.281 32.7867 147.414 33.4133 147.681 33.92C147.947 34.4133 148.294 34.7867 148.721 35.04C149.147 35.2933 149.614 35.42 150.121 35.42ZM157.453 37V27.08H159.353L159.533 28.96C159.88 28.3067 160.36 27.7933 160.973 27.42C161.6 27.0333 162.353 26.84 163.233 26.84V29.06H162.653C162.067 29.06 161.54 29.16 161.073 29.36C160.62 29.5467 160.253 29.8733 159.973 30.34C159.707 30.7933 159.573 31.4267 159.573 32.24V37H157.453ZM169.211 37C168.238 37 167.464 36.7667 166.891 36.3C166.318 35.82 166.031 34.9733 166.031 33.76V28.86H164.331V27.08H166.031L166.291 24.56H168.151V27.08H170.951V28.86H168.151V33.76C168.151 34.3067 168.264 34.6867 168.491 34.9C168.731 35.1 169.138 35.2 169.711 35.2H170.851V37H169.211ZM180.156 37L177.236 27.08H179.356L181.276 34.56L183.436 27.08H185.796L187.956 34.56L189.876 27.08H191.996L189.076 37H186.896L184.616 29.2L182.336 37H180.156ZM194.942 25.2C194.542 25.2 194.209 25.08 193.942 24.84C193.689 24.5867 193.562 24.2733 193.562 23.9C193.562 23.5267 193.689 23.22 193.942 22.98C194.209 22.7267 194.542 22.6 194.942 22.6C195.342 22.6 195.669 22.7267 195.922 22.98C196.189 23.22 196.322 23.5267 196.322 23.9C196.322 24.2733 196.189 24.5867 195.922 24.84C195.669 25.08 195.342 25.2 194.942 25.2ZM193.882 37V27.08H196.002V37H193.882ZM202.961 37C201.988 37 201.214 36.7667 200.641 36.3C200.068 35.82 199.781 34.9733 199.781 33.76V28.86H198.081V27.08H199.781L200.041 24.56H201.901V27.08H204.701V28.86H201.901V33.76C201.901 34.3067 202.014 34.6867 202.241 34.9C202.481 35.1 202.888 35.2 203.461 35.2H204.601V37H202.961ZM206.887 37V22.6H209.007V28.68C209.34 28.1067 209.8 27.66 210.387 27.34C210.987 27.0067 211.647 26.84 212.367 26.84C213.554 26.84 214.487 27.2133 215.167 27.96C215.847 28.7067 216.187 29.82 216.187 31.3V37H214.087V31.52C214.087 29.6 213.32 28.64 211.787 28.64C210.987 28.64 210.32 28.92 209.787 29.48C209.267 30.04 209.007 30.84 209.007 31.88V37H206.887ZM228.423 37.24C227.396 37.24 226.496 37.06 225.723 36.7C224.949 36.34 224.343 35.8267 223.903 35.16C223.476 34.4933 223.256 33.7 223.243 32.78H225.483C225.496 33.5267 225.756 34.16 226.263 34.68C226.769 35.2 227.483 35.46 228.403 35.46C229.216 35.46 229.849 35.2667 230.303 34.88C230.769 34.48 231.003 33.9733 231.003 33.36C231.003 32.8667 230.889 32.4667 230.663 32.16C230.449 31.8533 230.149 31.6 229.763 31.4C229.389 31.2 228.956 31.02 228.463 30.86C227.969 30.7 227.449 30.5267 226.903 30.34C225.823 29.98 225.009 29.5133 224.463 28.94C223.929 28.3667 223.663 27.6133 223.663 26.68C223.649 25.8933 223.829 25.2067 224.203 24.62C224.589 24.0333 225.123 23.58 225.803 23.26C226.496 22.9267 227.303 22.76 228.223 22.76C229.129 22.76 229.923 22.9267 230.603 23.26C231.296 23.5933 231.836 24.06 232.223 24.66C232.609 25.2467 232.809 25.9333 232.823 26.72H230.583C230.583 26.36 230.489 26.02 230.303 25.7C230.116 25.3667 229.843 25.0933 229.483 24.88C229.123 24.6667 228.683 24.56 228.163 24.56C227.496 24.5467 226.943 24.7133 226.503 25.06C226.076 25.4067 225.863 25.8867 225.863 26.5C225.863 27.0467 226.023 27.4667 226.343 27.76C226.663 28.0533 227.103 28.3 227.663 28.5C228.223 28.6867 228.863 28.9067 229.583 29.16C230.276 29.3867 230.896 29.66 231.443 29.98C231.989 30.3 232.423 30.72 232.743 31.24C233.076 31.76 233.243 32.42 233.243 33.22C233.243 33.9267 233.063 34.5867 232.703 35.2C232.343 35.8 231.803 36.2933 231.083 36.68C230.363 37.0533 229.476 37.24 228.423 37.24ZM239.141 37.24C237.941 37.24 236.994 36.8667 236.301 36.12C235.621 35.3733 235.281 34.26 235.281 32.78V27.08H237.401V32.56C237.401 34.48 238.187 35.44 239.761 35.44C240.547 35.44 241.194 35.16 241.701 34.6C242.207 34.04 242.461 33.24 242.461 32.2V27.08H244.581V37H242.701L242.541 35.26C242.234 35.8733 241.781 36.36 241.181 36.72C240.594 37.0667 239.914 37.24 239.141 37.24ZM252.858 37.24C252.084 37.24 251.398 37.0867 250.798 36.78C250.211 36.4733 249.744 36.04 249.398 35.48L249.178 37H247.278V22.6H249.398V28.62C249.718 28.1533 250.158 27.74 250.718 27.38C251.278 27.02 251.998 26.84 252.878 26.84C253.838 26.84 254.684 27.0667 255.418 27.52C256.151 27.9733 256.724 28.5933 257.138 29.38C257.564 30.1667 257.778 31.06 257.778 32.06C257.778 33.06 257.564 33.9533 257.138 34.74C256.724 35.5133 256.151 36.1267 255.418 36.58C254.684 37.02 253.831 37.24 252.858 37.24ZM252.498 35.4C253.404 35.4 254.151 35.0933 254.738 34.48C255.324 33.8533 255.618 33.04 255.618 32.04C255.618 31.3867 255.484 30.8067 255.218 30.3C254.951 29.7933 254.584 29.4 254.118 29.12C253.651 28.8267 253.111 28.68 252.498 28.68C251.591 28.68 250.844 28.9933 250.258 29.62C249.684 30.2467 249.398 31.0533 249.398 32.04C249.398 33.04 249.684 33.8533 250.258 34.48C250.844 35.0933 251.591 35.4 252.498 35.4ZM260.07 37V22.6H262.19V37H260.07ZM269.515 37.24C268.542 37.24 267.675 37.0267 266.915 36.6C266.168 36.16 265.582 35.5533 265.155 34.78C264.728 34.0067 264.515 33.1067 264.515 32.08C264.515 31.04 264.722 30.1267 265.135 29.34C265.562 28.5533 266.148 27.94 266.895 27.5C267.655 27.06 268.535 26.84 269.535 26.84C270.508 26.84 271.355 27.06 272.075 27.5C272.795 27.9267 273.355 28.5 273.755 29.22C274.155 29.94 274.355 30.7333 274.355 31.6C274.355 31.7333 274.348 31.88 274.335 32.04C274.335 32.1867 274.328 32.3533 274.315 32.54H266.595C266.662 33.5 266.975 34.2333 267.535 34.74C268.108 35.2333 268.768 35.48 269.515 35.48C270.115 35.48 270.615 35.3467 271.015 35.08C271.428 34.8 271.735 34.4267 271.935 33.96H274.055C273.788 34.8933 273.255 35.6733 272.455 36.3C271.668 36.9267 270.688 37.24 269.515 37.24ZM269.515 28.58C268.808 28.58 268.182 28.7933 267.635 29.22C267.088 29.6333 266.755 30.26 266.635 31.1H272.235C272.195 30.3267 271.922 29.7133 271.415 29.26C270.908 28.8067 270.275 28.58 269.515 28.58ZM280.515 37.24C279.262 37.24 278.228 36.9333 277.415 36.32C276.602 35.7067 276.135 34.8933 276.015 33.88H278.155C278.262 34.3333 278.515 34.7267 278.915 35.06C279.315 35.38 279.842 35.54 280.495 35.54C281.135 35.54 281.602 35.4067 281.895 35.14C282.188 34.8733 282.335 34.5667 282.335 34.22C282.335 33.7133 282.128 33.3733 281.715 33.2C281.315 33.0133 280.755 32.8467 280.035 32.7C279.475 32.58 278.915 32.42 278.355 32.22C277.808 32.02 277.348 31.74 276.975 31.38C276.615 31.0067 276.435 30.5067 276.435 29.88C276.435 29.0133 276.768 28.2933 277.435 27.72C278.102 27.1333 279.035 26.84 280.235 26.84C281.342 26.84 282.235 27.1067 282.915 27.64C283.608 28.1733 284.015 28.9267 284.135 29.9H282.095C282.028 29.4733 281.828 29.14 281.495 28.9C281.175 28.66 280.742 28.54 280.195 28.54C279.662 28.54 279.248 28.6533 278.955 28.88C278.662 29.0933 278.515 29.3733 278.515 29.72C278.515 30.0667 278.715 30.34 279.115 30.54C279.528 30.74 280.068 30.92 280.735 31.08C281.402 31.2267 282.015 31.4 282.575 31.6C283.148 31.7867 283.608 32.0667 283.955 32.44C284.302 32.8133 284.475 33.36 284.475 34.08C284.488 34.9867 284.135 35.74 283.415 36.34C282.708 36.94 281.742 37.24 280.515 37.24ZM290.749 37.24C289.496 37.24 288.463 36.9333 287.649 36.32C286.836 35.7067 286.369 34.8933 286.249 33.88H288.389C288.496 34.3333 288.749 34.7267 289.149 35.06C289.549 35.38 290.076 35.54 290.729 35.54C291.369 35.54 291.836 35.4067 292.129 35.14C292.423 34.8733 292.569 34.5667 292.569 34.22C292.569 33.7133 292.363 33.3733 291.949 33.2C291.549 33.0133 290.989 32.8467 290.269 32.7C289.709 32.58 289.149 32.42 288.589 32.22C288.043 32.02 287.583 31.74 287.209 31.38C286.849 31.0067 286.669 30.5067 286.669 29.88C286.669 29.0133 287.003 28.2933 287.669 27.72C288.336 27.1333 289.269 26.84 290.469 26.84C291.576 26.84 292.469 27.1067 293.149 27.64C293.843 28.1733 294.249 28.9267 294.369 29.9H292.329C292.263 29.4733 292.063 29.14 291.729 28.9C291.409 28.66 290.976 28.54 290.429 28.54C289.896 28.54 289.483 28.6533 289.189 28.88C288.896 29.0933 288.749 29.3733 288.749 29.72C288.749 30.0667 288.949 30.34 289.349 30.54C289.763 30.74 290.303 30.92 290.969 31.08C291.636 31.2267 292.249 31.4 292.809 31.6C293.383 31.7867 293.843 32.0667 294.189 32.44C294.536 32.8133 294.709 33.36 294.709 34.08C294.723 34.9867 294.369 35.74 293.649 36.34C292.943 36.94 291.976 37.24 290.749 37.24Z" fill="black"/>
</g>
<defs>
<filter id="filter0_dd_469_1550" x="0" y="0" width="351" height="62" filterUnits="userSpaceOnUse" color-interpolation-filters="sRGB">
<feFlood flood-opacity="0" result="BackgroundImageFix"/>
<feColorMatrix in="SourceAlpha" type="matrix" values="0 0 0 0 0 0 0 0 0 0 0 0 0 0 0 0 0 0 127 0" result="hardAlpha"/>
<feOffset dy="2"/>
<feGaussianBlur stdDeviation="1.5"/>
<feColorMatrix type="matrix" values="0 0 0 0 0 0 0 0 0 0 0 0 0 0 0 0 0 0 0.168 0"/>
<feBlend mode="normal" in2="BackgroundImageFix" result="effect1_dropShadow_469_1550"/>
<feColorMatrix in="SourceAlpha" type="matrix" values="0 0 0 0 0 0 0 0 0 0 0 0 0 0 0 0 0 0 127 0" result="hardAlpha"/>
<feOffset/>
<feGaussianBlur stdDeviation="1.5"/>
<feColorMatrix type="matrix" values="0 0 0 0 0 0 0 0 0 0 0 0 0 0 0 0 0 0 0.084 0"/>
<feBlend mode="normal" in2="effect1_dropShadow_469_1550" result="effect2_dropShadow_469_1550"/>
<feBlend mode="normal" in="SourceGraphic" in2="effect2_dropShadow_469_1550" result="shape"/>
</filter>
</defs>
</svg>
