<svg width="351" height="62" viewBox="0 0 351 62" fill="none" xmlns="http://www.w3.org/2000/svg">
<g filter="url(#filter0_dd_154_5152)">
<rect x="3" y="3" width="345" height="54" rx="5" fill="white"/>
<rect x="54.5" y="3" width="243" height="54" rx="5" fill="white"/>
<path d="M77.1455 37.7881C77.1455 39.4449 78.4887 40.7881 80.1455 40.7881H87.4597C90.4435 40.7881 92.8623 38.3692 92.8623 35.3854V32.9297H78.8977C77.93 32.9297 77.1455 33.7142 77.1455 34.6819V37.7881Z" fill="#3A0CA3"/>
<path d="M69.9248 24.8584H87.6726C90.6564 24.8584 93.0752 27.2772 93.0752 30.2611V32.7168H75.3275C72.3437 32.7168 69.9248 30.298 69.9248 27.3142V24.8584Z" fill="#40A3FE"/>
<path d="M85.8545 20.5044C85.8545 18.569 84.2855 17 82.3501 17H75.5403C72.5565 17 70.1377 19.4189 70.1377 22.4027V24.8584H84.1023C85.07 24.8584 85.8545 24.0739 85.8545 23.1062V20.5044Z" fill="#F51D80"/>
<path d="M87.0961 24.7883L87.092 24.0383L87.0961 24.7883ZM75.8717 17.75H83.0929V16.25H75.8717V17.75ZM70.25 25.6515V23.3717H68.75V25.6515H70.25ZM83.0929 17.75C83.8517 17.75 84.4668 18.3651 84.4668 19.1239H85.9668C85.9668 17.5367 84.6801 16.25 83.0929 16.25V17.75ZM75.8717 16.25C71.9385 16.25 68.75 19.4385 68.75 23.3717H70.25C70.25 20.2669 72.7669 17.75 75.8717 17.75V16.25ZM87.1283 40.25H79.0575V41.75H87.1283V40.25ZM77.6836 38.8761V32.823H76.1836V38.8761H77.6836ZM79.0575 40.25C78.2987 40.25 77.6836 39.6349 77.6836 38.8761H76.1836C76.1836 40.4633 77.4703 41.75 79.0575 41.75V40.25ZM87.1283 41.75C91.0101 41.75 94.25 38.9298 94.25 34.9469H92.75C92.75 38.002 90.2845 40.25 87.1283 40.25V41.75ZM72.3174 24.1084C71.2538 24.1084 70.7407 23.7921 70.5003 23.5673C70.3726 23.4479 70.2997 23.3337 70.2607 23.2586C70.2411 23.2208 70.2303 23.1933 70.2257 23.1805C70.2234 23.1742 70.2227 23.1717 70.2233 23.1737C70.2236 23.1747 70.2242 23.1769 70.2251 23.1803C70.2256 23.1819 70.2261 23.1839 70.2267 23.1862C70.227 23.1874 70.2273 23.1886 70.2276 23.1899C70.2278 23.1906 70.228 23.1913 70.2282 23.192C70.2282 23.1923 70.2284 23.1929 70.2284 23.193C70.2285 23.1936 70.2287 23.1941 69.5 23.3717C68.7713 23.5492 68.7715 23.5498 68.7716 23.5504C68.7716 23.5505 68.7718 23.5511 68.7719 23.5515C68.7721 23.5523 68.7723 23.5531 68.7725 23.554C68.7729 23.5556 68.7734 23.5574 68.7738 23.5593C68.7748 23.563 68.7759 23.5671 68.7771 23.5716C68.7795 23.5806 68.7825 23.5911 68.786 23.603C68.7931 23.6268 68.8026 23.6563 68.8151 23.6906C68.8398 23.7592 68.8765 23.8477 68.9292 23.9494C69.0349 24.153 69.2059 24.4105 69.4757 24.6628C70.0302 25.1813 70.9259 25.6084 72.3174 25.6084V24.1084ZM75.643 33.573H89.5348V32.073H75.643V33.573ZM89.5348 33.573C91.2258 33.573 92.0194 33.8181 92.3829 34.0683C92.6577 34.2574 92.75 34.4929 92.75 34.9469H94.25C94.25 34.2423 94.0806 33.4158 93.2333 32.8326C92.4746 32.3105 91.2856 32.073 89.5348 32.073V33.573ZM68.75 23.3717V26.4194H70.25V23.3717H68.75ZM87.1001 25.5383C90.2168 25.5214 92.75 28.0431 92.75 31.1607H94.25C94.25 27.2124 91.0412 24.017 87.092 24.0383L87.1001 25.5383ZM75.643 32.073C72.7035 32.073 70.25 29.4394 70.25 26.4194H68.75C68.75 30.1862 71.7957 33.573 75.643 33.573V32.073ZM94.25 34.9469V31.1607H92.75V34.9469H94.25ZM87.092 24.0383C86.5397 24.0413 85.795 24.0441 85.2128 24.0473L85.2208 25.5472C85.7757 25.5443 86.5717 25.5411 87.1001 25.5383L87.092 24.0383ZM85.2128 24.0473C79.8135 24.0761 73.6749 24.1084 72.3174 24.1084V25.6084C73.6802 25.6084 79.8252 25.5761 85.2208 25.5472L85.2128 24.0473ZM84.4668 19.1239V24.7972H85.9668V19.1239H84.4668Z" fill="black"/>
<path d="M109.92 37V23H112.04V35.32H118.4V37H109.92ZM124.812 37.24C123.865 37.24 123.012 37.0267 122.252 36.6C121.505 36.16 120.912 35.5533 120.472 34.78C120.032 33.9933 119.812 33.08 119.812 32.04C119.812 31 120.032 30.0933 120.472 29.32C120.925 28.5333 121.532 27.9267 122.292 27.5C123.052 27.06 123.899 26.84 124.832 26.84C125.779 26.84 126.625 27.06 127.372 27.5C128.132 27.9267 128.732 28.5333 129.172 29.32C129.625 30.0933 129.852 31 129.852 32.04C129.852 33.08 129.625 33.9933 129.172 34.78C128.732 35.5533 128.132 36.16 127.372 36.6C126.612 37.0267 125.759 37.24 124.812 37.24ZM124.812 35.42C125.319 35.42 125.785 35.2933 126.212 35.04C126.652 34.7867 127.005 34.4133 127.272 33.92C127.539 33.4133 127.672 32.7867 127.672 32.04C127.672 31.2933 127.539 30.6733 127.272 30.18C127.019 29.6733 126.672 29.2933 126.232 29.04C125.805 28.7867 125.339 28.66 124.832 28.66C124.325 28.66 123.852 28.7867 123.412 29.04C122.985 29.2933 122.639 29.6733 122.372 30.18C122.105 30.6733 121.972 31.2933 121.972 32.04C121.972 32.7867 122.105 33.4133 122.372 33.92C122.639 34.4133 122.985 34.7867 123.412 35.04C123.839 35.2933 124.305 35.42 124.812 35.42ZM135.677 33.96C135.157 33.96 134.677 33.9 134.237 33.78L133.377 34.62C133.524 34.7133 133.704 34.7933 133.917 34.86C134.131 34.9267 134.431 34.9867 134.817 35.04C135.204 35.0933 135.731 35.1467 136.397 35.2C137.717 35.32 138.671 35.64 139.257 36.16C139.844 36.6667 140.137 37.3467 140.137 38.2C140.137 38.7867 139.977 39.34 139.657 39.86C139.351 40.3933 138.864 40.82 138.197 41.14C137.544 41.4733 136.704 41.64 135.677 41.64C134.291 41.64 133.164 41.3733 132.297 40.84C131.444 40.32 131.017 39.5267 131.017 38.46C131.017 38.0467 131.124 37.6333 131.337 37.22C131.564 36.82 131.917 36.44 132.397 36.08C132.117 35.96 131.871 35.8333 131.657 35.7C131.457 35.5533 131.277 35.4067 131.117 35.26V34.78L132.837 33.02C132.064 32.3533 131.677 31.48 131.677 30.4C131.677 29.7467 131.831 29.1533 132.137 28.62C132.457 28.0733 132.917 27.64 133.517 27.32C134.117 27 134.837 26.84 135.677 26.84C136.237 26.84 136.757 26.92 137.237 27.08H140.937V28.48L139.177 28.58C139.497 29.1267 139.657 29.7333 139.657 30.4C139.657 31.0667 139.497 31.6667 139.177 32.2C138.871 32.7333 138.417 33.16 137.817 33.48C137.231 33.8 136.517 33.96 135.677 33.96ZM135.677 32.3C136.291 32.3 136.784 32.14 137.157 31.82C137.544 31.4867 137.737 31.02 137.737 30.42C137.737 29.8067 137.544 29.34 137.157 29.02C136.784 28.7 136.291 28.54 135.677 28.54C135.051 28.54 134.544 28.7 134.157 29.02C133.784 29.34 133.597 29.8067 133.597 30.42C133.597 31.02 133.784 31.4867 134.157 31.82C134.544 32.14 135.051 32.3 135.677 32.3ZM133.017 38.26C133.017 38.8333 133.271 39.26 133.777 39.54C134.284 39.8333 134.917 39.98 135.677 39.98C136.411 39.98 137.004 39.82 137.457 39.5C137.911 39.1933 138.137 38.78 138.137 38.26C138.137 37.8733 137.984 37.54 137.677 37.26C137.371 36.9933 136.791 36.8267 135.937 36.76C135.297 36.72 134.731 36.66 134.237 36.58C133.771 36.8333 133.451 37.1067 133.277 37.4C133.104 37.6933 133.017 37.98 133.017 38.26ZM144.028 25.2C143.628 25.2 143.295 25.08 143.028 24.84C142.775 24.5867 142.648 24.2733 142.648 23.9C142.648 23.5267 142.775 23.22 143.028 22.98C143.295 22.7267 143.628 22.6 144.028 22.6C144.428 22.6 144.755 22.7267 145.008 22.98C145.275 23.22 145.408 23.5267 145.408 23.9C145.408 24.2733 145.275 24.5867 145.008 24.84C144.755 25.08 144.428 25.2 144.028 25.2ZM142.968 37V27.08H145.088V37H142.968ZM147.887 37V27.08H149.767L149.927 28.82C150.234 28.2067 150.68 27.7267 151.267 27.38C151.867 27.02 152.554 26.84 153.327 26.84C154.527 26.84 155.467 27.2133 156.147 27.96C156.84 28.7067 157.187 29.82 157.187 31.3V37H155.087V31.52C155.087 29.6 154.3 28.64 152.727 28.64C151.94 28.64 151.287 28.92 150.767 29.48C150.26 30.04 150.007 30.84 150.007 31.88V37H147.887ZM166.703 37L163.783 27.08H165.903L167.823 34.56L169.983 27.08H172.343L174.503 34.56L176.423 27.08H178.543L175.623 37H173.443L171.163 29.2L168.883 37H166.703ZM181.489 25.2C181.089 25.2 180.756 25.08 180.489 24.84C180.236 24.5867 180.109 24.2733 180.109 23.9C180.109 23.5267 180.236 23.22 180.489 22.98C180.756 22.7267 181.089 22.6 181.489 22.6C181.889 22.6 182.216 22.7267 182.469 22.98C182.736 23.22 182.869 23.5267 182.869 23.9C182.869 24.2733 182.736 24.5867 182.469 24.84C182.216 25.08 181.889 25.2 181.489 25.2ZM180.429 37V27.08H182.549V37H180.429ZM189.508 37C188.534 37 187.761 36.7667 187.188 36.3C186.614 35.82 186.328 34.9733 186.328 33.76V28.86H184.628V27.08H186.328L186.588 24.56H188.448V27.08H191.248V28.86H188.448V33.76C188.448 34.3067 188.561 34.6867 188.788 34.9C189.028 35.1 189.434 35.2 190.008 35.2H191.148V37H189.508ZM193.434 37V22.6H195.554V28.68C195.887 28.1067 196.347 27.66 196.934 27.34C197.534 27.0067 198.194 26.84 198.914 26.84C200.1 26.84 201.034 27.2133 201.714 27.96C202.394 28.7067 202.734 29.82 202.734 31.3V37H200.634V31.52C200.634 29.6 199.867 28.64 198.334 28.64C197.534 28.64 196.867 28.92 196.334 29.48C195.814 30.04 195.554 30.84 195.554 31.88V37H193.434ZM214.97 37.24C213.943 37.24 213.043 37.06 212.27 36.7C211.496 36.34 210.89 35.8267 210.45 35.16C210.023 34.4933 209.803 33.7 209.79 32.78H212.03C212.043 33.5267 212.303 34.16 212.81 34.68C213.316 35.2 214.03 35.46 214.95 35.46C215.763 35.46 216.396 35.2667 216.85 34.88C217.316 34.48 217.55 33.9733 217.55 33.36C217.55 32.8667 217.436 32.4667 217.21 32.16C216.996 31.8533 216.696 31.6 216.31 31.4C215.936 31.2 215.503 31.02 215.01 30.86C214.516 30.7 213.996 30.5267 213.45 30.34C212.37 29.98 211.556 29.5133 211.01 28.94C210.476 28.3667 210.21 27.6133 210.21 26.68C210.196 25.8933 210.376 25.2067 210.75 24.62C211.136 24.0333 211.67 23.58 212.35 23.26C213.043 22.9267 213.85 22.76 214.77 22.76C215.676 22.76 216.47 22.9267 217.15 23.26C217.843 23.5933 218.383 24.06 218.77 24.66C219.156 25.2467 219.356 25.9333 219.37 26.72H217.13C217.13 26.36 217.036 26.02 216.85 25.7C216.663 25.3667 216.39 25.0933 216.03 24.88C215.67 24.6667 215.23 24.56 214.71 24.56C214.043 24.5467 213.49 24.7133 213.05 25.06C212.623 25.4067 212.41 25.8867 212.41 26.5C212.41 27.0467 212.57 27.4667 212.89 27.76C213.21 28.0533 213.65 28.3 214.21 28.5C214.77 28.6867 215.41 28.9067 216.13 29.16C216.823 29.3867 217.443 29.66 217.99 29.98C218.536 30.3 218.97 30.72 219.29 31.24C219.623 31.76 219.79 32.42 219.79 33.22C219.79 33.9267 219.61 34.5867 219.25 35.2C218.89 35.8 218.35 36.2933 217.63 36.68C216.91 37.0533 216.023 37.24 214.97 37.24ZM225.688 37.24C224.488 37.24 223.541 36.8667 222.848 36.12C222.168 35.3733 221.828 34.26 221.828 32.78V27.08H223.948V32.56C223.948 34.48 224.734 35.44 226.308 35.44C227.094 35.44 227.741 35.16 228.248 34.6C228.754 34.04 229.008 33.24 229.008 32.2V27.08H231.128V37H229.248L229.088 35.26C228.781 35.8733 228.328 36.36 227.728 36.72C227.141 37.0667 226.461 37.24 225.688 37.24ZM239.404 37.24C238.631 37.24 237.944 37.0867 237.344 36.78C236.758 36.4733 236.291 36.04 235.944 35.48L235.724 37H233.824V22.6H235.944V28.62C236.264 28.1533 236.704 27.74 237.264 27.38C237.824 27.02 238.544 26.84 239.424 26.84C240.384 26.84 241.231 27.0667 241.964 27.52C242.698 27.9733 243.271 28.5933 243.684 29.38C244.111 30.1667 244.324 31.06 244.324 32.06C244.324 33.06 244.111 33.9533 243.684 34.74C243.271 35.5133 242.698 36.1267 241.964 36.58C241.231 37.02 240.378 37.24 239.404 37.24ZM239.044 35.4C239.951 35.4 240.698 35.0933 241.284 34.48C241.871 33.8533 242.164 33.04 242.164 32.04C242.164 31.3867 242.031 30.8067 241.764 30.3C241.498 29.7933 241.131 29.4 240.664 29.12C240.198 28.8267 239.658 28.68 239.044 28.68C238.138 28.68 237.391 28.9933 236.804 29.62C236.231 30.2467 235.944 31.0533 235.944 32.04C235.944 33.04 236.231 33.8533 236.804 34.48C237.391 35.0933 238.138 35.4 239.044 35.4ZM246.617 37V22.6H248.737V37H246.617ZM256.062 37.24C255.089 37.24 254.222 37.0267 253.462 36.6C252.715 36.16 252.129 35.5533 251.702 34.78C251.275 34.0067 251.062 33.1067 251.062 32.08C251.062 31.04 251.269 30.1267 251.682 29.34C252.109 28.5533 252.695 27.94 253.442 27.5C254.202 27.06 255.082 26.84 256.082 26.84C257.055 26.84 257.902 27.06 258.622 27.5C259.342 27.9267 259.902 28.5 260.302 29.22C260.702 29.94 260.902 30.7333 260.902 31.6C260.902 31.7333 260.895 31.88 260.882 32.04C260.882 32.1867 260.875 32.3533 260.862 32.54H253.142C253.209 33.5 253.522 34.2333 254.082 34.74C254.655 35.2333 255.315 35.48 256.062 35.48C256.662 35.48 257.162 35.3467 257.562 35.08C257.975 34.8 258.282 34.4267 258.482 33.96H260.602C260.335 34.8933 259.802 35.6733 259.002 36.3C258.215 36.9267 257.235 37.24 256.062 37.24ZM256.062 28.58C255.355 28.58 254.729 28.7933 254.182 29.22C253.635 29.6333 253.302 30.26 253.182 31.1H258.782C258.742 30.3267 258.469 29.7133 257.962 29.26C257.455 28.8067 256.822 28.58 256.062 28.58ZM267.062 37.24C265.808 37.24 264.775 36.9333 263.962 36.32C263.148 35.7067 262.682 34.8933 262.562 33.88H264.702C264.808 34.3333 265.062 34.7267 265.462 35.06C265.862 35.38 266.388 35.54 267.042 35.54C267.682 35.54 268.148 35.4067 268.442 35.14C268.735 34.8733 268.882 34.5667 268.882 34.22C268.882 33.7133 268.675 33.3733 268.262 33.2C267.862 33.0133 267.302 32.8467 266.582 32.7C266.022 32.58 265.462 32.42 264.902 32.22C264.355 32.02 263.895 31.74 263.522 31.38C263.162 31.0067 262.982 30.5067 262.982 29.88C262.982 29.0133 263.315 28.2933 263.982 27.72C264.648 27.1333 265.582 26.84 266.782 26.84C267.888 26.84 268.782 27.1067 269.462 27.64C270.155 28.1733 270.562 28.9267 270.682 29.9H268.642C268.575 29.4733 268.375 29.14 268.042 28.9C267.722 28.66 267.288 28.54 266.742 28.54C266.208 28.54 265.795 28.6533 265.502 28.88C265.208 29.0933 265.062 29.3733 265.062 29.72C265.062 30.0667 265.262 30.34 265.662 30.54C266.075 30.74 266.615 30.92 267.282 31.08C267.948 31.2267 268.562 31.4 269.122 31.6C269.695 31.7867 270.155 32.0667 270.502 32.44C270.848 32.8133 271.022 33.36 271.022 34.08C271.035 34.9867 270.682 35.74 269.962 36.34C269.255 36.94 268.288 37.24 267.062 37.24ZM277.296 37.24C276.043 37.24 275.009 36.9333 274.196 36.32C273.383 35.7067 272.916 34.8933 272.796 33.88H274.936C275.043 34.3333 275.296 34.7267 275.696 35.06C276.096 35.38 276.623 35.54 277.276 35.54C277.916 35.54 278.383 35.4067 278.676 35.14C278.969 34.8733 279.116 34.5667 279.116 34.22C279.116 33.7133 278.909 33.3733 278.496 33.2C278.096 33.0133 277.536 32.8467 276.816 32.7C276.256 32.58 275.696 32.42 275.136 32.22C274.589 32.02 274.129 31.74 273.756 31.38C273.396 31.0067 273.216 30.5067 273.216 29.88C273.216 29.0133 273.549 28.2933 274.216 27.72C274.883 27.1333 275.816 26.84 277.016 26.84C278.123 26.84 279.016 27.1067 279.696 27.64C280.389 28.1733 280.796 28.9267 280.916 29.9H278.876C278.809 29.4733 278.609 29.14 278.276 28.9C277.956 28.66 277.523 28.54 276.976 28.54C276.443 28.54 276.029 28.6533 275.736 28.88C275.443 29.0933 275.296 29.3733 275.296 29.72C275.296 30.0667 275.496 30.34 275.896 30.54C276.309 30.74 276.849 30.92 277.516 31.08C278.183 31.2267 278.796 31.4 279.356 31.6C279.929 31.7867 280.389 32.0667 280.736 32.44C281.083 32.8133 281.256 33.36 281.256 34.08C281.269 34.9867 280.916 35.74 280.196 36.34C279.489 36.94 278.523 37.24 277.296 37.24Z" fill="black"/>
</g>
<defs>
<filter id="filter0_dd_154_5152" x="0" y="0" width="351" height="62" filterUnits="userSpaceOnUse" color-interpolation-filters="sRGB">
<feFlood flood-opacity="0" result="BackgroundImageFix"/>
<feColorMatrix in="SourceAlpha" type="matrix" values="0 0 0 0 0 0 0 0 0 0 0 0 0 0 0 0 0 0 127 0" result="hardAlpha"/>
<feOffset dy="2"/>
<feGaussianBlur stdDeviation="1.5"/>
<feColorMatrix type="matrix" values="0 0 0 0 0 0 0 0 0 0 0 0 0 0 0 0 0 0 0.168 0"/>
<feBlend mode="normal" in2="BackgroundImageFix" result="effect1_dropShadow_154_5152"/>
<feColorMatrix in="SourceAlpha" type="matrix" values="0 0 0 0 0 0 0 0 0 0 0 0 0 0 0 0 0 0 127 0" result="hardAlpha"/>
<feOffset/>
<feGaussianBlur stdDeviation="1.5"/>
<feColorMatrix type="matrix" values="0 0 0 0 0 0 0 0 0 0 0 0 0 0 0 0 0 0 0.084 0"/>
<feBlend mode="normal" in2="effect1_dropShadow_154_5152" result="effect2_dropShadow_154_5152"/>
<feBlend mode="normal" in="SourceGraphic" in2="effect2_dropShadow_154_5152" result="shape"/>
</filter>
</defs>
</svg>
