<svg width="41" height="40" viewBox="0 0 41 40" fill="none" xmlns="http://www.w3.org/2000/svg">
<g filter="url(#filter0_d_168_4909)">
<path d="M14.5137 31.7036C14.5137 33.639 16.0827 35.208 18.0181 35.208H30.7216C33.7054 35.208 36.1243 32.7892 36.1243 29.8054V24.4027H16.2659C15.2982 24.4027 14.5137 25.1872 14.5137 26.1549V31.7036Z" fill="#3A0CA3"/>
<path d="M4.58398 13.3057H31.0132C33.997 13.3057 36.4158 15.7245 36.4158 18.7083V24.111H9.98664C7.00284 24.111 4.58398 21.6921 4.58398 18.7083V13.3057Z" fill="#40A3FE"/>
<path d="M26.4863 6.00443C26.4863 4.06899 24.9173 2.5 22.9819 2.5H10.2784C7.29456 2.5 4.87571 4.91885 4.87571 7.90265V13.3053H24.7341C25.7018 13.3053 26.4863 12.5208 26.4863 11.5531V6.00443Z" fill="#F51D80"/>
<path d="M28.1946 13.2089L28.1878 11.9589L28.1946 13.2089ZM12.7611 3.75H22.6903V1.25H12.7611V3.75ZM5.25 14.3958V11.2611H2.75V14.3958H5.25ZM22.6903 3.75C23.6128 3.75 24.3606 4.49784 24.3606 5.42035H26.8606C26.8606 3.11713 24.9935 1.25 22.6903 1.25V3.75ZM12.7611 1.25C7.23211 1.25 2.75 5.73211 2.75 11.2611H5.25C5.25 7.11282 8.61282 3.75 12.7611 3.75V1.25ZM28.2389 34.25H17.1416V36.75H28.2389V34.25ZM15.4712 32.5796V24.2566H12.9712V32.5796H15.4712ZM17.1416 34.25C16.2191 34.25 15.4712 33.5022 15.4712 32.5796H12.9712C12.9712 34.8829 14.8384 36.75 17.1416 36.75V34.25ZM28.2389 36.75C33.6821 36.75 38.25 32.7887 38.25 27.177H35.75C35.75 31.2425 32.473 34.25 28.2389 34.25V36.75ZM7.87391 12.0553C6.45924 12.0553 5.80963 11.6365 5.52481 11.3702C5.37001 11.2254 5.28401 11.0894 5.2401 11.0048C5.21804 10.9622 5.2069 10.9332 5.2035 10.9238C5.20183 10.9192 5.20218 10.9197 5.20413 10.9263C5.20511 10.9295 5.20649 10.9343 5.20823 10.9408C5.2091 10.944 5.21006 10.9476 5.2111 10.9517C5.21162 10.9537 5.21217 10.9558 5.21273 10.9581C5.21301 10.9592 5.21329 10.9604 5.21358 10.9615C5.21373 10.9621 5.21395 10.963 5.21402 10.9633C5.21425 10.9642 5.21447 10.9652 4 11.2611C2.78553 11.557 2.78576 11.5579 2.78599 11.5588C2.78607 11.5592 2.7863 11.5601 2.78646 11.5608C2.78678 11.5621 2.78711 11.5634 2.78746 11.5648C2.78814 11.5675 2.78887 11.5704 2.78965 11.5734C2.79119 11.5794 2.79292 11.586 2.79483 11.5931C2.79866 11.6073 2.80326 11.6235 2.80871 11.6418C2.8196 11.6782 2.83395 11.7227 2.85249 11.774C2.88952 11.8764 2.94366 12.0071 3.02104 12.1562C3.17602 12.4549 3.42553 12.8299 3.81723 13.1962C4.62541 13.9519 5.91275 14.5553 7.87391 14.5553V12.0553ZM12.4466 25.5066H31.5478V23.0066H12.4466V25.5066ZM31.5478 25.5066C33.8643 25.5066 34.8978 25.8448 35.34 26.1491C35.6343 26.3517 35.75 26.5893 35.75 27.177H38.25C38.25 26.1716 38.0059 24.949 36.7573 24.0897C35.6565 23.3321 33.9639 23.0066 31.5478 23.0066V25.5066ZM2.75 11.2611V15.4517H5.25V11.2611H2.75ZM28.2013 14.4589C32.3654 14.4364 35.75 17.8053 35.75 21.971H38.25C38.25 16.4209 33.7394 11.9289 28.1878 11.9589L28.2013 14.4589ZM12.4466 23.0066C8.53722 23.0066 5.25 19.4952 5.25 15.4517H2.75C2.75 20.7399 7.02425 25.5066 12.4466 25.5066V23.0066ZM38.25 27.177V21.971H35.75V27.177H38.25ZM28.1878 11.9589C27.425 11.963 26.4084 11.9669 25.6039 11.9712L25.6173 14.4712C26.3763 14.4671 27.4782 14.4628 28.2013 14.4589L28.1878 11.9589ZM25.6039 11.9712C18.1793 12.0109 9.7397 12.0553 7.87391 12.0553V14.5553C9.74848 14.5553 18.1988 14.5108 25.6173 14.4712L25.6039 11.9712ZM24.3606 5.42035V13.2212H26.8606V5.42035H24.3606Z" fill="white"/>
</g>
<defs>
<filter id="filter0_d_168_4909" x="0.997788" y="0.665929" width="39.0044" height="39.0044" filterUnits="userSpaceOnUse" color-interpolation-filters="sRGB">
<feFlood flood-opacity="0" result="BackgroundImageFix"/>
<feColorMatrix in="SourceAlpha" type="matrix" values="0 0 0 0 0 0 0 0 0 0 0 0 0 0 0 0 0 0 127 0" result="hardAlpha"/>
<feOffset dy="1.16814"/>
<feGaussianBlur stdDeviation="0.876106"/>
<feComposite in2="hardAlpha" operator="out"/>
<feColorMatrix type="matrix" values="0 0 0 0 0 0 0 0 0 0 0 0 0 0 0 0 0 0 0.35 0"/>
<feBlend mode="normal" in2="BackgroundImageFix" result="effect1_dropShadow_168_4909"/>
<feBlend mode="normal" in="SourceGraphic" in2="effect1_dropShadow_168_4909" result="shape"/>
</filter>
</defs>
</svg>
