<svg width="299" height="74" viewBox="0 0 299 74" fill="none" xmlns="http://www.w3.org/2000/svg">
<g filter="url(#filter0_dd_470_1540)">
<path d="M19 22C19 19.2386 21.2386 17 24 17H286C288.761 17 291 19.2386 291 22V44C291 46.7614 288.761 49 286 49H24C21.2386 49 19 46.7614 19 44V22Z" fill="#311E5D"/>
<rect x="14.6865" y="10" width="280.627" height="46" rx="5" fill="#311E5D"/>
<g filter="url(#filter1_ddd_470_1540)">
<path d="M25.502 26.1062C25.502 22.7338 28.2358 20 31.6081 20H38.732C39.8562 20 40.7674 20.9113 40.7674 22.0354V28.291C40.7674 28.883 40.2876 29.3628 39.6956 29.3628H26.5737C25.9818 29.3628 25.502 28.883 25.502 28.291V26.1062Z" fill="#F51D80" stroke="white" stroke-width="1.22124"/>
<path d="M48.502 36.8938C48.502 40.2662 45.7681 43 42.3958 43H35.2719C34.1477 43 33.2365 42.0887 33.2365 40.9646V34.5054C33.2365 33.9135 33.7163 33.4336 34.3083 33.4336H47.4302C48.0221 33.4336 48.502 33.9135 48.502 34.5054V36.8938Z" fill="#3A0CA3" stroke="white" stroke-width="1.22124"/>
<path d="M28.202 27.5308C29.6427 27.5308 36.9308 27.493 42.3649 27.4636C45.7506 27.4453 48.502 30.1847 48.502 33.5705V35.7899V37.8096C48.502 36.6992 48.0004 34.915 44.702 34.915H31.389C28.137 34.915 25.502 32.2787 25.502 29.0267V25.2919C25.502 25.2919 25.8491 27.5308 28.202 27.5308Z" fill="#40A3FE" stroke="white" stroke-width="1.22124" stroke-linejoin="round"/>
<path d="M25.5007 22.8506C24.8901 23.9701 24.6865 25.2424 24.6865 25.9037C24.6865 26.2403 24.6865 27.3398 24.6865 27.4302" stroke="#3A0CA3" stroke-width="0.40708" stroke-linecap="round"/>
</g>
<path d="M48.4993 40.252C49.1099 39.1325 49.3135 37.8602 49.3135 37.1989C49.3135 36.8622 49.3135 35.7627 49.3135 35.6723" stroke="#311E5D" stroke-width="0.40708" stroke-linecap="round"/>
<path d="M65.3535 40.24C64.3268 40.24 63.4268 40.06 62.6535 39.7C61.8801 39.34 61.2735 38.8267 60.8335 38.16C60.4068 37.4933 60.1868 36.7 60.1735 35.78H62.4135C62.4268 36.5267 62.6868 37.16 63.1935 37.68C63.7001 38.2 64.4135 38.46 65.3335 38.46C66.1468 38.46 66.7801 38.2667 67.2335 37.88C67.7001 37.48 67.9335 36.9733 67.9335 36.36C67.9335 35.8667 67.8201 35.4667 67.5935 35.16C67.3801 34.8533 67.0801 34.6 66.6935 34.4C66.3201 34.2 65.8868 34.02 65.3935 33.86C64.9001 33.7 64.3801 33.5267 63.8335 33.34C62.7535 32.98 61.9401 32.5133 61.3935 31.94C60.8601 31.3667 60.5935 30.6133 60.5935 29.68C60.5801 28.8933 60.7601 28.2067 61.1335 27.62C61.5201 27.0333 62.0535 26.58 62.7335 26.26C63.4268 25.9267 64.2335 25.76 65.1535 25.76C66.0601 25.76 66.8535 25.9267 67.5335 26.26C68.2268 26.5933 68.7668 27.06 69.1535 27.66C69.5401 28.2467 69.7401 28.9333 69.7535 29.72H67.5135C67.5135 29.36 67.4201 29.02 67.2335 28.7C67.0468 28.3667 66.7735 28.0933 66.4135 27.88C66.0535 27.6667 65.6135 27.56 65.0935 27.56C64.4268 27.5467 63.8735 27.7133 63.4335 28.06C63.0068 28.4067 62.7935 28.8867 62.7935 29.5C62.7935 30.0467 62.9535 30.4667 63.2735 30.76C63.5935 31.0533 64.0335 31.3 64.5935 31.5C65.1535 31.6867 65.7935 31.9067 66.5135 32.16C67.2068 32.3867 67.8268 32.66 68.3735 32.98C68.9201 33.3 69.3535 33.72 69.6735 34.24C70.0068 34.76 70.1735 35.42 70.1735 36.22C70.1735 36.9267 69.9935 37.5867 69.6335 38.2C69.2735 38.8 68.7335 39.2933 68.0135 39.68C67.2935 40.0533 66.4068 40.24 65.3535 40.24ZM76.0713 40.24C74.8713 40.24 73.9246 39.8667 73.2313 39.12C72.5513 38.3733 72.2113 37.26 72.2113 35.78V30.08H74.3313V35.56C74.3313 37.48 75.118 38.44 76.6913 38.44C77.478 38.44 78.1246 38.16 78.6313 37.6C79.138 37.04 79.3913 36.24 79.3913 35.2V30.08H81.5113V40H79.6313L79.4713 38.26C79.1646 38.8733 78.7113 39.36 78.1113 39.72C77.5246 40.0667 76.8446 40.24 76.0713 40.24ZM84.2082 44.4V30.08H86.1082L86.3282 31.62C86.6482 31.1533 87.0882 30.74 87.6482 30.38C88.2082 30.02 88.9282 29.84 89.8082 29.84C90.7682 29.84 91.6148 30.0667 92.3482 30.52C93.0815 30.9733 93.6548 31.5933 94.0682 32.38C94.4948 33.1667 94.7082 34.06 94.7082 35.06C94.7082 36.06 94.4948 36.9533 94.0682 37.74C93.6548 38.5133 93.0815 39.1267 92.3482 39.58C91.6148 40.02 90.7615 40.24 89.7882 40.24C89.0148 40.24 88.3282 40.0867 87.7282 39.78C87.1415 39.4733 86.6748 39.04 86.3282 38.48V44.4H84.2082ZM89.4282 38.4C90.3348 38.4 91.0815 38.0933 91.6682 37.48C92.2548 36.8533 92.5482 36.04 92.5482 35.04C92.5482 34.3867 92.4148 33.8067 92.1482 33.3C91.8815 32.7933 91.5148 32.4 91.0482 32.12C90.5815 31.8267 90.0415 31.68 89.4282 31.68C88.5215 31.68 87.7748 31.9933 87.1882 32.62C86.6148 33.2467 86.3282 34.0533 86.3282 35.04C86.3282 36.04 86.6148 36.8533 87.1882 37.48C87.7748 38.0933 88.5215 38.4 89.4282 38.4ZM97.0011 44.4V30.08H98.9011L99.1211 31.62C99.4411 31.1533 99.8811 30.74 100.441 30.38C101.001 30.02 101.721 29.84 102.601 29.84C103.561 29.84 104.408 30.0667 105.141 30.52C105.874 30.9733 106.448 31.5933 106.861 32.38C107.288 33.1667 107.501 34.06 107.501 35.06C107.501 36.06 107.288 36.9533 106.861 37.74C106.448 38.5133 105.874 39.1267 105.141 39.58C104.408 40.02 103.554 40.24 102.581 40.24C101.808 40.24 101.121 40.0867 100.521 39.78C99.9345 39.4733 99.4678 39.04 99.1211 38.48V44.4H97.0011ZM102.221 38.4C103.128 38.4 103.874 38.0933 104.461 37.48C105.048 36.8533 105.341 36.04 105.341 35.04C105.341 34.3867 105.208 33.8067 104.941 33.3C104.674 32.7933 104.308 32.4 103.841 32.12C103.374 31.8267 102.834 31.68 102.221 31.68C101.314 31.68 100.568 31.9933 99.9811 32.62C99.4078 33.2467 99.1211 34.0533 99.1211 35.04C99.1211 36.04 99.4078 36.8533 99.9811 37.48C100.568 38.0933 101.314 38.4 102.221 38.4ZM114.434 40.24C113.487 40.24 112.634 40.0267 111.874 39.6C111.127 39.16 110.534 38.5533 110.094 37.78C109.654 36.9933 109.434 36.08 109.434 35.04C109.434 34 109.654 33.0933 110.094 32.32C110.547 31.5333 111.154 30.9267 111.914 30.5C112.674 30.06 113.521 29.84 114.454 29.84C115.401 29.84 116.247 30.06 116.994 30.5C117.754 30.9267 118.354 31.5333 118.794 32.32C119.247 33.0933 119.474 34 119.474 35.04C119.474 36.08 119.247 36.9933 118.794 37.78C118.354 38.5533 117.754 39.16 116.994 39.6C116.234 40.0267 115.381 40.24 114.434 40.24ZM114.434 38.42C114.941 38.42 115.407 38.2933 115.834 38.04C116.274 37.7867 116.627 37.4133 116.894 36.92C117.161 36.4133 117.294 35.7867 117.294 35.04C117.294 34.2933 117.161 33.6733 116.894 33.18C116.641 32.6733 116.294 32.2933 115.854 32.04C115.427 31.7867 114.961 31.66 114.454 31.66C113.947 31.66 113.474 31.7867 113.034 32.04C112.607 32.2933 112.261 32.6733 111.994 33.18C111.727 33.6733 111.594 34.2933 111.594 35.04C111.594 35.7867 111.727 36.4133 111.994 36.92C112.261 37.4133 112.607 37.7867 113.034 38.04C113.461 38.2933 113.927 38.42 114.434 38.42ZM121.767 40V30.08H123.667L123.847 31.96C124.193 31.3067 124.673 30.7933 125.287 30.42C125.913 30.0333 126.667 29.84 127.547 29.84V32.06H126.967C126.38 32.06 125.853 32.16 125.387 32.36C124.933 32.5467 124.567 32.8733 124.287 33.34C124.02 33.7933 123.887 34.4267 123.887 35.24V40H121.767ZM133.524 40C132.551 40 131.778 39.7667 131.204 39.3C130.631 38.82 130.344 37.9733 130.344 36.76V31.86H128.644V30.08H130.344L130.604 27.56H132.464V30.08H135.264V31.86H132.464V36.76C132.464 37.3067 132.578 37.6867 132.804 37.9C133.044 38.1 133.451 38.2 134.024 38.2H135.164V40H133.524ZM141.836 40.24C140.863 40.24 139.996 40.0267 139.236 39.6C138.49 39.16 137.903 38.5533 137.476 37.78C137.05 37.0067 136.836 36.1067 136.836 35.08C136.836 34.04 137.043 33.1267 137.456 32.34C137.883 31.5533 138.47 30.94 139.216 30.5C139.976 30.06 140.856 29.84 141.856 29.84C142.83 29.84 143.676 30.06 144.396 30.5C145.116 30.9267 145.676 31.5 146.076 32.22C146.476 32.94 146.676 33.7333 146.676 34.6C146.676 34.7333 146.67 34.88 146.656 35.04C146.656 35.1867 146.65 35.3533 146.636 35.54H138.916C138.983 36.5 139.296 37.2333 139.856 37.74C140.43 38.2333 141.09 38.48 141.836 38.48C142.436 38.48 142.936 38.3467 143.336 38.08C143.75 37.8 144.056 37.4267 144.256 36.96H146.376C146.11 37.8933 145.576 38.6733 144.776 39.3C143.99 39.9267 143.01 40.24 141.836 40.24ZM141.836 31.58C141.13 31.58 140.503 31.7933 139.956 32.22C139.41 32.6333 139.076 33.26 138.956 34.1H144.556C144.516 33.3267 144.243 32.7133 143.736 32.26C143.23 31.8067 142.596 31.58 141.836 31.58ZM153.396 40.24C152.436 40.24 151.589 40.0133 150.856 39.56C150.123 39.1067 149.549 38.4867 149.136 37.7C148.723 36.9133 148.516 36.02 148.516 35.02C148.516 34.02 148.723 33.1333 149.136 32.36C149.549 31.5733 150.123 30.96 150.856 30.52C151.603 30.0667 152.456 29.84 153.416 29.84C154.203 29.84 154.889 29.9933 155.476 30.3C156.076 30.6067 156.543 31.04 156.876 31.6V25.6H158.996V40H157.096L156.876 38.46C156.556 38.9267 156.116 39.34 155.556 39.7C154.996 40.06 154.276 40.24 153.396 40.24ZM153.776 38.4C154.683 38.4 155.423 38.0867 155.996 37.46C156.583 36.8333 156.876 36.0267 156.876 35.04C156.876 34.04 156.583 33.2333 155.996 32.62C155.423 31.9933 154.683 31.68 153.776 31.68C152.869 31.68 152.123 31.9933 151.536 32.62C150.949 33.2333 150.656 34.04 150.656 35.04C150.656 35.6933 150.789 36.2733 151.056 36.78C151.323 37.2867 151.689 37.6867 152.156 37.98C152.636 38.26 153.176 38.4 153.776 38.4ZM168.688 40L165.768 30.08H167.888L169.808 37.56L171.968 30.08H174.328L176.488 37.56L178.408 30.08H180.528L177.608 40H175.428L173.148 32.2L170.868 40H168.688ZM183.475 28.2C183.075 28.2 182.741 28.08 182.475 27.84C182.221 27.5867 182.095 27.2733 182.095 26.9C182.095 26.5267 182.221 26.22 182.475 25.98C182.741 25.7267 183.075 25.6 183.475 25.6C183.875 25.6 184.201 25.7267 184.455 25.98C184.721 26.22 184.855 26.5267 184.855 26.9C184.855 27.2733 184.721 27.5867 184.455 27.84C184.201 28.08 183.875 28.2 183.475 28.2ZM182.415 40V30.08H184.535V40H182.415ZM191.493 40C190.52 40 189.746 39.7667 189.173 39.3C188.6 38.82 188.313 37.9733 188.313 36.76V31.86H186.613V30.08H188.313L188.573 27.56H190.433V30.08H193.233V31.86H190.433V36.76C190.433 37.3067 190.546 37.6867 190.773 37.9C191.013 38.1 191.42 38.2 191.993 38.2H193.133V40H191.493ZM195.419 40V25.6H197.539V31.68C197.872 31.1067 198.332 30.66 198.919 30.34C199.519 30.0067 200.179 29.84 200.899 29.84C202.086 29.84 203.019 30.2133 203.699 30.96C204.379 31.7067 204.719 32.82 204.719 34.3V40H202.619V34.52C202.619 32.6 201.852 31.64 200.319 31.64C199.519 31.64 198.852 31.92 198.319 32.48C197.799 33.04 197.539 33.84 197.539 34.88V40H195.419ZM216.315 40.24C215.435 40.24 214.662 40.1 213.995 39.82C213.328 39.5267 212.795 39.1267 212.395 38.62C211.995 38.1133 211.755 37.5267 211.675 36.86H214.255C214.335 37.2467 214.548 37.58 214.895 37.86C215.255 38.1267 215.715 38.26 216.275 38.26C216.835 38.26 217.242 38.1467 217.495 37.92C217.762 37.6933 217.895 37.4333 217.895 37.14C217.895 36.7133 217.708 36.4267 217.335 36.28C216.962 36.12 216.442 35.9667 215.775 35.82C215.348 35.7267 214.915 35.6133 214.475 35.48C214.035 35.3467 213.628 35.18 213.255 34.98C212.895 34.7667 212.602 34.5 212.375 34.18C212.148 33.8467 212.035 33.44 212.035 32.96C212.035 32.08 212.382 31.34 213.075 30.74C213.782 30.14 214.768 29.84 216.035 29.84C217.208 29.84 218.142 30.1133 218.835 30.66C219.542 31.2067 219.962 31.96 220.095 32.92H217.675C217.528 32.1867 216.975 31.82 216.015 31.82C215.535 31.82 215.162 31.9133 214.895 32.1C214.642 32.2867 214.515 32.52 214.515 32.8C214.515 33.0933 214.708 33.3267 215.095 33.5C215.482 33.6733 215.995 33.8333 216.635 33.98C217.328 34.14 217.962 34.32 218.535 34.52C219.122 34.7067 219.588 34.9933 219.935 35.38C220.282 35.7533 220.455 36.2933 220.455 37C220.468 37.6133 220.308 38.1667 219.975 38.66C219.642 39.1533 219.162 39.54 218.535 39.82C217.908 40.1 217.168 40.24 216.315 40.24ZM226.443 40.24C225.203 40.24 224.243 39.8533 223.563 39.08C222.896 38.3067 222.563 37.1733 222.563 35.68V30.08H225.103V35.44C225.103 36.2933 225.276 36.9467 225.623 37.4C225.97 37.8533 226.516 38.08 227.263 38.08C227.97 38.08 228.55 37.8267 229.003 37.32C229.47 36.8133 229.703 36.1067 229.703 35.2V30.08H232.263V40H230.003L229.803 38.32C229.496 38.9067 229.05 39.3733 228.463 39.72C227.89 40.0667 227.216 40.24 226.443 40.24ZM240.771 40.24C240.024 40.24 239.371 40.1 238.811 39.82C238.251 39.54 237.797 39.1467 237.451 38.64L237.171 40H234.891V25.6H237.451V31.5C237.771 31.06 238.191 30.6733 238.711 30.34C239.244 30.0067 239.931 29.84 240.771 29.84C241.704 29.84 242.537 30.0667 243.271 30.52C244.004 30.9733 244.584 31.5933 245.011 32.38C245.437 33.1667 245.651 34.06 245.651 35.06C245.651 36.06 245.437 36.9533 245.011 37.74C244.584 38.5133 244.004 39.1267 243.271 39.58C242.537 40.02 241.704 40.24 240.771 40.24ZM240.231 38C241.044 38 241.717 37.7267 242.251 37.18C242.784 36.6333 243.051 35.9267 243.051 35.06C243.051 34.1933 242.784 33.48 242.251 32.92C241.717 32.36 241.044 32.08 240.231 32.08C239.404 32.08 238.724 32.36 238.191 32.92C237.671 33.4667 237.411 34.1733 237.411 35.04C237.411 35.9067 237.671 36.62 238.191 37.18C238.724 37.7267 239.404 38 240.231 38ZM247.938 40V25.6H250.498V40H247.938ZM257.933 40.24C256.933 40.24 256.047 40.0267 255.273 39.6C254.5 39.1733 253.893 38.5733 253.453 37.8C253.013 37.0267 252.793 36.1333 252.793 35.12C252.793 34.0933 253.007 33.18 253.433 32.38C253.873 31.58 254.473 30.96 255.233 30.52C256.007 30.0667 256.913 29.84 257.953 29.84C258.927 29.84 259.787 30.0533 260.533 30.48C261.28 30.9067 261.86 31.4933 262.273 32.24C262.7 32.9733 262.913 33.7933 262.913 34.7C262.913 34.8467 262.907 35 262.893 35.16C262.893 35.32 262.887 35.4867 262.873 35.66H255.333C255.387 36.4333 255.653 37.04 256.133 37.48C256.627 37.92 257.22 38.14 257.913 38.14C258.433 38.14 258.867 38.0267 259.213 37.8C259.573 37.56 259.84 37.2533 260.013 36.88H262.613C262.427 37.5067 262.113 38.08 261.673 38.6C261.247 39.1067 260.713 39.5067 260.073 39.8C259.447 40.0933 258.733 40.24 257.933 40.24ZM257.953 31.92C257.327 31.92 256.773 32.1 256.293 32.46C255.813 32.8067 255.507 33.34 255.373 34.06H260.313C260.273 33.4067 260.033 32.8867 259.593 32.5C259.153 32.1133 258.607 31.92 257.953 31.92ZM269.167 40.24C268.287 40.24 267.513 40.1 266.847 39.82C266.18 39.5267 265.647 39.1267 265.247 38.62C264.847 38.1133 264.607 37.5267 264.527 36.86H267.107C267.187 37.2467 267.4 37.58 267.747 37.86C268.107 38.1267 268.567 38.26 269.127 38.26C269.687 38.26 270.093 38.1467 270.347 37.92C270.613 37.6933 270.747 37.4333 270.747 37.14C270.747 36.7133 270.56 36.4267 270.187 36.28C269.813 36.12 269.293 35.9667 268.627 35.82C268.2 35.7267 267.767 35.6133 267.327 35.48C266.887 35.3467 266.48 35.18 266.107 34.98C265.747 34.7667 265.453 34.5 265.227 34.18C265 33.8467 264.887 33.44 264.887 32.96C264.887 32.08 265.233 31.34 265.927 30.74C266.633 30.14 267.62 29.84 268.887 29.84C270.06 29.84 270.993 30.1133 271.687 30.66C272.393 31.2067 272.813 31.96 272.947 32.92H270.527C270.38 32.1867 269.827 31.82 268.867 31.82C268.387 31.82 268.013 31.9133 267.747 32.1C267.493 32.2867 267.367 32.52 267.367 32.8C267.367 33.0933 267.56 33.3267 267.947 33.5C268.333 33.6733 268.847 33.8333 269.487 33.98C270.18 34.14 270.813 34.32 271.387 34.52C271.973 34.7067 272.44 34.9933 272.787 35.38C273.133 35.7533 273.307 36.2933 273.307 37C273.32 37.6133 273.16 38.1667 272.827 38.66C272.493 39.1533 272.013 39.54 271.387 39.82C270.76 40.1 270.02 40.24 269.167 40.24ZM279.674 40.24C278.794 40.24 278.021 40.1 277.354 39.82C276.688 39.5267 276.154 39.1267 275.754 38.62C275.354 38.1133 275.114 37.5267 275.034 36.86H277.614C277.694 37.2467 277.908 37.58 278.254 37.86C278.614 38.1267 279.074 38.26 279.634 38.26C280.194 38.26 280.601 38.1467 280.854 37.92C281.121 37.6933 281.254 37.4333 281.254 37.14C281.254 36.7133 281.068 36.4267 280.694 36.28C280.321 36.12 279.801 35.9667 279.134 35.82C278.708 35.7267 278.274 35.6133 277.834 35.48C277.394 35.3467 276.988 35.18 276.614 34.98C276.254 34.7667 275.961 34.5 275.734 34.18C275.508 33.8467 275.394 33.44 275.394 32.96C275.394 32.08 275.741 31.34 276.434 30.74C277.141 30.14 278.128 29.84 279.394 29.84C280.568 29.84 281.501 30.1133 282.194 30.66C282.901 31.2067 283.321 31.96 283.454 32.92H281.034C280.888 32.1867 280.334 31.82 279.374 31.82C278.894 31.82 278.521 31.9133 278.254 32.1C278.001 32.2867 277.874 32.52 277.874 32.8C277.874 33.0933 278.068 33.3267 278.454 33.5C278.841 33.6733 279.354 33.8333 279.994 33.98C280.688 34.14 281.321 34.32 281.894 34.52C282.481 34.7067 282.948 34.9933 283.294 35.38C283.641 35.7533 283.814 36.2933 283.814 37C283.828 37.6133 283.668 38.1667 283.334 38.66C283.001 39.1533 282.521 39.54 281.894 39.82C281.268 40.1 280.528 40.24 279.674 40.24Z" fill="white"/>
</g>
<defs>
<filter id="filter0_dd_470_1540" x="11.6865" y="7" width="286.627" height="54" filterUnits="userSpaceOnUse" color-interpolation-filters="sRGB">
<feFlood flood-opacity="0" result="BackgroundImageFix"/>
<feColorMatrix in="SourceAlpha" type="matrix" values="0 0 0 0 0 0 0 0 0 0 0 0 0 0 0 0 0 0 127 0" result="hardAlpha"/>
<feOffset dy="2"/>
<feGaussianBlur stdDeviation="1.5"/>
<feColorMatrix type="matrix" values="0 0 0 0 0 0 0 0 0 0 0 0 0 0 0 0 0 0 0.168 0"/>
<feBlend mode="normal" in2="BackgroundImageFix" result="effect1_dropShadow_470_1540"/>
<feColorMatrix in="SourceAlpha" type="matrix" values="0 0 0 0 0 0 0 0 0 0 0 0 0 0 0 0 0 0 127 0" result="hardAlpha"/>
<feOffset/>
<feGaussianBlur stdDeviation="1.5"/>
<feColorMatrix type="matrix" values="0 0 0 0 0 0 0 0 0 0 0 0 0 0 0 0 0 0 0.084 0"/>
<feBlend mode="normal" in2="effect1_dropShadow_470_1540" result="effect2_dropShadow_470_1540"/>
<feBlend mode="normal" in="SourceGraphic" in2="effect2_dropShadow_470_1540" result="shape"/>
</filter>
<filter id="filter1_ddd_470_1540" x="0.0465908" y="0.740505" width="73.5025" height="73.0943" filterUnits="userSpaceOnUse" color-interpolation-filters="sRGB">
<feFlood flood-opacity="0" result="BackgroundImageFix"/>
<feColorMatrix in="SourceAlpha" type="matrix" values="0 0 0 0 0 0 0 0 0 0 0 0 0 0 0 0 0 0 127 0" result="hardAlpha"/>
<feOffset dy="0.384886"/>
<feGaussianBlur stdDeviation="0.812536"/>
<feColorMatrix type="matrix" values="0 0 0 0 0 0 0 0 0 0 0 0 0 0 0 0 0 0 0.08 0"/>
<feBlend mode="normal" in2="BackgroundImageFix" result="effect1_dropShadow_470_1540"/>
<feColorMatrix in="SourceAlpha" type="matrix" values="0 0 0 0 0 0 0 0 0 0 0 0 0 0 0 0 0 0 127 0" result="hardAlpha"/>
<feOffset dy="1.29275"/>
<feGaussianBlur stdDeviation="2.72914"/>
<feColorMatrix type="matrix" values="0 0 0 0 0 0 0 0 0 0 0 0 0 0 0 0 0 0 0.0476886 0"/>
<feBlend mode="normal" in2="effect1_dropShadow_470_1540" result="effect2_dropShadow_470_1540"/>
<feColorMatrix in="SourceAlpha" type="matrix" values="0 0 0 0 0 0 0 0 0 0 0 0 0 0 0 0 0 0 127 0" result="hardAlpha"/>
<feOffset dy="5.78766"/>
<feGaussianBlur stdDeviation="12.2184"/>
<feColorMatrix type="matrix" values="0 0 0 0 0 0 0 0 0 0 0 0 0 0 0 0 0 0 0.0323114 0"/>
<feBlend mode="normal" in2="effect2_dropShadow_470_1540" result="effect3_dropShadow_470_1540"/>
<feBlend mode="normal" in="SourceGraphic" in2="effect3_dropShadow_470_1540" result="shape"/>
</filter>
</defs>
</svg>
