<svg width="30" height="30" viewBox="0 0 30 30" fill="none" xmlns="http://www.w3.org/2000/svg">
<path d="M4.03105 11.4525C4.53316 9.90509 5.35667 8.48236 6.44712 7.27836C6.53741 7.17894 6.65497 7.10857 6.78501 7.0761C6.91504 7.04362 7.05173 7.0505 7.17788 7.09587L9.77951 8.02559C9.96432 8.09137 10.1611 8.1162 10.3564 8.09836C10.5516 8.08052 10.7408 8.02044 10.9107 7.92225C11.0806 7.82405 11.2274 7.69007 11.3409 7.52952C11.4544 7.36896 11.5319 7.18564 11.5681 6.99214L12.0655 4.27214C12.0898 4.13994 12.1525 4.01792 12.2458 3.9215C12.3391 3.82509 12.4588 3.7586 12.5897 3.73045C14.1789 3.39193 15.8211 3.39193 17.4103 3.73045C17.6782 3.78807 17.8848 4.0013 17.9345 4.27214L18.4319 6.99214C18.4675 7.18596 18.5447 7.36968 18.658 7.53059C18.7713 7.6915 18.9181 7.82575 19.0883 7.92405C19.2584 8.02234 19.4478 8.08233 19.6433 8.09986C19.8388 8.1174 20.0357 8.09205 20.2205 8.02559L22.8221 7.09587C22.9483 7.0505 23.085 7.04362 23.215 7.0761C23.345 7.10857 23.4626 7.17894 23.5529 7.27836C24.6414 8.48276 25.4658 9.90423 25.967 11.4525C26.0084 11.5804 26.0109 11.7178 25.9741 11.8472C25.9373 11.9765 25.8629 12.0919 25.7604 12.1786L23.6524 13.9669C23.5023 14.0937 23.3816 14.2519 23.2988 14.4304C23.2161 14.6089 23.1732 14.8035 23.1732 15.0004C23.1732 15.1973 23.2161 15.3919 23.2988 15.5704C23.3816 15.7489 23.5023 15.9071 23.6524 16.0338L25.7604 17.8222C25.9709 18.0008 26.0512 18.2871 25.967 18.5483C25.4656 20.0955 24.6427 21.5183 23.5529 22.7224C23.4626 22.8218 23.345 22.8922 23.215 22.9247C23.085 22.9572 22.9483 22.9503 22.8221 22.9049L20.2205 21.9752C20.0357 21.9094 19.8389 21.8846 19.6436 21.9024C19.4484 21.9203 19.2592 21.9803 19.0893 22.0785C18.9194 22.1767 18.7726 22.3107 18.6591 22.4713C18.5456 22.6318 18.4681 22.8151 18.4319 23.0086L17.9345 25.7286C17.9103 25.8612 17.8474 25.9835 17.7537 26.08C17.66 26.1765 17.5398 26.2427 17.4084 26.2703C15.8199 26.6088 14.1782 26.6088 12.5897 26.2703C12.4584 26.2425 12.3383 26.1762 12.2447 26.0797C12.151 25.9833 12.088 25.8611 12.0636 25.7286L11.5681 23.0086C11.5325 22.8148 11.4554 22.6311 11.342 22.4702C11.2287 22.3093 11.0819 22.175 10.9117 22.0767C10.7416 21.9784 10.5522 21.9184 10.3567 21.9009C10.1612 21.8834 9.96429 21.9087 9.77951 21.9752L7.17788 22.9049C7.05173 22.9503 6.91504 22.9572 6.78501 22.9247C6.65497 22.8922 6.53741 22.8218 6.44712 22.7224C5.35735 21.5182 4.5345 20.0955 4.03296 18.5483C3.99156 18.4204 3.98911 18.2829 4.02591 18.1536C4.06271 18.0242 4.1371 17.9089 4.23956 17.8222L6.34765 16.0338C6.49744 15.9069 6.61783 15.7486 6.70041 15.5702C6.78299 15.3917 6.82577 15.1972 6.82577 15.0004C6.82577 14.8036 6.78299 14.6091 6.70041 14.4306C6.61783 14.2521 6.49744 14.0939 6.34765 13.9669L4.23956 12.1786C4.1371 12.0919 4.06271 11.9765 4.02591 11.8472C3.98911 11.7178 3.99156 11.5804 4.03296 11.4525H4.03105ZM10.6504 15.0004C10.6504 15.8919 11.0031 17.747 11.6309 18.3774C12.2587 19.0078 14.1102 19.362 14.9981 19.362C15.886 19.362 17.7374 19.0078 18.3653 18.3774C18.9931 17.747 19.3458 15.8919 19.3458 15.0004C19.3458 14.1088 18.9931 12.2538 18.3653 11.6234C17.7374 10.993 15.886 10.6388 14.9981 10.6388C14.1102 10.6388 12.2587 10.993 11.6309 11.6234C11.0031 12.2538 10.6504 14.1088 10.6504 15.0004Z" fill="white"/>
</svg>
