<svg width="30" height="30" viewBox="0 0 30 30" fill="none" xmlns="http://www.w3.org/2000/svg">
<path d="M24 16C24.5523 16 25.0047 16.4486 24.9546 16.9986C24.7884 18.8218 24.1691 20.5803 23.1462 22.1113C21.9375 23.9202 20.2195 25.3301 18.2095 26.1627C16.1995 26.9952 13.9878 27.2131 11.854 26.7886C9.72022 26.3642 7.7602 25.3166 6.22183 23.7782C4.68345 22.2398 3.6358 20.2798 3.21136 18.146C2.78692 16.0122 3.00476 13.8005 3.83733 11.7905C4.66989 9.7805 6.07979 8.06253 7.88873 6.85383C9.41966 5.8309 11.1782 5.21161 13.0014 5.04542C13.5514 4.99528 14 5.44772 14 6V15C14 15.5523 14.4477 16 15 16H24Z" fill="white"/>
<path d="M16 4C16 3.44772 16.4486 2.99529 16.9986 3.04542C18.1008 3.1459 19.1835 3.41233 20.2095 3.83733C21.5441 4.39013 22.7567 5.20038 23.7782 6.22183C24.7996 7.24327 25.6099 8.4559 26.1627 9.79048C26.5877 10.8165 26.8541 11.8992 26.9546 13.0014C27.0047 13.5514 26.5523 14 26 14L17 14C16.4477 14 16 13.5523 16 13L16 4Z" fill="white"/>
</svg>
