<svg width="30" height="30" viewBox="0 0 30 30" fill="none" xmlns="http://www.w3.org/2000/svg">
<path fill-rule="evenodd" clip-rule="evenodd" d="M5.04688 4C4.23879 4 3.46381 4.32101 2.89241 4.89241C2.32101 5.46381 2 6.23879 2 7.04688V9H28.25V7.04688C28.25 6.23879 27.929 5.46381 27.3576 4.89241C26.7862 4.32101 26.0112 4 25.2031 4H5.04688ZM2 23.4531V13H28.25V23.4531C28.25 23.8532 28.1712 24.2495 28.0181 24.6191C27.865 24.9888 27.6405 25.3247 27.3576 25.6076C27.0747 25.8905 26.7388 26.115 26.3691 26.2681C25.9995 26.4212 25.6032 26.5 25.2031 26.5H5.04688C4.64675 26.5 4.25055 26.4212 3.88089 26.2681C3.51122 26.115 3.17534 25.8905 2.89241 25.6076C2.60948 25.3247 2.38505 24.9888 2.23193 24.6191C2.07881 24.2495 2 23.8532 2 23.4531ZM20.0469 18C19.4946 18 19.0469 18.4477 19.0469 19V21C19.0469 21.5523 19.4946 22 20.0469 22H24.0469C24.5992 22 25.0469 21.5523 25.0469 21V19C25.0469 18.4477 24.5992 18 24.0469 18H20.0469Z" fill="white"/>
</svg>
