<svg width="30" height="30" viewBox="0 0 30 30" fill="none" xmlns="http://www.w3.org/2000/svg">
<path d="M5.04688 4C4.23879 4 3.46381 4.32101 2.89241 4.89241C2.32101 5.46381 2 6.23879 2 7.04688V23.4531C2 23.8532 2.07881 24.2495 2.23193 24.6191C2.38505 24.9888 2.60948 25.3247 2.89241 25.6076C3.17534 25.8905 3.51122 26.115 3.88089 26.2681C4.25055 26.4212 4.64675 26.5 5.04688 26.5H25.2031C25.6032 26.5 25.9995 26.4212 26.3691 26.2681C26.7388 26.115 27.0747 25.8905 27.3576 25.6076C27.6405 25.3247 27.865 24.9888 28.0181 24.6191C28.1712 24.2495 28.25 23.8532 28.25 23.4531V7.04688C28.25 6.23879 27.929 5.46381 27.3576 4.89241C26.7862 4.32101 26.0112 4 25.2031 4H5.04688ZM17 12.4375C17 12.1889 17.0988 11.9504 17.2746 11.7746C17.4504 11.5988 17.6889 11.5 17.9375 11.5H23.5625C23.8111 11.5 24.0496 11.5988 24.2254 11.7746C24.4012 11.9504 24.5 12.1889 24.5 12.4375C24.5 12.6861 24.4012 12.9246 24.2254 13.1004C24.0496 13.2762 23.8111 13.375 23.5625 13.375H17.9375C17.6889 13.375 17.4504 13.2762 17.2746 13.1004C17.0988 12.9246 17 12.6861 17 12.4375ZM17.9375 16.1875H23.5625C23.8111 16.1875 24.0496 16.2863 24.2254 16.4621C24.4012 16.6379 24.5 16.8764 24.5 17.125C24.5 17.3736 24.4012 17.6121 24.2254 17.7879C24.0496 17.9637 23.8111 18.0625 23.5625 18.0625H17.9375C17.6889 18.0625 17.4504 17.9637 17.2746 17.7879C17.0988 17.6121 17 17.3736 17 17.125C17 16.8764 17.0988 16.6379 17.2746 16.4621C17.4504 16.2863 17.6889 16.1875 17.9375 16.1875ZM12.3125 12.4375C12.3125 12.9348 12.115 13.4117 11.7633 13.7633C11.4117 14.115 10.9348 14.3125 10.4375 14.3125C9.94022 14.3125 9.46331 14.115 9.11168 13.7633C8.76004 13.4117 8.5625 12.9348 8.5625 12.4375C8.5625 11.9402 8.76004 11.4633 9.11168 11.1117C9.46331 10.76 9.94022 10.5625 10.4375 10.5625C10.9348 10.5625 11.4117 10.76 11.7633 11.1117C12.115 11.4633 12.3125 11.9402 12.3125 12.4375ZM6.6875 16.6562C6.6875 16.2833 6.83566 15.9256 7.09938 15.6619C7.3631 15.3982 7.72079 15.25 8.09375 15.25H12.7812C13.1542 15.25 13.5119 15.3982 13.7756 15.6619C14.0393 15.9256 14.1875 16.2833 14.1875 16.6562C14.1875 16.6562 14.1875 19.9375 10.4375 19.9375C6.6875 19.9375 6.6875 16.6562 6.6875 16.6562Z" fill="white"/>
</svg>
