<svg width="66" height="66" viewBox="0 0 66 66" fill="none" xmlns="http://www.w3.org/2000/svg">
<path d="M20.5072 45.4525C20.6156 44.1284 20.9109 42.8297 21.3832 41.6023C21.9915 40.0212 22.8796 38.5937 23.9904 37.3978C25.1009 36.2022 26.4113 35.2623 27.8426 34.624C29.2734 33.986 30.8012 33.6598 32.3402 33.6598C33.8791 33.6598 35.4069 33.986 36.8378 34.624C38.269 35.2623 39.5794 36.2022 40.69 37.3978C41.8008 38.5937 42.6889 40.0212 43.2972 41.6023C43.7695 42.8297 44.0648 44.1284 44.1732 45.4525C42.8284 45.9797 39.4996 46.8598 32.3402 46.8598C25.1808 46.8598 21.852 45.9797 20.5072 45.4525Z" stroke="white" stroke-width="3.96"/>
<circle cx="32.3398" cy="25.7402" r="6.6" stroke="white" stroke-width="3.96"/>
</svg>
