<?xml version="1.0" encoding="UTF-8" standalone="no"?>
<svg
   version="1.1"
   id="Layer_1"
   x="0px"
   y="0px"
   width="122.879px"
   height="103.609px"
   viewBox="0 0 122.879 103.609"
   enable-background="new 0 0 122.879 103.609"
   xml:space="preserve"
   sodipodi:docname="hamburgerMenuWhite.svg"
   inkscape:version="1.1.2 (76b9e6a115, 2022-02-25)"
   xmlns:inkscape="http://www.inkscape.org/namespaces/inkscape"
   xmlns:sodipodi="http://sodipodi.sourceforge.net/DTD/sodipodi-0.dtd"
   xmlns="http://www.w3.org/2000/svg"
   xmlns:svg="http://www.w3.org/2000/svg"><defs
     id="defs1009" /><sodipodi:namedview
     id="namedview1007"
     pagecolor="#ffffff"
     bordercolor="#666666"
     borderopacity="1.0"
     inkscape:pageshadow="2"
     inkscape:pageopacity="0.0"
     inkscape:pagecheckerboard="0"
     showgrid="false"
     inkscape:zoom="5.6099544"
     inkscape:cx="38.502987"
     inkscape:cy="44.207133"
     inkscape:window-width="1920"
     inkscape:window-height="1011"
     inkscape:window-x="0"
     inkscape:window-y="32"
     inkscape:window-maximized="1"
     inkscape:current-layer="Layer_1" /><g
     id="g1004"
     transform="translate(8.037797,4.6145347)"><path
       fill-rule="evenodd"
       clip-rule="evenodd"
       d="m 22.78246,12.375075 h 63.492159 c 3.54495,0 6.444066,2.899738 6.444066,6.44407 v 0 c 0,3.544333 -2.899116,6.444694 -6.444066,6.444694 H 22.78246 c -3.544333,0 -6.444693,-2.89974 -6.444693,-6.444072 v 0 c 0,-3.544954 2.90036,-6.444692 6.444693,-6.444692 z m 0,51.514651 h 63.492159 c 3.54495,0 6.444066,2.899739 6.444066,6.444071 v 0 c 0,3.544331 -2.899116,6.444072 -6.444066,6.444072 H 22.78246 c -3.544333,0 -6.444693,-2.899741 -6.444693,-6.444072 v 0 c 0,-3.544332 2.90036,-6.444071 6.444693,-6.444071 z m 0,-25.757015 h 63.492159 c 3.54495,0 6.444066,2.899739 6.444066,6.444071 v 0 c 0,3.544333 -2.899116,6.444693 -6.444066,6.444693 H 22.78246 c -3.544333,0 -6.444693,-2.90036 -6.444693,-6.444693 v 0 c 0,-3.544332 2.90036,-6.444071 6.444693,-6.444071 z"
       id="path2235"
       style="fill:#ffffff;fill-opacity:1;stroke-width:0.621595" /></g></svg>
