<svg width="30" height="30" viewBox="0 0 30 30" fill="none" xmlns="http://www.w3.org/2000/svg">
<path fill-rule="evenodd" clip-rule="evenodd" d="M17 7.5C17 5.5 15.2608 4 13.7059 4H5.88235C5.11816 4.00099 4.38549 4.37006 3.84512 5.02622C3.30476 5.68239 3.00082 6.57205 3 7.5V22.5C3.00082 23.428 3.30476 24.3176 3.84512 24.9738C4.38549 25.6299 5.11816 25.999 5.88235 26H14.1176C14.8818 25.999 15.6145 25.6299 16.1549 24.9738C16.6952 24.3176 16.9992 23.428 17 22.5V16H9.12499C8.5727 16 8.12499 15.5523 8.12499 15C8.12499 14.4477 8.5727 14 9.12499 14H17V13.9524V7.5Z" fill="white"/>
<path d="M18 14H17V16H18V14ZM27 15L27.7071 15.7071C28.0976 15.3166 28.0976 14.6834 27.7071 14.2929L27 15ZM22.7071 9.29289C22.3166 8.90237 21.6834 8.90237 21.2929 9.29289C20.9024 9.68342 20.9024 10.3166 21.2929 10.7071L22.7071 9.29289ZM21.2929 19.2929C20.9024 19.6834 20.9024 20.3166 21.2929 20.7071C21.6834 21.0976 22.3166 21.0976 22.7071 20.7071L21.2929 19.2929ZM18 16H27V14H18V16ZM27.7071 14.2929L22.7071 9.29289L21.2929 10.7071L26.2929 15.7071L27.7071 14.2929ZM26.2929 14.2929L21.2929 19.2929L22.7071 20.7071L27.7071 15.7071L26.2929 14.2929Z" fill="white"/>
</svg>
