<svg width="67" height="67" viewBox="0 0 67 67" fill="none" xmlns="http://www.w3.org/2000/svg">
<path d="M44.675 40.4004C49.6394 40.4108 49.6064 38.1693 49.6394 36.6415L49.6394 30.0468C49.6284 27.2881 47.4082 26.3209 45.8804 26.2879L42.1325 26.2989L39.2858 23.4522C37.1975 21.3639 34.8893 21.254 33.0099 21.9025L25.9836 21.9025C24.2332 21.9025 22.5544 22.5978 21.3167 23.8356L18.8534 26.2989L18.8201 26.2983C16.0614 26.3093 15.0942 28.5295 15.0612 30.0572L15.0612 36.6519C15.0612 37.8389 15.4788 38.6962 16.0834 39.3007C16.8637 40.0811 17.9628 40.4108 18.8201 40.4108L23.2498 40.3895L25.6412 44.3353C27.5097 46.2037 29.62 45.9839 31.1038 45.1816C32.6755 46.0938 34.3022 45.83 35.5002 45.1816C37.6435 46.4455 39.8966 45.4673 41.0287 44.3353L44.675 40.4004ZM38.8305 42.137C38.3359 42.6316 37.5226 42.3788 36.6323 41.4886L35.5332 40.3895L34.4341 41.4886C33.9395 41.9832 33.1261 42.3788 32.2359 41.4886L31.1367 40.3895L30.0376 41.4886C29.543 41.9832 28.7297 43.0273 27.8394 42.137L24.5467 37.29L18.8531 37.3003C18.1936 37.2784 18.1827 36.8937 18.1827 36.6519L18.1717 30.0902C18.1936 29.4307 18.5783 29.4197 18.8201 29.4197L20.1503 29.3984L24.5467 25.0019H28.9432L27.1956 26.7495C25.8657 28.0794 24.7775 30.9261 27.1956 33.3442C29.6136 35.7622 32.4603 34.6741 33.7902 33.3442L39.9296 41.0379L38.8305 42.137ZM45.8804 37.279L40.5781 37.29L33.7902 29.4197L31.592 31.146C31.0974 31.6406 30.2841 32.0362 29.3938 31.146C28.5035 30.2557 28.8992 29.4423 29.3938 28.9477L32.6911 25.6504C33.1967 25.1448 35.0762 23.639 37.0876 25.6504L40.8355 29.3984L45.8474 29.3984C46.5069 29.4204 46.5179 29.805 46.5179 30.0468L46.5289 36.6085C46.5069 37.268 46.1222 37.279 45.8804 37.279Z" fill="white"/>
</svg>
