<svg width="45" height="45" viewBox="0 0 45 45" fill="none" xmlns="http://www.w3.org/2000/svg">
<path d="M9.3 12.375V32.625H35.7V12.375H9.3ZM9.3 9H35.7C36.5752 9 37.4146 9.35558 38.0335 9.98851C38.6523 10.6214 39 11.4799 39 12.375V32.625C39 33.5201 38.6523 34.3785 38.0335 35.0115C37.4146 35.6444 36.5752 36 35.7 36H9.3C8.42479 36 7.58542 35.6444 6.96655 35.0115C6.34768 34.3785 6 33.5201 6 32.625V12.375C6 11.4799 6.34768 10.6214 6.96655 9.98851C7.58542 9.35558 8.42479 9 9.3 9ZM15.075 20.8125C15.7314 20.8125 16.3609 20.5458 16.8251 20.0711C17.2892 19.5964 17.55 18.9526 17.55 18.2812C17.55 17.6099 17.2892 16.9661 16.8251 16.4914C16.3609 16.0167 15.7314 15.75 15.075 15.75C14.4186 15.75 13.7891 16.0167 13.3249 16.4914C12.8608 16.9661 12.6 17.6099 12.6 18.2812C12.6 18.9526 12.8608 19.5964 13.3249 20.0711C13.7891 20.5458 14.4186 20.8125 15.075 20.8125ZM14.25 25.875L17.55 22.5L20.85 25.875L27.45 19.125L32.4 24.1875V29.25H14.25V25.875Z" fill="white"/>
</svg>
