<svg width="30" height="30" viewBox="0 0 30 30" fill="none" xmlns="http://www.w3.org/2000/svg">
<path d="M15 2.5C8.1 2.5 2.5 8.1 2.5 15C2.5 21.9 8.1 27.5 15 27.5C21.9 27.5 27.5 21.9 27.5 15C27.5 8.1 21.9 2.5 15 2.5ZM15.5875 23.2357C15.3987 23.4252 15.075 23.2914 15.075 23.0239V21.2375H15C13.4 21.2375 11.8 20.625 10.575 19.4125C9.55755 18.394 8.92242 17.0558 8.77669 15.6235C8.64341 14.3137 8.92692 12.9984 9.58174 11.8633C9.67671 11.6987 9.90095 11.676 10.0353 11.8103L10.9928 12.7678C11.0862 12.8612 11.1065 13.0043 11.0501 13.1238C10.2821 14.7521 10.5427 16.7427 11.8875 18.0875C12.7625 18.9625 13.9125 19.375 15.0625 19.35V17.3993C15.0625 17.132 15.3856 16.9981 15.5746 17.1871L18.3882 20.0007C18.5053 20.1178 18.5054 20.3074 18.3886 20.4246L15.5875 23.2357ZM20.4059 18.1371C20.3109 18.3015 20.0868 18.3243 19.9525 18.19L18.9947 17.2322C18.9013 17.1388 18.881 16.9957 18.9374 16.8762C19.7054 15.2479 19.4448 13.2573 18.1 11.9125C17.6942 11.5034 17.2113 11.1789 16.6791 10.9579C16.147 10.7369 15.5762 10.6237 15 10.625H14.925V12.59C14.925 12.8571 14.6024 12.991 14.4132 12.8026L11.6004 9.99963C11.4829 9.88254 11.4827 9.6923 11.6 9.57499L14.4129 6.76213C14.6019 6.57314 14.925 6.70699 14.925 6.97426V8.775C16.55 8.75 18.1875 9.3375 19.425 10.5875C21.4599 12.6224 21.7869 15.7464 20.4059 18.1371Z" fill="white"/>
</svg>
