<?xml version="1.0" encoding="UTF-8" standalone="no"?>
<svg
   xmlns:dc="http://purl.org/dc/elements/1.1/"
   xmlns:cc="http://creativecommons.org/ns#"
   xmlns:rdf="http://www.w3.org/1999/02/22-rdf-syntax-ns#"
   xmlns:svg="http://www.w3.org/2000/svg"
   xmlns="http://www.w3.org/2000/svg"
   xmlns:sodipodi="http://sodipodi.sourceforge.net/DTD/sodipodi-0.dtd"
   xmlns:inkscape="http://www.inkscape.org/namespaces/inkscape"
   width="129.06732mm"
   height="121.65253mm"
   viewBox="0 0 129.06732 121.65253"
   version="1.1"
   id="svg8"
   inkscape:version="1.0.2-2 (e86c870879, 2021-01-15)"
   sodipodi:docname="profile.svg">
  <defs
     id="defs2" />
  <sodipodi:namedview
     id="base"
     pagecolor="#ffffff"
     bordercolor="#666666"
     borderopacity="1.0"
     inkscape:pageopacity="0.0"
     inkscape:pageshadow="2"
     inkscape:zoom="0.7"
     inkscape:cx="93.176832"
     inkscape:cy="186.19941"
     inkscape:document-units="mm"
     inkscape:current-layer="layer1"
     inkscape:document-rotation="0"
     showgrid="false"
     inkscape:window-width="1920"
     inkscape:window-height="1017"
     inkscape:window-x="1912"
     inkscape:window-y="-8"
     inkscape:window-maximized="1" />
  <metadata
     id="metadata5">
    <rdf:RDF>
      <cc:Work
         rdf:about="">
        <dc:format>image/svg+xml</dc:format>
        <dc:type
           rdf:resource="http://purl.org/dc/dcmitype/StillImage" />
        <dc:title />
      </cc:Work>
    </rdf:RDF>
  </metadata>
  <g
     inkscape:label="Layer 1"
     inkscape:groupmode="layer"
     id="layer1"
     transform="translate(-38.629164,-40.043685)">
    <path
       style="fill:#ffffff;fill-opacity:1;stroke-width:0.352778"
       d="m 41.189001,161.11802 c -1.418718,-0.6994 -2.559837,-2.48395 -2.559837,-4.00323 0,-2.05439 1.709435,-9.65573 3.014819,-13.40601 3.126978,-8.98357 7.641758,-16.49569 14.274905,-23.75194 3.53418,-3.86617 10.701207,-9.42575 15.763162,-12.22775 l 1.479278,-0.81883 1.955857,1.78754 c 7.234632,6.61205 17.901747,10.66483 28.070315,10.66483 10.16856,0 20.83568,-4.05278 28.07031,-10.66483 l 1.95585,-1.78754 1.47928,0.81883 c 16.4527,9.10724 28.44524,25.48057 32.18259,43.9387 1.05521,5.21148 1.07679,6.26165 0.15918,7.74637 -1.52281,2.46397 3.50374,2.28493 -63.90053,2.27603 -54.997516,-0.007 -60.910073,-0.0619 -61.945179,-0.57217 z M 98.601384,113.86147 C 89.303289,112.15208 82.68956,108.84137 76.92625,103.01132 61.193886,87.096772 62.990551,61.182752 80.761633,47.691999 c 15.765919,-11.968541 37.742017,-9.65952 50.527797,5.30893 10.74864,12.583543 11.85772,30.649393 2.73234,44.507203 -4.94499,7.509468 -13.57623,13.472498 -22.72039,15.696718 -2.22407,0.54099 -10.89144,0.98911 -12.699996,0.65662 z"
       id="path851" />
    <path
       style="fill:#000000;stroke-width:0.352778"
       id="path847"
       d="" />
  </g>
</svg>
