<svg width="519" height="204" viewBox="0 0 519 204" fill="none" xmlns="http://www.w3.org/2000/svg">
<rect width="519" height="204" rx="15" fill="#36245F"/>
<g filter="url(#filter0_d_168_1761)">
<path d="M111.221 139.726C111.221 145.473 115.881 150.133 121.628 150.133H159.354C168.215 150.133 175.398 142.949 175.398 134.088V118.044H116.425C113.551 118.044 111.221 120.374 111.221 123.248V139.726Z" fill="#3A0CA3"/>
<path d="M81.7345 85.0885H160.221C169.082 85.0885 176.266 92.2718 176.266 101.133V117.177H97.7788C88.9178 117.177 81.7345 109.994 81.7345 101.133V85.0885Z" fill="#40A3FE"/>
<path d="M146.779 63.4071C146.779 57.6594 142.119 53 136.372 53H98.646C89.785 53 82.6018 60.1833 82.6018 69.0442V85.0885H141.575C144.449 85.0885 146.779 82.7588 146.779 79.885V63.4071Z" fill="#F51D80"/>
<path d="M151.851 84.8022L151.832 81.3022L151.851 84.8022ZM106.018 56.5H135.504V49.5H106.018V56.5ZM83.5 88.327V79.0177H76.5V88.327H83.5ZM135.504 56.5C138.361 56.5 140.677 58.8158 140.677 61.6726H147.677C147.677 54.9498 142.227 49.5 135.504 49.5V56.5ZM106.018 49.5C89.7155 49.5 76.5 62.7155 76.5 79.0177H83.5C83.5 66.5815 93.5815 56.5 106.018 56.5V49.5ZM151.982 147.5H119.027V154.5H151.982V147.5ZM113.854 142.327V117.611H106.854V142.327H113.854ZM119.027 147.5C116.17 147.5 113.854 145.184 113.854 142.327H106.854C106.854 149.05 112.304 154.5 119.027 154.5V147.5ZM151.982 154.5C168.044 154.5 181.5 142.817 181.5 126.283H174.5C174.5 138.488 164.659 147.5 151.982 147.5V154.5ZM91.5043 81.5885C87.2568 81.5885 85.2736 80.3292 84.3833 79.4967C83.9035 79.048 83.6343 78.6237 83.4944 78.3543C83.4242 78.219 83.3875 78.1242 83.3746 78.0884C83.3682 78.0707 83.368 78.0685 83.3727 78.0842C83.375 78.0921 83.3786 78.1045 83.3833 78.1219C83.3857 78.1306 83.3883 78.1405 83.3912 78.1517C83.3926 78.1573 83.3941 78.1632 83.3957 78.1694C83.3964 78.1726 83.3972 78.1758 83.398 78.1791C83.3984 78.1807 83.3991 78.1832 83.3993 78.184C83.3999 78.1866 83.4005 78.1892 80 79.0177C76.5995 79.8462 76.6001 79.8489 76.6008 79.8515C76.601 79.8524 76.6016 79.8551 76.6021 79.8569C76.603 79.8606 76.6039 79.8643 76.6049 79.8682C76.6068 79.8759 76.6089 79.884 76.6111 79.8925C76.6154 79.9095 76.6203 79.9282 76.6258 79.9483C76.6367 79.9887 76.6498 80.0352 76.6655 80.0876C76.6967 80.1922 76.7381 80.3204 76.7917 80.4688C76.8988 80.765 77.056 81.1444 77.2811 81.5783C77.7319 82.4471 78.459 83.5405 79.6021 84.6095C81.9578 86.8124 85.7267 88.5885 91.5043 88.5885V81.5885ZM105.084 121.111H161.809V114.111H105.084V121.111ZM161.809 121.111C168.696 121.111 171.821 122.114 173.19 123.056C174.145 123.713 174.5 124.502 174.5 126.283H181.5C181.5 123.333 180.786 119.786 177.159 117.29C173.946 115.078 168.975 114.111 161.809 114.111V121.111ZM76.5 79.0177V91.4625H83.5V79.0177H76.5ZM151.87 88.3021C164.353 88.2347 174.5 98.3347 174.5 110.823H181.5C181.5 94.4582 168.2 81.2138 151.832 81.3022L151.87 88.3021ZM105.084 114.111C93.3458 114.111 83.5 103.576 83.5 91.4625H76.5C76.5 107.061 89.1095 121.111 105.084 121.111V114.111ZM181.5 126.283V110.823H174.5V126.283H181.5ZM151.832 81.3022C149.57 81.3145 146.544 81.3261 144.158 81.3388L144.196 88.3387C146.454 88.3266 149.719 88.3137 151.87 88.3021L151.832 81.3022ZM144.158 81.3388C122.11 81.4566 97.0459 81.5885 91.5043 81.5885V88.5885C97.0705 88.5885 122.165 88.4564 144.196 88.3387L144.158 81.3388ZM140.677 61.6726V84.8387H147.677V61.6726H140.677Z" fill="white"/>
</g>
<path d="M225.96 124.768C221.949 124.768 218.643 123.787 216.04 121.824C213.437 119.861 211.944 117.259 211.56 114.016H218.408C218.749 115.467 219.56 116.725 220.84 117.792C222.12 118.816 223.805 119.328 225.896 119.328C227.944 119.328 229.437 118.901 230.376 118.048C231.315 117.195 231.784 116.213 231.784 115.104C231.784 113.483 231.123 112.395 229.8 111.84C228.52 111.243 226.728 110.709 224.424 110.24C222.632 109.856 220.84 109.344 219.048 108.704C217.299 108.064 215.827 107.168 214.632 106.016C213.48 104.821 212.904 103.221 212.904 101.216C212.904 98.4427 213.971 96.1387 216.104 94.304C218.237 92.4267 221.224 91.488 225.064 91.488C228.605 91.488 231.464 92.3413 233.64 94.048C235.859 95.7547 237.16 98.1653 237.544 101.28H231.016C230.803 99.9147 230.163 98.848 229.096 98.08C228.072 97.312 226.685 96.928 224.936 96.928C223.229 96.928 221.907 97.2907 220.968 98.016C220.029 98.6987 219.56 99.5947 219.56 100.704C219.56 101.813 220.2 102.688 221.48 103.328C222.803 103.968 224.531 104.544 226.664 105.056C228.797 105.525 230.76 106.08 232.552 106.72C234.387 107.317 235.859 108.213 236.968 109.408C238.077 110.603 238.632 112.352 238.632 114.656C238.675 117.557 237.544 119.968 235.24 121.888C232.979 123.808 229.885 124.768 225.96 124.768ZM257.75 124.768C253.91 124.768 250.881 123.573 248.662 121.184C246.486 118.795 245.398 115.232 245.398 110.496V92.256H252.182V109.792C252.182 115.936 254.699 119.008 259.734 119.008C262.251 119.008 264.321 118.112 265.942 116.32C267.563 114.528 268.374 111.968 268.374 108.64V92.256H275.158V124H269.142L268.63 118.432C267.649 120.395 266.198 121.952 264.278 123.104C262.401 124.213 260.225 124.768 257.75 124.768ZM301.644 124.768C299.169 124.768 296.972 124.277 295.052 123.296C293.175 122.315 291.681 120.928 290.572 119.136L289.868 124H283.788V77.92H290.572V97.184C291.596 95.6907 293.004 94.368 294.796 93.216C296.588 92.064 298.892 91.488 301.708 91.488C304.78 91.488 307.489 92.2133 309.836 93.664C312.183 95.1147 314.017 97.0987 315.34 99.616C316.705 102.133 317.388 104.992 317.388 108.192C317.388 111.392 316.705 114.251 315.34 116.768C314.017 119.243 312.183 121.205 309.836 122.656C307.489 124.064 304.759 124.768 301.644 124.768ZM300.492 118.88C303.393 118.88 305.783 117.899 307.66 115.936C309.537 113.931 310.476 111.328 310.476 108.128C310.476 106.037 310.049 104.181 309.196 102.56C308.343 100.939 307.169 99.68 305.676 98.784C304.183 97.8453 302.455 97.376 300.492 97.376C297.591 97.376 295.201 98.3787 293.324 100.384C291.489 102.389 290.572 104.971 290.572 108.128C290.572 111.328 291.489 113.931 293.324 115.936C295.201 117.899 297.591 118.88 300.492 118.88ZM324.726 124V77.92H331.51V124H324.726ZM354.949 124.768C351.834 124.768 349.061 124.085 346.629 122.72C344.239 121.312 342.362 119.371 340.997 116.896C339.631 114.421 338.949 111.541 338.949 108.256C338.949 104.928 339.61 102.005 340.933 99.488C342.298 96.9707 344.175 95.008 346.565 93.6C348.997 92.192 351.813 91.488 355.013 91.488C358.127 91.488 360.837 92.192 363.141 93.6C365.445 94.9653 367.237 96.8 368.517 99.104C369.797 101.408 370.437 103.947 370.437 106.72C370.437 107.147 370.415 107.616 370.373 108.128C370.373 108.597 370.351 109.131 370.309 109.728H345.605C345.818 112.8 346.821 115.147 348.613 116.768C350.447 118.347 352.559 119.136 354.949 119.136C356.869 119.136 358.469 118.709 359.749 117.856C361.071 116.96 362.053 115.765 362.693 114.272H369.477C368.623 117.259 366.917 119.755 364.357 121.76C361.839 123.765 358.703 124.768 354.949 124.768ZM354.949 97.056C352.687 97.056 350.682 97.7387 348.933 99.104C347.183 100.427 346.117 102.432 345.733 105.12H363.653C363.525 102.645 362.65 100.683 361.029 99.232C359.407 97.7813 357.381 97.056 354.949 97.056ZM390.148 124.768C386.137 124.768 382.83 123.787 380.228 121.824C377.625 119.861 376.132 117.259 375.748 114.016H382.595C382.937 115.467 383.748 116.725 385.028 117.792C386.308 118.816 387.993 119.328 390.083 119.328C392.132 119.328 393.625 118.901 394.564 118.048C395.502 117.195 395.972 116.213 395.972 115.104C395.972 113.483 395.31 112.395 393.988 111.84C392.708 111.243 390.916 110.709 388.612 110.24C386.82 109.856 385.028 109.344 383.236 108.704C381.486 108.064 380.014 107.168 378.82 106.016C377.668 104.821 377.092 103.221 377.092 101.216C377.092 98.4427 378.158 96.1387 380.292 94.304C382.425 92.4267 385.412 91.488 389.252 91.488C392.793 91.488 395.652 92.3413 397.828 94.048C400.046 95.7547 401.348 98.1653 401.732 101.28H395.204C394.99 99.9147 394.35 98.848 393.284 98.08C392.26 97.312 390.873 96.928 389.124 96.928C387.417 96.928 386.094 97.2907 385.156 98.016C384.217 98.6987 383.748 99.5947 383.748 100.704C383.748 101.813 384.388 102.688 385.668 103.328C386.99 103.968 388.718 104.544 390.852 105.056C392.985 105.525 394.948 106.08 396.74 106.72C398.574 107.317 400.046 108.213 401.156 109.408C402.265 110.603 402.82 112.352 402.82 114.656C402.862 117.557 401.732 119.968 399.428 121.888C397.166 123.808 394.073 124.768 390.148 124.768ZM422.898 124.768C418.887 124.768 415.58 123.787 412.978 121.824C410.375 119.861 408.882 117.259 408.498 114.016H415.345C415.687 115.467 416.498 116.725 417.778 117.792C419.058 118.816 420.743 119.328 422.833 119.328C424.882 119.328 426.375 118.901 427.314 118.048C428.252 117.195 428.722 116.213 428.722 115.104C428.722 113.483 428.06 112.395 426.738 111.84C425.458 111.243 423.666 110.709 421.362 110.24C419.57 109.856 417.778 109.344 415.986 108.704C414.236 108.064 412.764 107.168 411.57 106.016C410.418 104.821 409.842 103.221 409.842 101.216C409.842 98.4427 410.908 96.1387 413.042 94.304C415.175 92.4267 418.162 91.488 422.002 91.488C425.543 91.488 428.402 92.3413 430.578 94.048C432.796 95.7547 434.098 98.1653 434.482 101.28H427.954C427.74 99.9147 427.1 98.848 426.034 98.08C425.01 97.312 423.623 96.928 421.874 96.928C420.167 96.928 418.844 97.2907 417.906 98.016C416.967 98.6987 416.498 99.5947 416.498 100.704C416.498 101.813 417.138 102.688 418.418 103.328C419.74 103.968 421.468 104.544 423.602 105.056C425.735 105.525 427.698 106.08 429.49 106.72C431.324 107.317 432.796 108.213 433.906 109.408C435.015 110.603 435.57 112.352 435.57 114.656C435.612 117.557 434.482 119.968 432.178 121.888C429.916 123.808 426.823 124.768 422.898 124.768Z" fill="white"/>
<defs>
<filter id="filter0_d_168_1761" x="71.2965" y="47.7655" width="115.407" height="115.407" filterUnits="userSpaceOnUse" color-interpolation-filters="sRGB">
<feFlood flood-opacity="0" result="BackgroundImageFix"/>
<feColorMatrix in="SourceAlpha" type="matrix" values="0 0 0 0 0 0 0 0 0 0 0 0 0 0 0 0 0 0 127 0" result="hardAlpha"/>
<feOffset dy="3.46903"/>
<feGaussianBlur stdDeviation="2.60177"/>
<feComposite in2="hardAlpha" operator="out"/>
<feColorMatrix type="matrix" values="0 0 0 0 0 0 0 0 0 0 0 0 0 0 0 0 0 0 0.35 0"/>
<feBlend mode="normal" in2="BackgroundImageFix" result="effect1_dropShadow_168_1761"/>
<feBlend mode="normal" in="SourceGraphic" in2="effect1_dropShadow_168_1761" result="shape"/>
</filter>
</defs>
</svg>
