<svg width="66" height="66" viewBox="0 0 66 66" fill="none" xmlns="http://www.w3.org/2000/svg">
<path d="M46.2571 34.5654C47.0345 33.6315 47.0345 32.3689 46.2571 31.4336C43.8085 28.4934 37.9339 22.4395 31.0752 22.4395C24.2165 22.4395 18.3419 28.4934 15.8933 31.4336C14.9185 32.6863 14.9134 33.3886 15.8933 34.5654C18.3419 37.5056 24.2165 43.5595 31.0752 43.5595C37.9339 43.5595 43.8085 37.5056 46.2571 34.5654Z" stroke="white" stroke-width="3.96" stroke-linecap="round" stroke-linejoin="round"/>
<path d="M30.8205 36.8998C33.1069 36.8998 34.9603 35.0463 34.9603 32.7599C34.9603 30.4736 33.1069 28.6201 30.8205 28.6201C28.5341 28.6201 26.6807 30.4736 26.6807 32.7599C26.6807 35.0463 28.5341 36.8998 30.8205 36.8998Z" stroke="white" stroke-width="2.91998" stroke-linecap="round" stroke-linejoin="round"/>
</svg>
